<svg width="20" height="20" viewBox="0 0 20 20" fill="none" xmlns="http://www.w3.org/2000/svg">
<path d="M2.79297 5.55859C2.81641 5.32812 2.72656 5.09766 2.55469 4.94141L0.792969 2.81641V2.5H6.26953L10.5039 11.7852L14.2266 2.5H19.4492V2.81641L17.9414 4.26172C17.8125 4.35938 17.7461 4.52344 17.7734 4.68359V15.3086C17.7461 15.4688 17.8125 15.6328 17.9414 15.7305L19.4141 17.1758V17.4922H12.0039V17.1758L13.5312 15.6953C13.6797 15.5469 13.6797 15.5 13.6797 15.2734V6.6875L9.43359 17.4648H8.85938L3.92188 6.6875V13.9102C3.87891 14.2148 3.98047 14.5195 4.19531 14.7383L6.17969 17.1445V17.4609H0.554688V17.1484L2.53906 14.7383C2.75 14.5195 2.84766 14.2109 2.79297 13.9102V5.55859Z" fill="black"/>
</svg>
