<svg width="20" height="20" viewBox="0 0 20 20" fill="none" xmlns="http://www.w3.org/2000/svg">
<path d="M17.1991 7.94884C16.6132 7.94884 16.0975 8.19102 15.7186 8.56993C14.3241 7.60509 12.4452 6.98399 10.3632 6.91759L11.4452 2.04259L14.8905 2.81602C14.8905 3.65977 15.578 4.34727 16.4218 4.34727C17.2811 4.34727 17.9725 3.64024 17.9725 2.79649C17.9725 1.95274 17.285 1.24571 16.4218 1.24571C15.8202 1.24571 15.3007 1.60899 15.0429 2.10509L11.2382 1.26134C11.0468 1.21056 10.8593 1.34727 10.8085 1.53868L9.62098 6.91368C7.55458 6.99962 5.6952 7.62071 4.29676 8.58556C3.91786 8.19103 3.3827 7.94884 2.79676 7.94884C0.62489 7.94884 -0.0860479 10.8629 1.90223 11.859C1.83192 12.1676 1.80067 12.4957 1.80067 12.8238C1.80067 16.0973 5.48817 18.7496 10.0155 18.7496C14.5624 18.7496 18.2499 16.0973 18.2499 12.8238C18.2499 12.4957 18.2147 12.152 18.1288 11.8434C20.078 10.8434 19.3593 7.94884 17.1991 7.94884ZM5.05458 12.066C5.05458 11.2066 5.74208 10.5152 6.60536 10.5152C7.44911 10.5152 8.13661 11.2027 8.13661 12.066C8.13661 12.9098 7.44911 13.5973 6.60536 13.5973C5.74598 13.6012 5.05458 12.9098 5.05458 12.066ZM13.4257 15.7184C12.0038 17.1402 7.99208 17.1402 6.5702 15.7184C6.41395 15.5816 6.41395 15.3395 6.5702 15.1832C6.70692 15.0465 6.94911 15.0465 7.08583 15.1832C8.17176 16.2965 11.7733 16.316 12.9061 15.1832C13.0429 15.0465 13.285 15.0465 13.4218 15.1832C13.5819 15.3395 13.5819 15.5816 13.4257 15.7184ZM13.3944 13.6012C12.5507 13.6012 11.8632 12.9137 11.8632 12.0699C11.8632 11.2106 12.5507 10.5191 13.3944 10.5191C14.2538 10.5191 14.9452 11.2066 14.9452 12.0699C14.9413 12.9098 14.2538 13.6012 13.3944 13.6012Z" fill="black"/>
</svg>
