<svg width="83" height="22" viewBox="0 0 83 22" fill="none" xmlns="http://www.w3.org/2000/svg">
<path d="M-0.000440972 3.04293C-0.000440972 3.05419 -0.166441 3.07839 -0.000440972 3.09924C0.165559 3.12008 0.497559 3.12393 0.829559 3.14714C1.16156 3.17036 1.49356 3.26849 1.65956 3.21529C1.82556 3.1621 1.49356 2.97956 1.65956 2.88115C1.82556 2.78275 2.15756 2.76171 2.48956 2.72325C2.82156 2.68478 3.15356 2.77204 3.31956 2.68882C3.48556 2.6056 3.15356 2.44315 3.31956 2.30715C3.48556 2.17115 3.81756 2.01399 4.14956 2.00883C4.48156 2.00367 4.81356 2.26022 4.97956 2.28135C5.14556 2.30248 4.81356 2.15396 4.97956 2.11447C5.14556 2.07497 5.47756 2.08766 5.80956 2.08388C6.14156 2.0801 6.30756 2.11495 6.63956 2.09557C6.97156 2.07619 7.30356 2.23113 7.46956 1.98699C7.63556 1.74286 7.30356 0.982446 7.46956 0.874898C7.63556 0.76735 7.96756 1.33077 8.29956 1.44925C8.63156 1.56773 8.96356 1.38465 9.12956 1.4673C9.29556 1.54995 8.96356 1.77491 9.12956 1.86251C9.29556 1.95011 9.62756 1.86786 9.95956 1.90528C10.2916 1.94271 10.6236 1.94606 10.7896 2.04963C10.9556 2.1532 10.6236 2.26167 10.7896 2.42313C10.9556 2.58459 11.2876 2.85003 11.6196 2.85695C11.9516 2.86387 12.2836 2.47503 12.4496 2.45773C12.6156 2.44043 12.2836 2.70152 12.4496 2.77046C12.6156 2.83939 12.9476 2.78794 13.2796 2.80239C13.6116 2.81683 13.7776 2.7355 14.1096 2.84269C14.4416 2.94988 14.7736 3.16488 14.9396 3.33833C15.1056 3.51178 14.7736 3.65356 14.9396 3.70996C15.1056 3.76636 15.4376 3.6034 15.7696 3.62032C16.1016 3.63725 16.4336 3.74152 16.5996 3.79459C16.7656 3.84765 16.4336 3.89549 16.5996 3.88564C16.7656 3.87579 17.0976 3.86867 17.4296 3.74533C17.7616 3.62199 18.0936 3.39948 18.2596 3.26896C18.4256 3.13845 18.0936 3.08246 18.2596 3.09276C18.4256 3.10305 18.7576 3.29449 19.0896 3.32043C19.4216 3.34638 19.5876 3.34026 19.9196 3.22247C20.2516 3.10469 20.5836 2.52356 20.7496 2.7315C20.9156 2.93943 20.5836 3.89643 20.7496 4.26216C20.9156 4.62788 21.2476 4.53164 21.5796 4.56013C21.9116 4.58861 22.2436 4.38442 22.4096 4.40459C22.5756 4.42476 22.2436 4.519 22.4096 4.66098C22.5756 4.80296 22.9076 4.96731 23.2396 5.11449C23.5716 5.26168 23.9036 5.39772 24.0696 5.39691C24.2356 5.3961 23.9036 5.09821 24.0696 5.11043C24.2356 5.12264 24.5676 5.31507 24.8996 5.45798C25.2316 5.60089 25.5636 5.6281 25.7296 5.82497C25.8956 6.02185 25.5636 6.55668 25.7296 6.44235C25.8956 6.32802 26.2276 5.42372 26.5596 5.25333C26.8916 5.08294 27.0576 5.30514 27.3896 5.59041C27.7216 5.87569 28.0536 6.29508 28.2196 6.6797C28.3856 7.06432 28.0536 7.4499 28.2196 7.51349C28.3856 7.57708 28.7176 6.98834 29.0496 6.99764C29.3816 7.00693 29.7136 7.23159 29.8796 7.55998C30.0456 7.88837 29.7136 8.5775 29.8796 8.63959C30.0456 8.70169 30.3776 7.86594 30.7096 7.87044C31.0416 7.87493 31.3736 8.75128 31.5396 8.66208C31.7056 8.57287 31.3736 7.65016 31.5396 7.42443C31.7056 7.19869 32.0376 7.46169 32.3696 7.53341C32.7016 7.60512 33.0336 7.69341 33.1996 7.78302C33.3656 7.87263 33.0336 7.66272 33.1996 7.98143C33.3656 8.30015 33.6976 9.0495 34.0296 9.37659C34.3616 9.70368 34.5276 9.6515 34.8596 9.61688C35.1916 9.58227 35.5236 8.9649 35.6896 9.20353C35.8556 9.44216 35.5236 10.366 35.6896 10.81C35.8556 11.2541 36.1876 11.2976 36.5196 11.4238C36.8516 11.55 37.1836 11.5531 37.3496 11.4412C37.5156 11.3293 37.1836 11.1184 37.3496 10.8643C37.5156 10.6102 37.8476 9.92741 38.1796 10.1708C38.5116 10.4141 38.8436 11.2107 39.0096 12.0811C39.1756 12.9516 38.8436 14.759 39.0096 14.5228C39.1756 14.2867 39.5076 11.568 39.8396 10.9003C40.1716 10.2326 40.3376 10.8746 40.6696 11.1846C41.0016 11.4945 41.3336 12.0943 41.4996 12.4502C41.6656 12.806 41.3336 12.4889 41.4996 12.9636C41.6656 13.4384 41.9976 14.5704 42.3296 14.824C42.6616 15.0775 42.9936 14.4583 43.1596 14.2312C43.3256 14.0041 42.9936 13.787 43.1596 13.6885C43.3256 13.5899 43.6576 13.5776 43.9896 13.7385C44.3216 13.8993 44.6536 14.4233 44.8196 14.4926C44.9856 14.5619 44.6536 14.6371 44.8196 14.0848C44.9856 13.5325 45.3176 12.1441 45.6496 11.731C45.9816 11.318 46.3136 12.1317 46.4796 12.0196C46.6456 11.9076 46.3136 11.4815 46.4796 11.1707C46.6456 10.8599 46.9776 10.6114 47.3096 10.4656C47.6416 10.3198 47.8076 10.2908 48.1396 10.4417C48.4716 10.5925 48.8036 11.0302 48.9696 11.2196C49.1356 11.409 48.8036 11.3881 48.9696 11.3887C49.1356 11.3893 49.4676 11.1678 49.7996 11.2226C50.1316 11.2773 50.4636 11.6089 50.6296 11.6625C50.7956 11.7161 50.4636 11.6285 50.6296 11.4906C50.7956 11.3527 51.1276 11.1194 51.4596 10.973C51.7916 10.8266 52.1236 10.9156 52.2896 10.7587C52.4556 10.6018 52.1236 10.4667 52.2896 10.1885C52.4556 9.91026 52.7876 9.271 53.1196 9.3677C53.4516 9.46439 53.7836 10.265 53.9496 10.672C54.1156 11.0789 53.7836 11.2512 53.9496 11.4023C54.1156 11.5535 54.4476 11.4062 54.7796 11.4277C55.1116 11.4493 55.2776 11.5892 55.6096 11.5101C55.9416 11.4309 56.2736 10.9115 56.4396 11.0321C56.6056 11.1526 56.2736 11.6664 56.4396 12.1127C56.6056 12.559 56.9376 12.8898 57.2696 13.2637C57.6016 13.6376 57.9336 13.8224 58.0996 13.9821C58.2656 14.1419 57.9336 14.0548 58.0996 14.0623C58.2656 14.0698 58.5976 14.0321 58.9296 14.0198C59.2616 14.0076 59.5936 13.9788 59.7596 14.001C59.9256 14.0231 59.5936 14.1564 59.7596 14.1306C59.9256 14.1048 60.2576 13.9453 60.5896 13.8718C60.9216 13.7983 61.0876 13.6604 61.4196 13.7632C61.7516 13.8659 62.0836 14.06 62.2496 14.3855C62.4156 14.7111 62.0836 15.1356 62.2496 15.3909C62.4156 15.6462 62.7476 15.6827 63.0796 15.6619C63.4116 15.6411 63.7436 15.4395 63.9096 15.2868C64.0756 15.1342 63.7436 14.6963 63.9096 14.8988C64.0756 15.1013 64.4076 15.7606 64.7396 16.2993C65.0716 16.838 65.4036 17.3455 65.5696 17.5923C65.7356 17.839 65.4036 17.5918 65.5696 17.5332C65.7356 17.4745 66.0676 17.1302 66.3996 17.299C66.7316 17.4678 67.0636 17.6118 67.2296 18.377C67.3956 19.1422 67.0636 21.0655 67.2296 21.1249C67.3956 21.1843 67.7276 19.4246 68.0596 18.6742C68.3916 17.9238 68.5576 17.456 68.8896 17.3731C69.2216 17.2901 69.5536 17.991 69.7196 18.2595C69.8856 18.5279 69.5536 18.7012 69.7196 18.7153C69.8856 18.7295 70.2176 18.5739 70.5496 18.3301C70.8816 18.0864 71.2136 17.5035 71.3796 17.4966C71.5456 17.4898 71.2136 18.0486 71.3796 18.2957C71.5456 18.5429 71.8776 18.6838 72.2096 18.7323C72.5416 18.7809 72.8736 18.3056 73.0396 18.5384C73.2056 18.7712 72.8736 19.5887 73.0396 19.8963C73.2056 20.204 73.5376 21.0649 73.8696 20.0768C74.2016 19.0887 74.5336 16.1706 74.6996 14.9558C74.8656 13.7411 74.5336 14.0913 74.6996 14.0031C74.8656 13.915 75.1976 14.336 75.5296 14.5152C75.8616 14.6944 76.0276 14.6975 76.3596 14.8991C76.6916 15.1008 77.0236 15.2712 77.1896 15.5235C77.3556 15.7757 77.0236 16.0648 77.1896 16.1605C77.3556 16.2561 77.6876 16.1998 78.0196 16.0017C78.3516 15.8035 78.6836 15.4079 78.8496 15.1698C79.0156 14.9316 78.6836 14.9082 78.8496 14.8107C79.0156 14.7133 79.3476 14.7792 79.6796 14.6825C80.0116 14.5858 80.3436 14.4553 80.5096 14.3272C80.6756 14.199 80.3436 14.2834 80.5096 14.0416C80.6756 13.7998 81.0076 13.1549 81.3396 13.1182C81.6716 13.0815 82.0036 13.7103 82.1696 13.8583" stroke="#DF5F67"/>
</svg>
