<svg width="83" height="22" viewBox="0 0 83 22" fill="none" xmlns="http://www.w3.org/2000/svg">
<mask id="path-1-inside-1_2262_1624" fill="white">
<path d="M-0.00044097 6.45279C-0.00044097 6.27869 -0.166441 5.96421 -0.00044097 5.58231C0.165559 5.20041 0.497559 4.56312 0.829559 4.5433C1.16156 4.52348 1.49356 5.02092 1.65956 5.48321C1.82556 5.94549 1.49356 7.02295 1.65956 6.85473C1.82556 6.68652 2.15756 5.29663 2.48956 4.64213C2.82156 3.98764 3.15356 3.88567 3.31956 3.58225C3.48556 3.27883 3.15356 3.13097 3.31956 3.12503C3.48556 3.1191 3.81756 3.19253 4.14956 3.55257C4.48156 3.91261 4.81356 4.64259 4.97956 4.92523C5.14556 5.20786 4.81356 4.98471 4.97956 4.96574C5.14556 4.94677 5.47756 4.97838 5.80956 4.83036C6.14156 4.68234 6.47356 4.17674 6.63956 4.22565C6.80556 4.27455 6.47356 5.29793 6.63956 5.07488C6.80556 4.85182 7.13756 3.32288 7.46956 3.11039C7.80156 2.89789 8.13356 3.67052 8.29956 4.01241C8.46556 4.35431 8.13356 4.5245 8.29956 4.81984C8.46556 5.11519 8.79756 5.48211 9.12956 5.48916C9.46156 5.49621 9.62756 4.82222 9.95956 4.8551C10.2916 4.88798 10.6236 5.06034 10.7896 5.65357C10.9556 6.2468 10.6236 7.41574 10.7896 7.82126C10.9556 8.22678 11.2876 8.40875 11.6196 7.68116C11.9516 6.95357 12.2836 4.7558 12.4496 4.18331C12.6156 3.61082 12.2836 5.25262 12.4496 4.81872C12.6156 4.38482 12.9476 2.53115 13.2796 2.0138C13.6116 1.49645 13.9436 2.45971 14.1096 2.23197C14.2756 2.00423 13.9436 1.06625 14.1096 0.875088C14.2756 0.68393 14.6076 1.04603 14.9396 1.27617C15.2716 1.50632 15.6036 1.5739 15.7696 2.02582C15.9356 2.47774 15.6036 2.99748 15.7696 3.53578C15.9356 4.07408 16.2676 4.10047 16.5996 4.71731C16.9316 5.33415 17.2636 6.51189 17.4296 6.61998C17.5956 6.72808 17.2636 5.45063 17.4296 5.25779C17.5956 5.06496 17.9276 5.59594 18.2596 5.65582C18.5916 5.7157 18.9236 5.44745 19.0896 5.5572C19.2556 5.66695 18.9236 5.76132 19.0896 6.20457C19.2556 6.64782 19.5876 7.85743 19.9196 7.77345C20.2516 7.68947 20.4176 6.0986 20.7496 5.78465C21.0816 5.47071 21.4136 6.32618 21.5796 6.20371C21.7456 6.08125 21.4136 4.88042 21.5796 5.17232C21.7456 5.46421 22.0776 6.56881 22.4096 7.66319C22.7416 8.75756 23.0736 10.1455 23.2396 10.6442C23.4056 11.1429 23.0736 10.4264 23.2396 10.1568C23.4056 9.88718 23.7376 9.64143 24.0696 9.29618C24.4016 8.95093 24.7336 8.60729 24.8996 8.43053C25.0656 8.25378 24.7336 8.07762 24.8996 8.4124C25.0656 8.74717 25.3976 9.61437 25.7296 10.1044C26.0616 10.5945 26.3936 10.7117 26.5596 10.8626C26.7256 11.0136 26.3936 10.4358 26.5596 10.8592C26.7256 11.2826 27.0576 12.3272 27.3896 12.9796C27.7216 13.6321 28.0536 13.822 28.2196 14.1215C28.3856 14.421 28.0536 14.3671 28.2196 14.477C28.3856 14.5869 28.7176 14.3224 29.0496 14.671C29.3816 15.0195 29.7136 16.4862 29.8796 16.2195C30.0456 15.9529 29.7136 13.428 29.8796 13.3379C30.0456 13.2478 30.3776 14.956 30.7096 15.769C31.0416 16.5821 31.2076 16.8197 31.5396 17.403C31.8716 17.9863 32.2036 18.2277 32.3696 18.6856C32.5356 19.1434 32.2036 19.6544 32.3696 19.6924C32.5356 19.7304 32.8676 18.5891 33.1996 18.8756C33.5316 19.1622 33.8636 20.9725 34.0296 21.1251C34.1956 21.2777 33.8636 20.4304 34.0296 19.6388C34.1956 18.8471 34.5276 17.7779 34.8596 17.1668C35.1916 16.5557 35.5236 16.3207 35.6896 16.5832C35.8556 16.8457 35.5236 18.9112 35.6896 18.4793C35.8556 18.0473 36.1876 14.7965 36.5196 14.4234C36.8516 14.0504 37.1836 16.2384 37.3496 16.614C37.5156 16.9896 37.1836 16.762 37.3496 16.3013C37.5156 15.8407 37.8476 15.0277 38.1796 14.3106C38.5116 13.5936 38.8436 12.866 39.0096 12.7162C39.1756 12.5665 38.8436 13.9737 39.0096 13.5618C39.1756 13.1499 39.5076 11.302 39.8396 10.6566C40.1716 10.0112 40.3376 10.4661 40.6696 10.3347C41.0016 10.2032 41.3336 10.0095 41.4996 9.99936C41.6656 9.98924 41.3336 10.175 41.4996 10.2841C41.6656 10.3931 41.9976 10.6848 42.3296 10.5445C42.6616 10.4043 42.9936 9.70483 43.1596 9.58287C43.3256 9.46091 42.9936 9.96485 43.1596 9.9347C43.3256 9.90456 43.6576 9.61466 43.9896 9.43215C44.3216 9.24964 44.6536 9.48984 44.8196 9.02216C44.9856 8.55447 44.6536 7.66791 44.8196 7.09372C44.9856 6.51954 45.3176 6.26566 45.6496 6.15124C45.9816 6.03682 46.3136 6.06815 46.4796 6.52163C46.6456 6.97511 46.3136 7.92361 46.4796 8.41862C46.6456 8.91363 46.9776 8.8908 47.3096 8.99667C47.6416 9.10253 47.9736 8.61008 48.1396 8.94795C48.3056 9.28582 47.9736 9.85684 48.1396 10.686C48.3056 11.5152 48.6376 12.5431 48.9696 13.0938C49.3016 13.6444 49.6336 14.0945 49.7996 13.4394C49.9656 12.7842 49.6336 10.2762 49.7996 9.818C49.9656 9.35979 50.2976 10.3821 50.6296 11.1483C50.9616 11.9146 51.1276 12.7684 51.4596 13.6492C51.7916 14.53 52.1236 14.9147 52.2896 15.5524C52.4556 16.1901 52.1236 16.6199 52.2896 16.8378C52.4556 17.0558 52.7876 16.5348 53.1196 16.6421C53.4516 16.7494 53.7836 17.4947 53.9496 17.3745C54.1156 17.2542 53.7836 16.5392 53.9496 16.0407C54.1156 15.5422 54.4476 15.5813 54.7796 14.8818C55.1116 14.1822 55.4436 13.0163 55.6096 12.5429C55.7756 12.0695 55.4436 12.4962 55.6096 12.5148C55.7756 12.5334 56.1076 13.4198 56.4396 12.6359C56.7716 11.8519 57.1036 9.67886 57.2696 8.59503C57.4356 7.5112 57.1036 7.36124 57.2696 7.21672C57.4356 7.0722 57.7676 7.54612 58.0996 7.87242C58.4316 8.19871 58.7636 8.70033 58.9296 8.84818C59.0956 8.99604 58.7636 8.75861 58.9296 8.61171C59.0956 8.4648 59.4276 8.73502 59.7596 8.11368C60.0916 7.49234 60.4236 5.92185 60.5896 5.50499C60.7556 5.08813 60.4236 6.2451 60.5896 6.02938C60.7556 5.81365 61.0876 4.44934 61.4196 4.42637C61.7516 4.4034 61.9176 5.85535 62.2496 5.91453C62.5816 5.9737 62.9136 5.04022 63.0796 4.72224C63.2456 4.40425 62.9136 4.1071 63.0796 4.32459C63.2456 4.54208 63.5776 5.33723 63.9096 5.80968C64.2416 6.28214 64.5736 6.51138 64.7396 6.68685C64.9056 6.86231 64.5736 6.9513 64.7396 6.68701C64.9056 6.42272 65.2376 5.85885 65.5696 5.3654C65.9016 4.87195 66.2336 4.36062 66.3996 4.21975C66.5656 4.07887 66.2336 4.34468 66.3996 4.66102C66.5656 4.97736 66.8976 5.55341 67.2296 5.80145C67.5616 6.0495 67.8936 6.02989 68.0596 5.90124C68.2256 5.77259 67.8936 5.17353 68.0596 5.15818C68.2256 5.14284 68.5576 5.72047 68.8896 5.82453C69.2216 5.92859 69.5536 5.64044 69.7196 5.67848C69.8856 5.71652 69.5536 6.43922 69.7196 6.01475C69.8856 5.59027 70.2176 3.87248 70.5496 3.55609C70.8816 3.23971 71.2136 4.24074 71.3796 4.43283C71.5456 4.62491 71.2136 4.76415 71.3796 4.51653C71.5456 4.26891 71.8776 3.54641 72.2096 3.1947C72.5416 2.843 72.7076 2.81024 73.0396 2.758C73.3716 2.70577 73.7036 2.93534 73.8696 2.93353C74.0356 2.93173 73.7036 2.83914 73.8696 2.74897C74.0356 2.6588 74.3676 2.37583 74.6996 2.48269C75.0316 2.58954 75.3636 3.10924 75.5296 3.28325C75.6956 3.45726 75.3636 3.3806 75.5296 3.35275C75.6956 3.3249 76.0276 3.26488 76.3596 3.14398C76.6916 3.02307 77.0236 3.14797 77.1896 2.74821C77.3556 2.34846 77.0236 1.37624 77.1896 1.14521C77.3556 0.914171 77.6876 1.39 78.0196 1.59304C78.3516 1.79608 78.6836 1.72485 78.8496 2.16041C79.0156 2.59597 78.6836 3.62107 78.8496 3.77084C79.0156 3.9206 79.3476 2.62082 79.6796 2.90922C80.0116 3.19762 80.3436 4.69639 80.5096 5.21284C80.6756 5.72928 80.3436 5.70293 80.5096 5.49144C80.6756 5.27994 81.0076 4.32415 81.3396 4.15536C81.6716 3.98656 82.0036 4.54904 82.1696 4.64746"/>
</mask>
<path d="M15.7696 2.02582L16.7082 1.68102L15.7696 2.02582ZM15.7696 3.53578L16.7252 3.24109L15.7696 3.53578ZM35.6896 16.5832L36.5347 16.0487L35.6896 16.5832ZM37.3496 16.614L36.4349 17.0182L37.3496 16.614ZM0.999559 6.45279C0.999559 6.35645 0.988475 6.27418 0.979871 6.22108C0.971118 6.16708 0.960374 6.11687 0.953594 6.08554C0.937076 6.0092 0.931624 5.98519 0.927639 5.95674C0.923091 5.92428 0.930009 5.95026 0.916667 5.98095L-0.917549 5.18367C-1.09689 5.59627 -1.08997 5.97043 -1.05302 6.23421C-1.03626 6.35388 -1.01058 6.465 -1.00116 6.50853C-0.98401 6.5878 -1.00044 6.53455 -1.00044 6.45279H0.999559ZM0.916667 5.98095C0.988707 5.81522 1.0829 5.62838 1.17416 5.49672C1.22048 5.4299 1.24195 5.41274 1.23166 5.42151C1.23055 5.42245 1.11187 5.52822 0.889154 5.54152L0.769964 3.54507C0.381249 3.56828 0.0965666 3.76115 -0.0653506 3.89909C-0.236461 4.04486 -0.370615 4.21461 -0.469544 4.35733C-0.668782 4.64475 -0.823589 4.96751 -0.917549 5.18367L0.916667 5.98095ZM0.889154 5.54152C0.704955 5.55252 0.581268 5.48724 0.53981 5.46091C0.500676 5.43605 0.500368 5.42554 0.529148 5.46115C0.55479 5.49286 0.588763 5.54304 0.625089 5.61083C0.660801 5.67748 0.692924 5.75022 0.718397 5.82116L2.60072 5.14525C2.48977 4.83626 2.31641 4.49068 2.08447 4.20378C1.8979 3.973 1.44961 3.5045 0.769964 3.54507L0.889154 5.54152ZM0.718397 5.82116C0.694313 5.75409 0.71091 5.75342 0.70675 5.88446C0.70329 5.99346 0.68862 6.12357 0.668624 6.27107C0.653813 6.38032 0.622932 6.58175 0.614747 6.71519C0.612284 6.75536 0.609582 6.81886 0.614003 6.89123C0.616604 6.9338 0.62631 7.11433 0.724277 7.31027C0.77936 7.42043 0.893007 7.59718 1.1094 7.72745C1.34657 7.87024 1.60273 7.89462 1.81472 7.85567C2.14706 7.79462 2.34268 7.58618 2.37134 7.55714L0.947782 6.15233C0.955693 6.14431 1.13445 5.94718 1.45334 5.88859C1.65859 5.85088 1.90888 5.87429 2.14096 6.01401C2.35227 6.14123 2.46162 6.31282 2.51314 6.41585C2.60397 6.59752 2.60946 6.75587 2.61028 6.76926C2.61174 6.79321 2.61172 6.81111 2.61158 6.82043C2.61143 6.83027 2.61107 6.83638 2.611 6.83763C2.61089 6.83929 2.61126 6.83313 2.61323 6.81554C2.61511 6.79874 2.61781 6.77718 2.62156 6.74912C2.63156 6.67432 2.63669 6.64161 2.65049 6.53975C2.672 6.38112 2.69883 6.16571 2.70574 5.94792C2.71196 5.75218 2.7078 5.44347 2.60072 5.14525L0.718397 5.82116ZM2.37134 7.55714C2.52633 7.40008 2.61048 7.2151 2.6369 7.15798C2.67984 7.06513 2.71883 6.96419 2.75247 6.87159C2.81985 6.68615 2.89379 6.4555 2.96403 6.23777C3.1185 5.75885 3.2592 5.33538 3.38138 5.09452L1.59774 4.18975C1.38792 4.60338 1.19661 5.20211 1.06059 5.62381C0.985574 5.85639 0.92464 6.04566 0.872711 6.18858C0.846698 6.26017 0.829922 6.30052 0.821634 6.31844C0.796825 6.37209 0.83429 6.26734 0.947782 6.15233L2.37134 7.55714ZM3.38138 5.09452C3.4882 4.88394 3.58302 4.77853 3.67387 4.68769C3.69282 4.66874 3.83056 4.5364 3.88965 4.47454C3.98209 4.37776 4.09778 4.24329 4.19685 4.06221L2.44227 3.10228C2.45834 3.07291 2.47028 3.06497 2.44341 3.0931C2.38318 3.15615 2.38605 3.14709 2.25975 3.27339C2.0601 3.47301 1.82292 3.74583 1.59774 4.18975L3.38138 5.09452ZM4.19685 4.06221C4.32856 3.82146 4.38636 3.55748 4.36208 3.2924C4.33921 3.04284 4.24905 2.85726 4.19626 2.76104C4.17627 2.72462 4.14305 2.66959 4.15164 2.68413C4.1519 2.68458 4.15423 2.68852 4.1576 2.69457C4.16093 2.70053 4.1668 2.71125 4.17386 2.72538C4.18487 2.7474 4.21552 2.81028 4.23905 2.89845C4.26182 2.98376 4.29642 3.15991 4.2447 3.37608C4.18602 3.62141 4.04117 3.81553 3.86807 3.94181C3.71844 4.05097 3.57627 4.0896 3.5093 4.10437C3.4361 4.1205 3.37933 4.12354 3.35529 4.1244L3.28383 2.12567C3.23904 2.12727 3.16541 2.13216 3.07876 2.15126C2.99833 2.16899 2.84611 2.21171 2.68935 2.32607C2.50912 2.45755 2.36005 2.658 2.29958 2.91078C2.24609 3.13441 2.28133 3.31914 2.30669 3.41417C2.33281 3.51206 2.368 3.58579 2.38501 3.61981C2.4038 3.65739 2.42162 3.68776 2.42912 3.70047C2.43354 3.70795 2.43766 3.71481 2.44 3.7187C2.44291 3.72354 2.44402 3.72538 2.44525 3.72745C2.44732 3.73092 2.44577 3.72843 2.44286 3.72313C2.43157 3.70254 2.38291 3.61118 2.37042 3.47487C2.35651 3.32304 2.39356 3.19132 2.44227 3.10228L4.19685 4.06221ZM3.35529 4.1244C3.31422 4.12586 3.28952 4.12185 3.28052 4.12008C3.26997 4.11802 3.26909 4.1167 3.27641 4.11986C3.2884 4.12503 3.33996 4.14974 3.41441 4.23048L4.88471 2.87467C4.36701 2.31325 3.75871 2.1087 3.28383 2.12567L3.35529 4.1244ZM3.41441 4.23048C3.49128 4.31384 3.60797 4.49177 3.75157 4.75162C3.81789 4.87162 3.88008 4.99051 3.94083 5.10642C3.99652 5.21264 4.06086 5.33559 4.11729 5.43167L5.84183 4.41878C5.75513 4.27116 5.69617 4.13549 5.50205 3.78424C5.35515 3.51842 5.13984 3.15135 4.88471 2.87467L3.41441 4.23048ZM4.11729 5.43167C4.11685 5.43093 4.11213 5.42289 4.10514 5.40846C4.0985 5.39474 4.08648 5.36845 4.07396 5.33174C4.06214 5.29709 4.04394 5.23604 4.03421 5.15564C4.02497 5.07924 4.01829 4.94455 4.06328 4.78386C4.11204 4.60968 4.22121 4.41197 4.42115 4.26259C4.61418 4.11836 4.81689 4.07509 4.96231 4.06833C5.2193 4.05639 5.40097 4.14908 5.46155 4.18241C5.54541 4.22854 5.61881 4.28635 5.68149 4.35353C5.73464 4.41048 5.84255 4.54044 5.89816 4.74598C5.9283 4.85735 5.94843 5.01274 5.91232 5.19138C5.87449 5.37855 5.78362 5.54603 5.65707 5.67671C5.42733 5.91395 5.16376 5.9512 5.09312 5.95927L4.866 3.97221C4.75386 3.98503 4.46435 4.0334 4.22035 4.28537C4.08667 4.42341 3.99158 4.59915 3.95196 4.79515C3.91407 4.98262 3.93485 5.14738 3.96758 5.26834C4.02838 5.49305 4.14926 5.64302 4.21927 5.71804C4.29881 5.80327 4.39296 5.87721 4.49757 5.93476C4.5789 5.9795 4.78132 6.0789 5.05517 6.06617C5.20902 6.05902 5.41918 6.01349 5.61822 5.86478C5.82415 5.71092 5.93786 5.50651 5.98922 5.32307C6.0368 5.15311 6.03076 5.00659 6.01974 4.91545C6.00823 4.82031 5.98582 4.74161 5.96686 4.68604C5.92971 4.57712 5.88084 4.48519 5.84183 4.41878L4.11729 5.43167ZM5.09312 5.95927C5.08513 5.96018 5.08874 5.95945 5.16638 5.95683C5.22633 5.9548 5.31835 5.95167 5.42125 5.94248C5.62882 5.92394 5.91401 5.87868 6.21676 5.7437L5.40236 3.91702C5.37311 3.93007 5.3263 3.943 5.24337 3.95041C5.20102 3.95419 5.15816 3.95596 5.0988 3.95797C5.05712 3.95938 4.95699 3.96181 4.866 3.97221L5.09312 5.95927ZM6.21676 5.7437C6.42398 5.65131 6.58985 5.52396 6.69865 5.43268C6.80983 5.33942 6.91527 5.23677 6.97765 5.17716C7.01358 5.14284 7.03803 5.11984 7.05783 5.10215C7.0786 5.08359 7.08073 5.08312 7.06979 5.09098C7.06407 5.09508 7.00897 5.13546 6.91547 5.16989C6.82103 5.20468 6.61265 5.26021 6.35697 5.18489L6.92215 3.26641C6.62497 3.17886 6.3699 3.23949 6.22423 3.29315C6.07951 3.34645 5.96865 3.41946 5.90327 3.4664C5.7764 3.5575 5.65783 3.67205 5.59597 3.73116C5.5131 3.81033 5.46291 3.85879 5.41328 3.90042C5.36127 3.94405 5.36114 3.9354 5.40236 3.91702L6.21676 5.7437ZM6.35697 5.18489C6.09705 5.10832 5.92701 4.94186 5.83213 4.79903C5.74645 4.67005 5.71562 4.55377 5.70404 4.50142C5.68169 4.40046 5.68876 4.33615 5.68761 4.35819C5.68613 4.38655 5.677 4.45313 5.65491 4.57768C5.64171 4.65216 5.6062 4.8356 5.59601 4.96402C5.59309 5.00073 5.58797 5.07776 5.5958 5.169C5.59971 5.21456 5.60932 5.29583 5.63902 5.39192C5.66517 5.47651 5.73395 5.66332 5.91234 5.83169C6.12892 6.03609 6.42218 6.13243 6.71349 6.10069C6.95331 6.07456 7.11894 5.97023 7.19042 5.91981C7.33251 5.81958 7.41829 5.70347 7.44178 5.67191L5.83734 4.47785C5.84008 4.47417 5.909 4.3762 6.03764 4.28546C6.10239 4.23979 6.26214 4.13803 6.49687 4.11246C6.78309 4.08127 7.07206 4.17614 7.28507 4.37717C7.4599 4.54218 7.52585 4.72373 7.54982 4.80131C7.57736 4.89038 7.58547 4.96288 7.58848 4.99805C7.59453 5.06851 7.59006 5.11826 7.58974 5.12231C7.58854 5.13742 7.58827 5.13187 7.59643 5.08356C7.604 5.0387 7.61214 4.99487 7.6242 4.92682C7.64362 4.81728 7.67599 4.63279 7.68489 4.46249C7.68892 4.38519 7.69339 4.23465 7.65678 4.06923C7.63348 3.96395 7.50168 3.43713 6.92215 3.26641L6.35697 5.18489ZM7.44178 5.67191C7.54694 5.5306 7.61044 5.37432 7.63681 5.30887C7.67368 5.21735 7.70903 5.11615 7.74077 5.02144C7.77312 4.92492 7.80703 4.81901 7.83989 4.71647C7.87352 4.6115 7.90689 4.50741 7.94119 4.40429C8.01181 4.192 8.076 4.01582 8.13335 3.88978C8.14675 3.86035 8.15802 3.83756 8.16702 3.82062C8.17624 3.80327 8.18098 3.796 8.18077 3.79632C8.18047 3.79677 8.17806 3.80043 8.17339 3.80659C8.16878 3.81267 8.16086 3.82267 8.14941 3.83535C8.12901 3.85793 8.08314 3.90496 8.00864 3.95264L6.93048 2.26813C6.71408 2.40663 6.57987 2.59081 6.51 2.69699C6.42977 2.81892 6.36467 2.9478 6.31295 3.06145C6.20949 3.28882 6.11806 3.54866 6.04342 3.77305C6.0051 3.88827 5.96844 4.00269 5.93529 4.10615C5.90136 4.21203 5.87172 4.30447 5.84441 4.38597C5.81649 4.46929 5.79608 4.52579 5.78173 4.56141C5.75687 4.6231 5.77367 4.56339 5.83734 4.47785L7.44178 5.67191ZM8.00864 3.95264C7.89334 4.02644 7.73649 4.0798 7.55835 4.07349C7.39128 4.06757 7.26947 4.01161 7.20422 3.97274C7.14127 3.93525 7.10973 3.90148 7.10684 3.89841C7.10201 3.89329 7.10853 3.89953 7.12522 3.92359C7.16013 3.97389 7.20385 4.04984 7.25535 4.15101C7.31011 4.25858 7.3464 4.33881 7.39999 4.44919L9.19913 3.57564C9.14061 3.45511 8.97077 3.07508 8.7684 2.78343C8.67133 2.64353 8.49469 2.41349 8.22771 2.25447C8.08205 2.1677 7.87854 2.08357 7.62913 2.07474C7.36863 2.06552 7.12878 2.14121 6.93048 2.26813L8.00864 3.95264ZM7.39999 4.44919C7.36274 4.37248 7.34122 4.27014 7.34909 4.16593C7.35473 4.09135 7.37671 4.04122 7.35267 4.11202C7.34149 4.14496 7.27349 4.32619 7.25626 4.53488C7.2353 4.78882 7.28474 5.05524 7.42781 5.3098L9.1713 4.32988C9.23138 4.43677 9.26007 4.57116 9.24948 4.69944C9.24263 4.78248 9.21613 4.84441 9.24645 4.75515C9.26391 4.70374 9.32739 4.5285 9.3434 4.31663C9.36165 4.07512 9.31938 3.8233 9.19913 3.57564L7.39999 4.44919ZM7.42781 5.3098C7.55663 5.539 7.74735 5.79547 7.98675 6.00896C8.20679 6.20519 8.5954 6.47804 9.10833 6.48894L9.15079 4.48939C9.24866 4.49147 9.31073 4.51894 9.3286 4.52783C9.34625 4.53661 9.34138 4.53724 9.31787 4.51628C9.29577 4.49656 9.2682 4.46755 9.23937 4.4308C9.2107 4.39425 9.18734 4.35842 9.1713 4.32988L7.42781 5.3098ZM9.10833 6.48894C9.55919 6.49851 9.87193 6.26866 10.0275 6.12633C10.1753 5.99123 10.2952 5.82737 10.3402 5.76825C10.4164 5.66816 10.4164 5.67531 10.3915 5.69694C10.3524 5.73084 10.1608 5.87992 9.861 5.85023L10.0581 3.85997C9.59229 3.81383 9.2555 4.03484 9.08152 4.18564C8.92169 4.32417 8.79723 4.49322 8.74895 4.55664C8.66946 4.66103 8.66487 4.66229 8.6777 4.65055C8.69843 4.63159 8.86593 4.48334 9.15079 4.48939L9.10833 6.48894ZM9.861 5.85023C9.87563 5.85168 9.87151 5.85287 9.85587 5.84702C9.83815 5.8404 9.81592 5.82855 9.79565 5.81161C9.77559 5.79485 9.77128 5.78465 9.77752 5.79512C9.7848 5.80734 9.80477 5.84521 9.82655 5.92304L11.7526 5.3841C11.6296 4.9445 11.415 4.5584 11.078 4.27679C10.739 3.99363 10.3651 3.89037 10.0581 3.85997L9.861 5.85023ZM9.82655 5.92304C9.82508 5.91778 9.8299 5.93378 9.83357 5.97982C9.83712 6.02441 9.83856 6.08347 9.83659 6.1595C9.8325 6.31648 9.81574 6.49509 9.79447 6.70879C9.775 6.90449 9.74975 7.14683 9.74331 7.36542C9.73785 7.55038 9.73592 7.88697 9.8641 8.2001L11.715 7.44242C11.7602 7.55279 11.7375 7.59119 11.7424 7.42438C11.7464 7.29121 11.7626 7.1282 11.7846 6.90682C11.8049 6.70345 11.8296 6.45324 11.8359 6.21153C11.8419 5.98021 11.8346 5.6772 11.7526 5.3841L9.82655 5.92304ZM9.8641 8.2001C9.93564 8.37488 10.0464 8.58149 10.218 8.76197C10.3899 8.94267 10.6882 9.16041 11.1063 9.17548C11.5352 9.19093 11.8648 8.98567 12.0736 8.78069C12.2751 8.58298 12.4195 8.33691 12.5293 8.09629L10.7098 7.26603C10.6536 7.3892 10.632 7.39323 10.6727 7.35336C10.7207 7.30623 10.8947 7.16655 11.1783 7.17677C11.4512 7.18661 11.6146 7.32829 11.6672 7.38356C11.7195 7.4386 11.7265 7.4704 11.715 7.44242L9.8641 8.2001ZM12.5293 8.09629C12.7529 7.6062 12.9393 6.74722 13.0766 6.07397C13.2346 5.29942 13.342 4.69638 13.41 4.4618L11.4891 3.90482C11.3911 4.24273 11.2495 5.02482 11.117 5.67417C10.9638 6.42483 10.8182 7.02853 10.7098 7.26603L12.5293 8.09629ZM13.41 4.4618C13.4185 4.43258 13.4216 4.42344 13.4206 4.42658C13.4201 4.42784 13.4154 4.44163 13.4068 4.46226C13.4036 4.46986 13.3763 4.53761 13.3235 4.61716C13.3022 4.64919 13.2291 4.75802 13.0965 4.85844C13.0255 4.91224 12.9015 4.99117 12.7277 5.03298C12.5377 5.07867 12.3173 5.07192 12.1036 4.98114C11.9029 4.89584 11.774 4.76459 11.6999 4.66732C11.6269 4.5715 11.5864 4.4822 11.5648 4.42694C11.5231 4.32026 11.5101 4.23153 11.5057 4.19864C11.4959 4.12461 11.4975 4.06816 11.4977 4.05852C11.4981 4.0394 11.4991 4.0267 11.4993 4.02448C11.4993 4.02359 11.497 4.04657 11.4883 4.10945C11.4804 4.16573 11.4709 4.23012 11.46 4.30478C11.4418 4.42981 11.4131 4.62501 11.4048 4.76031C11.4028 4.79294 11.3989 4.86435 11.4048 4.94561C11.4074 4.97965 11.4151 5.07433 11.4507 5.18718C11.4686 5.2439 11.5071 5.35006 11.5876 5.46484C11.6699 5.58214 11.8337 5.75975 12.108 5.84623C12.3959 5.937 12.6538 5.88013 12.8234 5.80352C12.9776 5.73384 13.078 5.64151 13.1267 5.59218C13.2232 5.49447 13.2779 5.3985 13.2954 5.36738C13.3395 5.28911 13.369 5.21404 13.3835 5.17604L11.5156 4.4614C11.5094 4.47764 11.522 4.44059 11.5526 4.38622C11.562 4.36951 11.5771 4.34411 11.5979 4.3141C11.6173 4.28614 11.6522 4.23902 11.7036 4.18693C11.7498 4.14018 11.8479 4.04961 11.9999 3.98091C12.1673 3.90527 12.4233 3.84859 12.7094 3.93879C12.9819 4.02471 13.1441 4.20101 13.225 4.31627C13.3041 4.42902 13.3413 4.53243 13.3581 4.58572C13.3915 4.69169 13.3978 4.77675 13.3994 4.79868C13.4019 4.83236 13.4017 4.85692 13.4016 4.86607C13.4014 4.87701 13.401 4.88342 13.401 4.88365C13.4009 4.88433 13.401 4.88228 13.4015 4.87695C13.402 4.87177 13.4027 4.86473 13.4037 4.85564C13.4057 4.83719 13.4084 4.81406 13.4121 4.78611C13.4194 4.72966 13.4288 4.66423 13.4391 4.59331C13.449 4.52565 13.4602 4.44987 13.4692 4.38492C13.4773 4.32656 13.488 4.24723 13.4932 4.17971C13.4947 4.16083 13.4965 4.1337 13.4972 4.10265C13.4977 4.08107 13.499 4.01517 13.4882 3.93445C13.4834 3.89822 13.4698 3.80683 13.4273 3.69821C13.4053 3.64199 13.3644 3.5519 13.291 3.45547C13.2164 3.3576 13.087 3.22593 12.8858 3.14041C12.6715 3.04939 12.4505 3.0426 12.2599 3.08845C12.0855 3.1304 11.9609 3.20968 11.8891 3.26401C11.815 3.32011 11.763 3.37575 11.7316 3.41252C11.6986 3.45111 11.674 3.4858 11.6573 3.51093C11.6009 3.59585 11.5693 3.67225 11.5611 3.69204C11.5474 3.72486 11.5368 3.75437 11.5296 3.77516C11.5151 3.81736 11.5014 3.86248 11.4891 3.90482L13.41 4.4618ZM13.3835 5.17604C13.4519 4.99738 13.5184 4.73378 13.5737 4.50868C13.6392 4.24215 13.6984 3.98704 13.7726 3.68957C13.8437 3.40425 13.9155 3.13473 13.9863 2.91185C14.0215 2.80081 14.0535 2.71102 14.0814 2.64243C14.1117 2.56816 14.1265 2.54553 14.1212 2.55388L12.438 1.47371C12.2772 1.72426 12.1617 2.04943 12.08 2.30676C11.99 2.59051 11.9061 2.90853 11.832 3.20553C11.761 3.49039 11.6853 3.81239 11.6315 4.03162C11.6023 4.15025 11.577 4.24988 11.555 4.3299C11.5441 4.3696 11.5349 4.40113 11.5274 4.42542C11.5195 4.45091 11.5156 4.46146 11.5156 4.4614L13.3835 5.17604ZM14.1212 2.55388C14.1095 2.57206 14.0449 2.66907 13.9013 2.75141C13.7351 2.84675 13.5385 2.87887 13.3545 2.84684C13.1968 2.8194 13.098 2.75387 13.0684 2.73307C13.0361 2.71026 13.0255 2.69679 13.0439 2.7155C13.065 2.73703 13.0787 2.7528 13.1263 2.80439C13.1587 2.83956 13.2289 2.91586 13.3127 2.98637C13.357 3.02365 13.4238 3.0755 13.5099 3.12389C13.5943 3.1713 13.7287 3.23332 13.9032 3.25738C14.0914 3.28334 14.3041 3.26135 14.5092 3.16294C14.705 3.06894 14.8358 2.93331 14.9177 2.821L13.3014 1.64294C13.3626 1.55909 13.4713 1.44262 13.6439 1.35979C13.8257 1.27254 14.0139 1.25372 14.1765 1.27614C14.3253 1.29667 14.433 1.34846 14.4896 1.38025C14.5479 1.41301 14.5859 1.44386 14.6004 1.45604C14.6245 1.47635 14.6312 1.48611 14.5968 1.44883C14.5776 1.42796 14.5212 1.36536 14.4698 1.31306C14.4155 1.25793 14.3297 1.17514 14.2202 1.09798C14.1135 1.02283 13.9355 0.917904 13.6974 0.876467C13.433 0.830443 13.1548 0.873966 12.9062 1.01654C12.6803 1.14612 12.5326 1.32619 12.438 1.47371L14.1212 2.55388ZM14.9177 2.821C15.0733 2.60745 15.1211 2.38709 15.1395 2.26365C15.1596 2.12857 15.1593 2.00269 15.1554 1.9086C15.1476 1.72486 15.1181 1.5266 15.0993 1.39663C15.0761 1.23658 15.0644 1.14955 15.0619 1.09194C15.0607 1.06484 15.0641 1.08724 15.056 1.13759C15.0505 1.17188 15.021 1.35061 14.8646 1.53076L13.3545 0.219415C13.1566 0.447352 13.1011 0.697219 13.0814 0.820274C13.059 0.9594 13.0598 1.08822 13.0638 1.1795C13.0717 1.35864 13.1015 1.55618 13.1199 1.68299C13.1426 1.83987 13.1545 1.93076 13.1571 1.99291C13.1584 2.02177 13.1555 2.00803 13.1614 1.96858C13.1655 1.94078 13.1873 1.79955 13.3014 1.64294L14.9177 2.821ZM14.8646 1.53076C14.7744 1.63458 14.6433 1.73107 14.4755 1.78312C14.3149 1.83292 14.1758 1.82508 14.0867 1.80915C14.0015 1.79393 13.9454 1.76865 13.9271 1.75989C13.9067 1.75015 13.9008 1.74526 13.9133 1.75348C13.9437 1.77346 13.9876 1.80676 14.0744 1.87515C14.1477 1.9328 14.2566 2.01951 14.3698 2.09802L15.5093 0.454329C15.4565 0.417762 15.3995 0.372904 15.3119 0.303914C15.2379 0.245656 15.1261 0.157226 15.0113 0.0817999C14.9128 0.0171533 14.7055 -0.111946 14.4385 -0.159655C14.0927 -0.221457 13.6644 -0.137447 13.3545 0.219415L14.8646 1.53076ZM14.3698 2.09802C14.4944 2.18438 14.6144 2.25217 14.6913 2.29595C14.7805 2.34669 14.8151 2.36718 14.8415 2.3858C14.8597 2.39856 14.8527 2.39615 14.8402 2.38068C14.8264 2.36373 14.8252 2.35504 14.8309 2.37061L16.7082 1.68102C16.5426 1.23019 16.2716 0.946476 15.9921 0.749863C15.8733 0.666326 15.7523 0.598531 15.6806 0.557741C15.5967 0.510002 15.5507 0.483039 15.5093 0.454329L14.3698 2.09802ZM14.8309 2.37061C14.8063 2.30364 14.835 2.26719 14.7827 2.58698C14.7455 2.81402 14.652 3.30519 14.814 3.83046L16.7252 3.24109C16.7211 3.22807 16.7106 3.19022 16.7564 2.90983C16.7871 2.7222 16.8988 2.19991 16.7082 1.68102L14.8309 2.37061ZM14.814 3.83046C14.9654 4.32167 15.2172 4.59859 15.4016 4.79037C15.5508 4.94546 15.6256 5.01774 15.719 5.19125L17.4801 4.24337C17.2415 3.80003 16.9843 3.5507 16.843 3.40381C16.737 3.2936 16.7397 3.28819 16.7252 3.24109L14.814 3.83046ZM15.719 5.19125C15.8455 5.42636 15.9848 5.79779 16.1412 6.21237C16.2118 6.39958 16.2889 6.60261 16.3616 6.76739C16.3975 6.84892 16.4431 6.94594 16.4968 7.03769C16.5243 7.08458 16.6475 7.30407 16.8839 7.45797L17.9752 5.782C18.0935 5.85901 18.1606 5.9416 18.181 5.96746C18.2077 6.00115 18.2214 6.02486 18.2229 6.0273C18.2253 6.03153 18.2152 6.01399 18.1915 5.96027C18.1448 5.85454 18.0871 5.70432 18.0125 5.50648C17.8783 5.15096 17.6856 4.6251 17.4801 4.24337L15.719 5.19125ZM16.8839 7.45797C17.0193 7.54613 17.436 7.75933 17.913 7.51361C18.3051 7.31165 18.4107 6.94954 18.4319 6.87515C18.4897 6.67289 18.4773 6.47774 18.4751 6.4317C18.4675 6.27463 18.4392 6.06597 18.4217 5.92695C18.4003 5.75609 18.3856 5.62505 18.3822 5.53148C18.3805 5.48368 18.3835 5.48196 18.3798 5.50907C18.3779 5.52381 18.3714 5.56702 18.3515 5.62599C18.333 5.68067 18.2885 5.79282 18.1874 5.9102L16.6717 4.60538C16.4513 4.86135 16.4098 5.15212 16.3976 5.24317C16.3797 5.37663 16.38 5.50551 16.3835 5.60289C16.3905 5.79971 16.4174 6.01743 16.4374 6.17653C16.4614 6.36746 16.4746 6.46995 16.4774 6.52803C16.4804 6.58956 16.4654 6.47798 16.5089 6.32565C16.523 6.27621 16.6186 5.93066 16.9972 5.73563C17.4607 5.49684 17.8606 5.70735 17.9752 5.782L16.8839 7.45797ZM18.1874 5.9102C18.0687 6.04816 17.8829 6.17093 17.6467 6.20614C17.4379 6.23728 17.2803 6.18604 17.2148 6.16011C17.1781 6.14562 17.152 6.13176 17.1379 6.12382C17.1234 6.11567 17.1152 6.1101 17.1146 6.10966C17.1137 6.10908 17.1168 6.11113 17.1249 6.11727C17.1329 6.12336 17.1434 6.13156 17.1579 6.1431C17.1989 6.17595 17.3269 6.28313 17.4473 6.36573C17.568 6.44859 17.7908 6.58741 18.0821 6.63994L18.4371 4.6717C18.5623 4.69429 18.6191 4.74429 18.579 4.71677C18.5386 4.689 18.5109 4.66426 18.4068 4.58098C18.3511 4.5365 18.1714 4.38772 17.9504 4.30032C17.8252 4.25079 17.6118 4.18924 17.3518 4.22801C17.0644 4.27086 16.832 4.41921 16.6717 4.60538L18.1874 5.9102ZM18.0821 6.63994C18.322 6.68321 18.5341 6.66227 18.6895 6.63325C18.8388 6.60537 18.973 6.56189 19.0379 6.54141C19.0783 6.52866 19.0961 6.52311 19.11 6.51926C19.1234 6.51552 19.1104 6.51991 19.0821 6.52407C19.0427 6.52988 18.7976 6.56299 18.5381 6.39137L19.6411 4.72303C19.2985 4.49654 18.9497 4.52202 18.7909 4.54539C18.6353 4.56829 18.484 4.61897 18.4357 4.63421C18.2485 4.69332 18.3204 4.65065 18.4371 4.6717L18.0821 6.63994ZM18.5381 6.39137C18.4758 6.35019 18.3389 6.24688 18.2401 6.05361C18.1894 5.95454 18.1575 5.84838 18.1444 5.74096C18.1316 5.63631 18.1385 5.54621 18.1498 5.47834C18.1608 5.41228 18.1768 5.36187 18.1869 5.33335C18.197 5.30485 18.2057 5.28546 18.2073 5.28206C18.2083 5.27965 18.209 5.2783 18.2021 5.29274C18.197 5.30345 18.1873 5.32382 18.1768 5.34729C18.1302 5.45134 18.062 5.62772 18.0454 5.86087C18.0288 6.09402 18.0675 6.32678 18.1531 6.55529L20.026 5.85385C20.0286 5.86073 20.0466 5.91549 20.0403 6.00284C20.0341 6.09021 20.0074 6.15303 20.0023 6.16436C20.0022 6.16464 20.0028 6.16314 20.0076 6.15309C20.0106 6.14679 20.0207 6.12581 20.0302 6.10472C20.0447 6.07273 20.0976 5.95708 20.1227 5.8063C20.1526 5.62643 20.1452 5.38636 20.0208 5.14308C19.9077 4.92191 19.7449 4.79165 19.6411 4.72303L18.5381 6.39137ZM18.1531 6.55529C18.1901 6.65408 18.3761 7.229 18.5197 7.57255C18.5997 7.76384 18.7149 8.0125 18.8697 8.22142C18.9462 8.32468 19.0738 8.47581 19.2629 8.59477C19.4702 8.72515 19.7915 8.83734 20.1648 8.74291L19.6743 6.80399C19.9646 6.73056 20.203 6.82331 20.3279 6.90189C20.3859 6.93838 20.4239 6.97352 20.4437 6.99347C20.4642 7.01405 20.4748 7.02826 20.4766 7.03074C20.4788 7.03373 20.4668 7.01741 20.443 6.97128C20.4204 6.92761 20.3942 6.87093 20.3649 6.80089C20.3056 6.65923 20.2469 6.49495 20.1888 6.3249C20.1369 6.17334 20.0742 5.9825 20.026 5.85385L18.1531 6.55529ZM20.1648 8.74291C20.5515 8.64509 20.7669 8.37619 20.8528 8.25499C20.9541 8.11209 21.023 7.96117 21.069 7.84807C21.1618 7.61987 21.2385 7.34703 21.298 7.13334C21.3649 6.89278 21.4168 6.70081 21.4714 6.54347C21.4978 6.46732 21.5164 6.42432 21.5261 6.40504C21.5416 6.37409 21.5183 6.43398 21.4366 6.51124L20.0625 5.05807C19.8978 5.21382 19.7967 5.39209 19.7383 5.50856C19.674 5.6367 19.6227 5.77015 19.5816 5.88861C19.5013 6.12048 19.4287 6.39034 19.3712 6.59723C19.3061 6.83101 19.2584 6.99125 19.2163 7.09477C19.1948 7.14753 19.1937 7.13712 19.2211 7.09853C19.233 7.08163 19.3706 6.88081 19.6743 6.80399L20.1648 8.74291ZM21.4366 6.51124C21.3623 6.58151 21.229 6.67198 21.0388 6.70382C20.8513 6.73521 20.6977 6.69466 20.6052 6.65538C20.5205 6.61942 20.4739 6.57964 20.4684 6.57499C20.4603 6.56816 20.4652 6.57131 20.4878 6.59611C20.5124 6.62304 20.5329 6.6474 20.575 6.69617C20.6078 6.73406 20.6648 6.79986 20.729 6.8623C20.7792 6.91116 20.9141 7.04 21.1135 7.12608C21.2243 7.17395 21.39 7.22406 21.5928 7.21467C21.8085 7.20469 22.0089 7.12968 22.1732 7.00842L20.9859 5.39901C21.1295 5.29306 21.3078 5.22572 21.5003 5.21681C21.6798 5.2085 21.821 5.25309 21.9062 5.2899C21.9904 5.32626 22.0475 5.36673 22.0742 5.38699C22.1029 5.40877 22.1202 5.42546 22.1241 5.4292C22.1286 5.43357 22.1221 5.42751 22.088 5.38815C22.0634 5.35966 22.0139 5.30137 21.9658 5.24865C21.9158 5.19379 21.8455 5.12027 21.7602 5.04816C21.6776 4.97822 21.5519 4.88453 21.3868 4.81443C21.2139 4.74101 20.9785 4.68609 20.7086 4.73127C20.4361 4.77689 20.2198 4.90931 20.0625 5.05807L21.4366 6.51124ZM22.1732 7.00842C22.5362 6.74063 22.5954 6.34698 22.6075 6.27233C22.6305 6.1308 22.6291 5.99749 22.6254 5.90846C22.6177 5.72355 22.5891 5.52255 22.5687 5.38552C22.5565 5.30349 22.5485 5.25302 22.5401 5.1949C22.5316 5.1363 22.5301 5.11891 22.5304 5.12265C22.5306 5.12593 22.5313 5.13581 22.5315 5.15044C22.5318 5.16359 22.5319 5.19162 22.5289 5.22873C22.5265 5.259 22.5191 5.33589 22.4895 5.43135C22.4683 5.49968 22.3857 5.75012 22.1233 5.93916C21.7763 6.18911 21.3922 6.14905 21.1538 6.04771C20.9661 5.96786 20.8551 5.85116 20.8229 5.81671C20.7777 5.76828 20.7489 5.7269 20.7368 5.709C20.7226 5.6881 20.7137 5.67265 20.7103 5.66667L22.4488 4.67797C22.4308 4.64635 22.3754 4.54892 22.2851 4.45219C22.2463 4.41054 22.1294 4.28923 21.9365 4.20722C21.6931 4.10371 21.3046 4.06394 20.9542 4.31645C20.6882 4.50807 20.6027 4.76337 20.5793 4.83868C20.5476 4.94113 20.5387 5.02713 20.5354 5.0685C20.5284 5.15525 20.533 5.22962 20.5354 5.26357C20.5442 5.38806 20.5757 5.58095 20.5904 5.67974C20.6116 5.82174 20.6244 5.92566 20.6271 5.99123C20.6286 6.02744 20.6246 6.00575 20.6333 5.95219C20.6378 5.92444 20.6507 5.85583 20.6882 5.76953C20.7245 5.68628 20.8085 5.5299 20.9859 5.39901L22.1732 7.00842ZM20.7103 5.66667C20.7072 5.66124 20.735 5.71585 20.7944 5.87688C20.8472 6.02009 20.9099 6.20506 20.9808 6.42434C21.1226 6.86305 21.2854 7.40225 21.4526 7.95349L23.3665 7.37288C23.2017 6.82974 23.0326 6.26945 22.8839 5.8093C22.7505 5.39664 22.594 4.93332 22.4488 4.67797L20.7103 5.66667ZM21.4526 7.95349C21.6128 8.48154 21.7746 9.08572 21.9204 9.6341C22.0602 10.1598 22.1952 10.6731 22.2907 10.96L24.1884 10.3284C24.1179 10.1166 24.0039 9.6866 23.8532 9.12004C23.7086 8.57618 23.5383 7.9392 23.3665 7.37288L21.4526 7.95349ZM22.2907 10.96C22.3084 11.0131 22.3133 11.0319 22.3122 11.0276C22.3116 11.0255 22.3098 11.0185 22.3075 11.0078C22.3056 10.999 22.301 10.9769 22.2967 10.9468C22.2953 10.9366 22.2807 10.8436 22.2915 10.7243C22.295 10.6856 22.3107 10.4915 22.4389 10.2863C22.5133 10.1672 22.6497 10.0066 22.8756 9.90475C23.111 9.79857 23.3433 9.8013 23.5214 9.84441C23.8134 9.91505 23.9803 10.0956 24.0081 10.1247C24.065 10.1842 24.1015 10.2376 24.1174 10.2616C24.1515 10.313 24.1722 10.3553 24.1787 10.3685C24.1948 10.4017 24.2035 10.4249 24.2045 10.4276C24.2087 10.4387 24.2074 10.4366 24.2036 10.4228C24.2002 10.4105 24.1968 10.396 24.1943 10.3822C24.1916 10.3676 24.1913 10.3613 24.1915 10.3636C24.1915 10.3637 24.1932 10.3897 24.1861 10.4341C24.1794 10.4759 24.159 10.5708 24.0911 10.6811L22.388 9.63249C22.1836 9.96455 22.1859 10.3134 22.1943 10.4701C22.2045 10.662 22.2429 10.8359 22.2755 10.9545C22.2925 11.0159 22.3119 11.0771 22.333 11.1328C22.3424 11.1579 22.3585 11.1989 22.3807 11.2444C22.3901 11.2638 22.4135 11.3109 22.4498 11.3656C22.4668 11.3913 22.5043 11.446 22.5621 11.5064C22.5908 11.5364 22.7585 11.7175 23.0511 11.7883C23.2295 11.8315 23.4621 11.8342 23.6978 11.7279C23.924 11.6259 24.0606 11.4652 24.1352 11.3457C24.2638 11.1398 24.2797 10.9447 24.2834 10.9045C24.2944 10.7824 24.2796 10.6848 24.2772 10.6683C24.2683 10.6047 24.2547 10.551 24.2486 10.5274C24.2333 10.4679 24.2122 10.4 24.1884 10.3284L22.2907 10.96ZM24.0911 10.6811C24.0907 10.6817 24.0934 10.6772 24.101 10.6674C24.1086 10.6576 24.1199 10.6439 24.1362 10.6257C24.1703 10.5878 24.2162 10.5416 24.2819 10.4791C24.3958 10.3707 24.6045 10.1826 24.7904 9.98932L23.3488 8.60304C23.2026 8.75501 23.0794 8.86246 22.9028 9.03062C22.7551 9.17118 22.5452 9.37715 22.388 9.63249L24.0911 10.6811ZM24.7904 9.98932C25.1176 9.64903 25.4571 9.2976 25.6285 9.11511L24.1706 7.74596C24.01 7.91699 23.6855 8.25283 23.3488 8.60304L24.7904 9.98932ZM25.6285 9.11511C25.8568 8.87199 25.9887 8.53046 25.9361 8.16397C25.8917 7.85463 25.7122 7.54657 25.4046 7.36657C25.2589 7.28126 24.9341 7.14416 24.5433 7.27942C24.0904 7.43619 23.9151 7.82316 23.8698 8.06572C23.8287 8.28626 23.8668 8.47055 23.8922 8.56632C23.9215 8.67687 23.9633 8.77523 24.0037 8.85664L25.7955 7.96816C25.7958 7.96874 25.7992 7.97574 25.8043 7.98857C25.8092 8.00106 25.8172 8.02305 25.8253 8.0533C25.8364 8.09532 25.8719 8.23983 25.8359 8.43257C25.7958 8.64732 25.6335 9.01847 25.1975 9.1694C24.8236 9.29883 24.5195 9.16588 24.3945 9.09271C24.1284 8.93699 23.9904 8.6852 23.9564 8.44813C23.9142 8.15393 24.0253 7.9007 24.1706 7.74596L25.6285 9.11511ZM24.0037 8.85664C24.0795 9.00951 24.1702 9.23565 24.3418 9.61361C24.4882 9.9361 24.6838 10.3438 24.9017 10.6653L26.5575 9.54353C26.4433 9.375 26.3069 9.10407 26.1628 8.78676C26.044 8.52491 25.8857 8.15007 25.7955 7.96816L24.0037 8.85664ZM24.9017 10.6653C25.1394 11.0162 25.3873 11.2453 25.6051 11.4094C25.7055 11.4851 25.8006 11.5472 25.8508 11.5808C25.9177 11.6255 25.9086 11.6223 25.8868 11.6025L27.2323 10.1228C27.1275 10.0275 27.0147 9.95306 26.9622 9.91802C26.8932 9.87186 26.8534 9.84576 26.8085 9.812C26.7359 9.75724 26.6517 9.68267 26.5575 9.54353L24.9017 10.6653ZM25.8868 11.6025C25.9187 11.6315 25.9784 11.6834 26.0589 11.7332C26.0999 11.7586 26.1663 11.7959 26.2531 11.8274C26.3347 11.857 26.4842 11.8998 26.6741 11.8857C26.7735 11.8784 26.8858 11.8552 27.001 11.8052C27.1177 11.7546 27.2223 11.6829 27.3105 11.5951C27.4843 11.4219 27.5531 11.229 27.5811 11.108C27.6093 10.9866 27.6092 10.8852 27.6062 10.8257C27.6031 10.762 27.5945 10.7092 27.5874 10.6729C27.5734 10.6018 27.5546 10.5443 27.5424 10.5098C27.529 10.4719 27.5151 10.4385 27.5032 10.4115C27.4796 10.3582 27.4535 10.3075 27.4279 10.2628C27.4067 10.2256 27.3666 10.1585 27.3111 10.0891C27.2953 10.0693 27.2721 10.0417 27.2424 10.0111C27.216 9.98391 27.1646 9.93344 27.091 9.88221C27.053 9.85576 26.9965 9.82014 26.9232 9.7876C26.8517 9.75584 26.7403 9.71631 26.5986 9.70449C26.4497 9.69206 26.2668 9.71086 26.0818 9.79949C25.8967 9.88823 25.7668 10.0196 25.6826 10.1449C25.6026 10.264 25.5639 10.3768 25.5441 10.4533C25.5238 10.5316 25.5165 10.5987 25.5136 10.6452C25.508 10.7352 25.5157 10.8075 25.5206 10.8452C25.5308 10.9229 25.548 10.9863 25.557 11.0181C25.5772 11.0889 25.6037 11.1607 25.6286 11.2242L27.4906 10.4941C27.4739 10.4517 27.4745 10.4491 27.4804 10.4697C27.4823 10.4765 27.4952 10.521 27.5037 10.5851C27.5077 10.6161 27.5151 10.6829 27.5098 10.7687C27.507 10.813 27.5 10.8783 27.4801 10.9551C27.4607 11.03 27.4224 11.1415 27.3431 11.2597C27.2596 11.3841 27.1305 11.5147 26.9462 11.6031C26.7622 11.6913 26.5802 11.7099 26.4324 11.6976C26.2918 11.6858 26.1817 11.6466 26.1115 11.6155C26.0395 11.5835 25.9843 11.5487 25.9479 11.5233C25.8773 11.4742 25.8292 11.4267 25.8065 11.4033C25.7805 11.3764 25.7613 11.3534 25.7497 11.3389C25.711 11.2906 25.6917 11.2555 25.6912 11.2547C25.6864 11.2463 25.681 11.2361 25.6743 11.221C25.6708 11.2131 25.6644 11.198 25.657 11.1771C25.6508 11.1596 25.6365 11.1175 25.6251 11.0596C25.6193 11.0298 25.6116 10.9831 25.6087 10.9247C25.606 10.8705 25.6056 10.7737 25.6328 10.6562C25.66 10.5391 25.7272 10.3492 25.8989 10.1782C25.986 10.0915 26.0894 10.0206 26.2046 9.9706C26.3184 9.9212 26.4291 9.8984 26.5267 9.89119C26.7131 9.87742 26.8583 9.91945 26.9348 9.9472C27.0165 9.97683 27.077 10.0112 27.1113 10.0325C27.1784 10.074 27.2212 10.1126 27.2323 10.1228L25.8868 11.6025ZM25.6286 11.2242C25.7473 11.5271 26.1399 12.7288 26.4983 13.4331L28.2808 12.5261C27.9752 11.9255 27.7038 11.038 27.4906 10.4941L25.6286 11.2242ZM26.4983 13.4331C26.7125 13.854 26.9322 14.1329 27.1133 14.3404C27.2292 14.4732 27.2373 14.477 27.3049 14.5565C27.3454 14.6041 27.3495 14.6146 27.3449 14.6063L29.0942 13.6367C29.0066 13.4787 28.907 13.3531 28.8282 13.2605C28.7765 13.1997 28.6497 13.0591 28.6203 13.0255C28.5109 12.9001 28.3987 12.7577 28.2808 12.5261L26.4983 13.4331ZM27.3449 14.6063C27.3333 14.5854 27.2404 14.4145 27.2751 14.1553C27.3143 13.8619 27.4845 13.687 27.5472 13.6301C27.56 13.6185 27.5697 13.6106 27.5661 13.6136C27.5612 13.6176 27.5686 13.6115 27.5625 13.6165C27.5608 13.618 27.5581 13.6202 27.555 13.6228C27.5492 13.6277 27.539 13.6362 27.527 13.6469C27.5063 13.6652 27.4592 13.7079 27.4088 13.7689C27.3582 13.83 27.2802 13.9381 27.2273 14.0919C27.1698 14.2589 27.1535 14.4475 27.1943 14.6383C27.2326 14.8175 27.3112 14.9513 27.3752 15.0377C27.4889 15.1912 27.6212 15.2801 27.6676 15.3108L28.7716 13.6431C28.7834 13.651 28.8092 13.6687 28.8414 13.696C28.8718 13.7218 28.9263 13.7717 28.9822 13.8472C29.0391 13.9239 29.1134 14.0489 29.15 14.2198C29.1685 14.306 29.1757 14.3968 29.1695 14.4897C29.1633 14.5823 29.1444 14.6672 29.1185 14.7425C29.0682 14.8887 28.9946 14.9895 28.9501 15.0434C28.9057 15.0971 28.866 15.1326 28.8537 15.1435C28.8421 15.1538 28.8299 15.1637 28.8424 15.1534C28.8487 15.1482 28.8688 15.1316 28.892 15.1105C28.9392 15.0677 29.0206 14.9877 29.0951 14.8692C29.1737 14.7444 29.2343 14.5933 29.2574 14.4205C29.3025 14.0838 29.1888 13.8073 29.0942 13.6367L27.3449 14.6063ZM27.6676 15.3108C27.996 15.5283 28.3321 15.5094 28.4377 15.5025C28.5007 15.4984 28.5636 15.4904 28.5866 15.4876C28.6203 15.4836 28.629 15.4829 28.6328 15.4826C28.6352 15.4825 28.5768 15.4868 28.4962 15.4608C28.4073 15.4321 28.3496 15.386 28.3255 15.3607L29.7736 13.9812C29.5835 13.7817 29.3598 13.6379 29.1101 13.5574C28.8687 13.4795 28.6547 13.4777 28.5118 13.4863C28.443 13.4905 28.3817 13.4979 28.3486 13.5019C28.3048 13.5071 28.3041 13.507 28.3075 13.5068C28.3128 13.5064 28.3662 13.5026 28.4423 13.5144C28.5254 13.5272 28.6464 13.5603 28.7716 13.6431L27.6676 15.3108ZM28.3255 15.3607C28.2743 15.3069 28.298 15.3128 28.381 15.5009C28.4491 15.6553 28.5153 15.8321 28.5937 16.0355C28.6583 16.2032 28.7527 16.4486 28.8561 16.6314C28.8855 16.6832 28.9276 16.7522 28.9834 16.8232C29.0318 16.8849 29.1342 17.0053 29.2978 17.1028C29.4809 17.2119 29.7958 17.3191 30.1584 17.2C30.4835 17.0933 30.656 16.8644 30.7285 16.7481L29.0307 15.691C29.0823 15.608 29.2328 15.3989 29.5347 15.2998C29.874 15.1884 30.1645 15.291 30.3219 15.3849C30.4599 15.4671 30.5355 15.5615 30.5562 15.5878C30.5713 15.6071 30.5816 15.6223 30.5872 15.6309C30.593 15.6399 30.5962 15.6455 30.5969 15.6467C30.5978 15.6483 30.5939 15.6414 30.585 15.6226C30.5765 15.6045 30.5658 15.5805 30.5527 15.5495C30.526 15.4862 30.4958 15.4095 30.4599 15.3163C30.393 15.1428 30.3037 14.9043 30.211 14.694C30.1331 14.5174 29.9909 14.2093 29.7736 13.9812L28.3255 15.3607ZM30.7285 16.7481C30.8345 16.5778 30.8712 16.4115 30.8851 16.3431C30.9032 16.2539 30.9123 16.168 30.9176 16.098C30.9282 15.957 30.9289 15.7998 30.9261 15.6507C30.9204 15.3496 30.8981 14.9834 30.8777 14.6512C30.8564 14.3047 30.8373 13.9965 30.8327 13.7682C30.8303 13.6503 30.8327 13.5884 30.8346 13.5675C30.8359 13.5527 30.834 13.5925 30.8154 13.6573C30.8062 13.6897 30.7832 13.7627 30.7336 13.8495C30.6883 13.9289 30.5767 14.0973 30.3566 14.2168L29.4025 12.459C29.172 12.5841 29.0511 12.7629 28.9972 12.8571C28.9391 12.9588 28.9086 13.0511 28.8926 13.107C28.8606 13.2189 28.8486 13.3224 28.8428 13.3858C28.8305 13.5213 28.8303 13.6735 28.8331 13.8091C28.8388 14.088 28.8612 14.4445 28.8814 14.7738C28.9025 15.1175 28.9217 15.4382 28.9264 15.6883C28.9288 15.8147 28.9269 15.8993 28.9232 15.9478C28.9214 15.9725 28.9204 15.9682 28.9251 15.9454C28.9255 15.9433 28.9454 15.8279 29.0307 15.691L30.7285 16.7481ZM30.3566 14.2168C29.9561 14.4342 29.5651 14.3117 29.3576 14.1733C29.1984 14.0671 29.1212 13.9443 29.1091 13.9255C29.0725 13.8688 29.0697 13.8452 29.0955 13.9144C29.1384 14.0296 29.1952 14.2205 29.2695 14.4851C29.4028 14.96 29.5897 15.6719 29.7838 16.1471L31.6353 15.391C31.4974 15.0532 31.3523 14.5044 31.1951 13.9445C31.1241 13.6917 31.0461 13.4216 30.9697 13.2164C30.9358 13.1254 30.8773 12.9769 30.7894 12.8408C30.7517 12.7823 30.65 12.6313 30.4676 12.5096C30.2368 12.3556 29.8238 12.2303 29.4025 12.459L30.3566 14.2168ZM29.7838 16.1471C30.1454 17.0326 30.3479 17.331 30.6705 17.8977L32.4086 16.9083C32.0672 16.3084 31.9377 16.1315 31.6353 15.391L29.7838 16.1471ZM30.6705 17.8977C30.8769 18.2603 31.09 18.5251 31.2216 18.6977C31.3593 18.8782 31.402 18.9506 31.4294 19.0264L33.3097 18.3447C33.1712 17.9627 32.9649 17.6854 32.812 17.485C32.6531 17.2766 32.5343 17.129 32.4086 16.9083L30.6705 17.8977ZM31.4294 19.0264C31.4054 18.96 31.4334 18.9464 31.3927 19.1327C31.3866 19.1604 31.3391 19.3517 31.3265 19.4979C31.3202 19.5717 31.3051 19.7818 31.3956 20.0167C31.5172 20.332 31.7876 20.585 32.1464 20.6672L32.5928 18.7176C32.7234 18.7475 32.8718 18.8118 33.006 18.9303C33.139 19.0478 33.2177 19.1828 33.2618 19.2973C33.3381 19.4952 33.3204 19.6556 33.3192 19.669C33.3163 19.7031 33.3119 19.7173 33.3187 19.6848C33.3278 19.6421 33.3299 19.6357 33.3465 19.5601C33.3703 19.4513 33.406 19.2765 33.4152 19.0766C33.4245 18.8734 33.4082 18.6166 33.3097 18.3447L31.4294 19.0264ZM32.1464 20.6672C32.4605 20.7391 32.721 20.6498 32.8731 20.5688C33.017 20.492 33.1143 20.3979 33.1649 20.3445C33.266 20.238 33.3385 20.1229 33.3748 20.0637C33.4177 19.9938 33.4599 19.918 33.4913 19.8616C33.5266 19.7981 33.5544 19.7481 33.5823 19.7011C33.6102 19.6542 33.6285 19.6267 33.6391 19.6124C33.653 19.5937 33.6367 19.6203 33.5882 19.6601C33.5445 19.6961 33.3996 19.8048 33.1651 19.826C32.8925 19.8505 32.6738 19.7428 32.5462 19.6327L33.8529 18.1186C33.6423 17.9368 33.3406 17.8021 32.9856 17.834C32.6689 17.8626 32.4422 18.0132 32.3181 18.1153C32.0878 18.3046 31.9335 18.5605 31.8623 18.6805C31.8176 18.7559 31.7754 18.8321 31.7439 18.8887C31.7085 18.9522 31.6871 18.9901 31.6704 19.0173C31.647 19.0553 31.6638 19.0209 31.7136 18.9684C31.7386 18.942 31.8114 18.8683 31.9321 18.8039C32.0609 18.7352 32.2993 18.6504 32.5928 18.7176L32.1464 20.6672ZM32.5462 19.6327C32.4464 19.5465 32.4181 19.4753 32.4413 19.5188C32.4547 19.5439 32.4784 19.5952 32.5107 19.6806C32.5753 19.8511 32.6435 20.0746 32.7154 20.3257C32.7814 20.5563 32.8574 20.8359 32.92 21.0412C32.9521 21.1463 32.9893 21.2616 33.0301 21.3646C33.0504 21.4158 33.0785 21.4818 33.115 21.55C33.1418 21.6 33.2164 21.7359 33.3527 21.8612L34.7064 20.389C34.822 20.4952 34.8745 20.5991 34.878 20.6056C34.8913 20.6304 34.8949 20.6416 34.8896 20.6281C34.8792 20.6018 34.8607 20.5484 34.8331 20.4579C34.7763 20.2718 34.7175 20.0523 34.6382 19.7754C34.5649 19.5191 34.4775 19.2267 34.3812 18.9725C34.3331 18.8454 34.2751 18.7071 34.2061 18.5778C34.147 18.4669 34.0357 18.2764 33.8529 18.1186L32.5462 19.6327ZM33.3527 21.8612C33.3868 21.8925 33.5355 22.0315 33.772 22.1014C33.9106 22.1423 34.1234 22.1721 34.3637 22.0965C34.6127 22.0183 34.7839 21.8609 34.8874 21.7141C35.0563 21.4749 35.0707 21.2318 35.074 21.1892C35.0805 21.1049 35.0764 21.0331 35.0735 20.995C35.0651 20.8808 35.0309 20.6746 35.0196 20.5952C34.981 20.3242 34.963 20.0599 35.0083 19.844L33.0508 19.4336C32.9301 20.0093 32.9951 20.5645 33.0395 20.8769C33.0506 20.9544 33.063 21.0335 33.0698 21.0792C33.0789 21.1396 33.0796 21.1502 33.079 21.1421C33.0787 21.1392 33.0752 21.0969 33.0799 21.0357C33.0814 21.0162 33.0917 20.79 33.2534 20.5609C33.3534 20.4192 33.5202 20.2652 33.7641 20.1885C33.9994 20.1146 34.2063 20.1442 34.3382 20.1831C34.5612 20.249 34.6931 20.3767 34.7064 20.389L33.3527 21.8612ZM35.0083 19.844C35.1652 19.0956 35.4725 18.1333 35.7383 17.6442L33.9809 16.6894C33.5826 17.4225 33.2259 18.5987 33.0508 19.4336L35.0083 19.844ZM35.7383 17.6442C35.8019 17.527 35.8564 17.4451 35.8967 17.3931C35.9412 17.3356 35.9494 17.3391 35.9127 17.365C35.887 17.383 35.7182 17.498 35.4474 17.4738C35.1248 17.4449 34.9263 17.2473 34.8444 17.1177L36.5347 16.0487C36.3698 15.7879 36.0676 15.5213 35.6256 15.4817C35.2355 15.4468 34.9318 15.6095 34.7609 15.7299C34.4244 15.9669 34.1689 16.3433 33.9809 16.6894L35.7383 17.6442ZM34.8444 17.1177C34.7669 16.9951 34.7441 16.8921 34.7402 16.8753C34.7334 16.8453 34.7331 16.8322 34.7343 16.8458C34.7367 16.8729 34.7388 16.9314 34.7365 17.0278C34.7321 17.2176 34.7139 17.4591 34.6931 17.7082C34.6742 17.9334 34.6499 18.1971 34.6436 18.3643C34.6419 18.4087 34.6405 18.4672 34.643 18.5275C34.6442 18.5573 34.6469 18.6032 34.6544 18.6563C34.6595 18.6922 34.6768 18.8114 34.7388 18.9473C34.7736 19.0237 35.0298 19.55 35.6734 19.5383C35.9458 19.5333 36.1423 19.4214 36.2442 19.3479C36.3477 19.2733 36.4147 19.1951 36.4494 19.151C36.5611 19.0093 36.6152 18.8583 36.623 18.838L34.7561 18.1205C34.757 18.1183 34.7635 18.1013 34.7757 18.0762C34.7834 18.0603 34.8164 17.9921 34.8786 17.913C34.91 17.8733 34.9739 17.7982 35.0744 17.7257C35.1734 17.6543 35.3671 17.5435 35.6369 17.5386C36.2755 17.527 36.5274 18.0493 36.5587 18.1179C36.617 18.2459 36.6315 18.3535 36.6344 18.3742C36.6398 18.4121 36.641 18.4391 36.6413 18.4468C36.642 18.4629 36.6412 18.4641 36.6422 18.44C36.6462 18.3332 36.6634 18.1451 36.6861 17.8752C36.7067 17.629 36.73 17.3319 36.736 17.0741C36.7389 16.9468 36.7384 16.8041 36.7265 16.6698C36.7206 16.6026 36.7103 16.5187 36.69 16.4298C36.6727 16.354 36.633 16.2042 36.5347 16.0487L34.8444 17.1177ZM36.623 18.838C36.6795 18.6911 36.7168 18.5105 36.7407 18.3882C36.7696 18.2403 36.7996 18.0631 36.8299 17.8744C36.8853 17.53 36.9643 16.9987 37.0299 16.5863C37.1021 16.1321 37.1761 15.7023 37.2496 15.3695C37.2867 15.2018 37.3192 15.079 37.3455 14.999C37.3878 14.87 37.3779 14.9632 37.2666 15.0882L35.7725 13.7586C35.5783 13.9769 35.4853 14.2533 35.4453 14.3752C35.3892 14.5461 35.34 14.7419 35.2967 14.9381C35.2094 15.3332 35.1277 15.8131 35.0547 16.2722C34.9751 16.7732 34.9192 17.1588 34.8553 17.5571C34.8259 17.7398 34.8002 17.8903 34.7779 18.0043C34.7506 18.144 34.7412 18.1595 34.7561 18.1205L36.623 18.838ZM37.2666 15.0882C37.1996 15.1635 37.0445 15.3067 36.7885 15.3608C36.5112 15.4194 36.2751 15.3406 36.1269 15.2511C35.9072 15.1185 35.842 14.9446 35.8741 15.0078C35.9014 15.0617 35.9569 15.2181 36.0303 15.4945C36.0983 15.7509 36.1607 16.026 36.2234 16.2911C36.2721 16.4971 36.3465 16.8183 36.4349 17.0182L38.2642 16.2097C38.2696 16.2219 38.2402 16.1288 38.1697 15.8305C38.1131 15.5914 38.0406 15.2724 37.9634 14.9815C37.8914 14.7105 37.7913 14.3664 37.6578 14.1032C37.6095 14.0079 37.4627 13.7214 37.1606 13.539C36.9712 13.4246 36.6938 13.3367 36.3751 13.404C36.0776 13.4669 35.881 13.6368 35.7725 13.7586L37.2666 15.0882ZM36.4349 17.0182C36.4401 17.0299 36.4304 17.0109 36.4197 16.9675C36.4175 16.9588 36.372 16.7964 36.4183 16.5794C36.4413 16.4719 36.5203 16.1955 36.8032 15.9907C37.1375 15.7487 37.5027 15.7818 37.7232 15.8628C37.9148 15.9331 38.0329 16.0441 38.0818 16.0944C38.1405 16.1548 38.1788 16.2107 38.2015 16.2477C38.3475 16.4853 38.2906 16.6396 38.2903 16.6403L36.4088 15.9623C36.2425 16.4237 36.2686 16.9222 36.4976 17.2948C36.5307 17.3487 36.5793 17.4182 36.648 17.4888C36.7068 17.5492 36.8342 17.667 37.0343 17.7404C37.2633 17.8244 37.6359 17.857 37.9762 17.6106C38.265 17.4015 38.3486 17.1169 38.3742 16.9973C38.4257 16.756 38.3776 16.5534 38.3611 16.487C38.3361 16.386 38.3006 16.292 38.2642 16.2097L36.4349 17.0182ZM38.2903 16.6403C38.445 16.211 38.7655 15.4252 39.087 14.7308L37.2721 13.8905C36.9297 14.6301 36.5861 15.4703 36.4088 15.9623L38.2903 16.6403ZM39.087 14.7308C39.2563 14.3651 39.4144 14.0214 39.5511 13.7482C39.6194 13.6117 39.6746 13.5087 39.7164 13.4382C39.7771 13.336 39.7625 13.3838 39.6794 13.4587L38.3397 11.9738C38.1736 12.1236 38.0553 12.3184 37.9967 12.4172C37.9192 12.5477 37.8394 12.6995 37.7625 12.8532C37.6087 13.1606 37.4348 13.5392 37.2721 13.8905L39.087 14.7308ZM39.6794 13.4587C39.6355 13.4984 39.5431 13.5744 39.4034 13.6318C39.2531 13.6934 39.0192 13.7433 38.7528 13.6649C38.4893 13.5874 38.3232 13.4223 38.2337 13.2985C38.1491 13.1815 38.1109 13.0736 38.0941 13.0187C38.0612 12.9111 38.0585 12.8292 38.058 12.8191C38.057 12.7962 38.0579 12.7855 38.0575 12.7935C38.0551 12.8407 38.0426 12.94 38.0202 13.0915C38.0108 13.1555 37.9992 13.2324 37.9902 13.296C37.9819 13.3549 37.9708 13.4366 37.9655 13.5102C37.9636 13.5366 37.9574 13.6204 37.9665 13.7176C37.9693 13.7465 37.9744 13.7887 37.985 13.8386C37.9948 13.8845 38.0151 13.9651 38.0587 14.0583C38.0989 14.1444 38.1912 14.3108 38.3808 14.4477C38.4809 14.52 38.6031 14.58 38.7442 14.6123C38.8851 14.6446 39.02 14.6436 39.1393 14.6229C39.3647 14.5839 39.518 14.4787 39.5907 14.4215C39.6697 14.3592 39.7231 14.2978 39.7523 14.2618C39.8103 14.1903 39.8467 14.1253 39.8623 14.0967C39.8969 14.0331 39.9224 13.9721 39.9371 13.9356L38.082 13.188C38.076 13.203 38.0846 13.1793 38.1058 13.1404C38.1146 13.1242 38.1452 13.0684 38.198 13.0032C38.2247 12.9702 38.2758 12.9113 38.3527 12.8507C38.4231 12.7952 38.5745 12.691 38.7981 12.6523C39.0598 12.607 39.3321 12.6677 39.5518 12.8264C39.7399 12.9623 39.831 13.127 39.8702 13.2108C39.9446 13.3698 39.9556 13.5076 39.9577 13.5302C39.9622 13.5772 39.9618 13.6123 39.9615 13.6253C39.9612 13.6412 39.9605 13.6518 39.9603 13.6546C39.9601 13.6566 39.962 13.6361 39.9706 13.5756C39.9785 13.5197 39.9876 13.4599 39.9989 13.3831C40.018 13.253 40.047 13.0544 40.055 12.8927C40.0572 12.8484 40.0588 12.7911 40.056 12.7288C40.0537 12.6793 40.0468 12.5652 40.0068 12.4342C39.9864 12.3676 39.9439 12.2503 39.8542 12.1263C39.7596 11.9955 39.5876 11.8258 39.3174 11.7462C39.0443 11.6659 38.8028 11.7164 38.644 11.7815C38.4958 11.8423 38.394 11.9247 38.3397 11.9738L39.6794 13.4587ZM39.9371 13.9356C40.0102 13.7542 40.0784 13.4871 40.1334 13.2649C40.1902 13.0351 40.268 12.7031 40.3337 12.4342C40.4884 11.8014 40.6286 11.3089 40.7288 11.114L38.9503 10.1992C38.7186 10.6497 38.5267 11.4039 38.3909 11.9593C38.3114 12.2846 38.2543 12.5321 38.1918 12.7848C38.1629 12.9017 38.1379 12.9985 38.1165 13.0748C38.0929 13.1587 38.0815 13.1894 38.082 13.188L39.9371 13.9356ZM40.7288 11.114C40.7529 11.0673 40.7635 11.054 40.7587 11.0605C40.754 11.0668 40.7229 11.1076 40.6595 11.1548C40.5904 11.2063 40.496 11.2552 40.3806 11.2812C40.2686 11.3065 40.1761 11.3013 40.1222 11.2941C40.0774 11.2881 40.0493 11.2788 40.0791 11.2871C40.0902 11.2902 40.1663 11.3127 40.2421 11.3285C40.3282 11.3465 40.4481 11.3644 40.5901 11.359C40.7359 11.3535 40.8869 11.3242 41.0377 11.2644L40.3014 9.40488C40.4572 9.34323 40.5969 9.3595 40.6509 9.37076C40.6592 9.37251 40.6705 9.37578 40.6181 9.36111C40.5843 9.35165 40.4939 9.32598 40.3869 9.31169C40.1129 9.2751 39.7773 9.31838 39.4658 9.55015C39.2164 9.73568 39.0587 9.98847 38.9503 10.1992L40.7288 11.114ZM41.0377 11.2644C41.2347 11.1864 41.4515 11.0816 41.5612 11.0316C41.6287 11.0009 41.6666 10.9852 41.6875 10.9776C41.6967 10.9743 41.692 10.9764 41.6766 10.9804C41.6635 10.9837 41.6217 10.9938 41.5604 10.9975L41.4387 9.00121C41.2505 9.01268 41.0896 9.06698 41.0055 9.09747C40.9071 9.13317 40.8102 9.176 40.7325 9.2114C40.5517 9.29371 40.4364 9.35145 40.3014 9.40488L41.0377 11.2644ZM41.5604 10.9975C41.535 10.9991 41.4775 11.0014 41.4024 10.9921C41.3359 10.9839 41.1859 10.9587 41.022 10.8593C40.9343 10.8062 40.8396 10.7298 40.7564 10.6232C40.6719 10.5149 40.6135 10.3936 40.5804 10.269C40.5171 10.0302 40.5598 9.8345 40.5866 9.74297C40.6149 9.64644 40.6518 9.57788 40.6672 9.55039C40.6849 9.51864 40.6999 9.49675 40.7037 9.4912C40.708 9.48495 40.7105 9.48152 40.7053 9.48876C40.7024 9.49279 40.6924 9.50651 40.6825 9.52048C40.6634 9.54756 40.6239 9.60465 40.5853 9.67801C40.548 9.74895 40.4911 9.87282 40.4653 10.035C40.4375 10.2094 40.446 10.4316 40.5503 10.6583C40.6527 10.8807 40.811 11.0282 40.9506 11.1199L42.0485 9.44823C42.1467 9.51268 42.279 9.63055 42.3671 9.82196C42.4572 10.0177 42.463 10.2075 42.4404 10.3493C42.4198 10.4789 42.3759 10.5699 42.3555 10.6088C42.3437 10.6312 42.3335 10.6479 42.3273 10.6575C42.3211 10.6672 42.3168 10.6733 42.3166 10.6736C42.3164 10.6739 42.3168 10.6734 42.3181 10.6715C42.3199 10.669 42.3211 10.6674 42.3245 10.6627C42.3291 10.6563 42.3411 10.6398 42.3538 10.6213C42.366 10.6034 42.3884 10.57 42.4122 10.5275C42.4336 10.4893 42.475 10.4109 42.5059 10.3055C42.5353 10.2051 42.5787 10.0016 42.5135 9.75606C42.439 9.47536 42.2581 9.26994 42.0589 9.14911C41.8878 9.0454 41.7277 9.01713 41.6478 9.00724C41.5593 8.9963 41.4849 8.99839 41.4387 9.00121L41.5604 10.9975ZM40.9506 11.1199C40.9213 11.1007 41.1969 11.3035 41.4232 11.411C41.69 11.5378 42.1773 11.6944 42.7187 11.4657L41.9404 9.62332C42.0358 9.58303 42.1294 9.57697 42.1984 9.58497C42.2587 9.59197 42.289 9.60811 42.2815 9.60453C42.2745 9.60124 42.2547 9.59055 42.2141 9.56302C42.194 9.54938 42.1745 9.53556 42.1471 9.51618C42.1246 9.50021 42.0866 9.47321 42.0485 9.44823L40.9506 11.1199ZM42.7187 11.4657C42.9976 11.3479 43.1968 11.1542 43.3111 11.0301C43.4375 10.8931 43.5457 10.7452 43.6262 10.6301C43.6678 10.5706 43.7071 10.5125 43.74 10.4638C43.7749 10.4122 43.8012 10.3733 43.8248 10.3397C43.8361 10.3237 43.8449 10.3115 43.8517 10.3023C43.8587 10.2929 43.8618 10.2892 43.8615 10.2895C43.8612 10.2899 43.8594 10.292 43.8562 10.2956C43.8531 10.2992 43.8478 10.305 43.8404 10.3125C43.8278 10.3253 43.7978 10.3548 43.7516 10.3887L42.5675 8.777C42.4456 8.86652 42.3596 8.96719 42.3182 9.01738C42.2685 9.0777 42.2236 9.13978 42.1883 9.19C42.1522 9.24133 42.115 9.29647 42.0831 9.34374C42.0492 9.39385 42.0185 9.43923 41.9874 9.48363C41.9227 9.57614 41.8753 9.63699 41.8408 9.67435C41.7944 9.72472 41.8275 9.67104 41.9404 9.62332L42.7187 11.4657ZM43.7516 10.3887C43.7367 10.3998 43.6801 10.441 43.5942 10.4796C43.5496 10.4995 43.4732 10.5297 43.3729 10.548C43.2736 10.566 43.1123 10.5793 42.9244 10.5254C42.7199 10.4666 42.5398 10.3436 42.4107 10.175C42.2921 10.0202 42.2456 9.86564 42.2261 9.76707C42.2063 9.66744 42.2063 9.5855 42.2084 9.53684C42.2106 9.48541 42.2167 9.44425 42.2212 9.41813C42.2355 9.33646 42.2579 9.28225 42.2496 9.30498C42.2456 9.3159 42.2427 9.32288 42.2273 9.36266C42.2159 9.39192 42.197 9.44114 42.1794 9.4951C42.1642 9.5419 42.1351 9.63634 42.1207 9.75007C42.1134 9.80843 42.1059 9.90132 42.1182 10.0126C42.1301 10.1211 42.1665 10.2984 42.2877 10.4795C42.422 10.6801 42.6208 10.8249 42.8484 10.8927C43.0534 10.9538 43.231 10.9381 43.3382 10.9186L42.9809 8.95079C43.0674 8.93508 43.2281 8.91895 43.4197 8.97604C43.5189 9.0056 43.621 9.05346 43.7173 9.12423C43.8138 9.19508 43.8909 9.27903 43.9497 9.36699C44.0638 9.53737 44.0959 9.70099 44.1061 9.79336C44.1166 9.88846 44.1098 9.9627 44.105 10.0005C44.0998 10.0417 44.0928 10.0718 44.0891 10.0863C44.0852 10.102 44.082 10.1118 44.0813 10.1138C44.0806 10.116 44.0825 10.1103 44.0919 10.086C44.0972 10.0723 44.115 10.0273 44.1279 9.99211C44.1353 9.97184 44.1454 9.94323 44.1555 9.91059C44.1645 9.88108 44.1799 9.82816 44.1913 9.76313C44.1971 9.72961 44.204 9.6817 44.2065 9.62424C44.2089 9.56956 44.2085 9.48233 44.1879 9.3782C44.1675 9.27513 44.1194 9.11688 43.9987 8.95921C43.8674 8.78777 43.6845 8.66282 43.4764 8.60306C43.285 8.54807 43.1194 8.56127 43.015 8.58026C42.9096 8.59943 42.8273 8.63157 42.776 8.65456C42.6766 8.69911 42.6032 8.75074 42.5675 8.777L43.7516 10.3887ZM43.3382 10.9186C43.5586 10.8786 43.7356 10.7794 43.8107 10.7362C43.907 10.6809 44.0025 10.6167 44.0757 10.5667C44.2471 10.4499 44.3593 10.37 44.4713 10.3085L43.5078 8.55583C43.2878 8.67677 43.068 8.83314 42.9489 8.91439C42.8769 8.9635 42.8375 8.9888 42.8145 9.00201C42.8044 9.00781 42.8107 9.00351 42.8296 8.99529C42.8449 8.98862 42.8991 8.96565 42.9809 8.95079L43.3382 10.9186ZM44.4713 10.3085C44.4056 10.3446 44.3543 10.3499 44.3649 10.3485C44.3755 10.3471 44.3887 10.3459 44.4333 10.3424C44.4681 10.3397 44.5375 10.3344 44.6114 10.3236C44.7674 10.3008 45.0267 10.2433 45.278 10.0491C45.531 9.85364 45.6764 9.59775 45.762 9.35665L43.8772 8.68766C43.8797 8.6804 43.9214 8.56987 44.0551 8.46659C44.1871 8.36458 44.3115 8.34617 44.3222 8.3446C44.3235 8.34442 44.3177 8.3453 44.2753 8.34866C44.2428 8.35124 44.1769 8.35613 44.107 8.36521C43.9569 8.38473 43.7395 8.42848 43.5078 8.55583L44.4713 10.3085ZM45.762 9.35665C45.8659 9.06391 45.8723 8.77276 45.8657 8.57143C45.8588 8.36256 45.8319 8.14412 45.8127 7.98075C45.7912 7.79826 45.7761 7.6618 45.7724 7.54121C45.7707 7.48419 45.772 7.44177 45.7748 7.41095C45.7775 7.37998 45.781 7.36865 45.7802 7.37145L43.8589 6.81599C43.7083 7.33694 43.7921 7.92419 43.8264 8.215C43.8487 8.40351 43.8633 8.53029 43.8668 8.63712C43.8705 8.7515 43.8563 8.74656 43.8772 8.68766L45.762 9.35665ZM45.7802 7.37145C45.8235 7.22166 45.8724 7.16452 45.8896 7.1468C45.9075 7.1284 45.9308 7.11204 45.9754 7.09667L45.3237 5.20581C44.6994 5.42098 44.1197 5.91399 43.8589 6.81599L45.7802 7.37145ZM45.9754 7.09667C46.042 7.0737 45.956 7.12251 45.8001 7.06859C45.7139 7.03881 45.6412 6.98849 45.5902 6.93298C45.5435 6.88213 45.5342 6.84811 45.5405 6.86538L47.4186 6.17788C47.2597 5.74369 46.9505 5.35018 46.4536 5.17836C46.0071 5.024 45.5891 5.11435 45.3237 5.20581L45.9754 7.09667ZM45.5405 6.86538C45.5149 6.79539 45.5308 6.78429 45.5268 6.90742C45.5232 7.01765 45.5083 7.14974 45.4863 7.33866C45.4666 7.50773 45.4401 7.73018 45.4334 7.94585C45.4269 8.15242 45.4336 8.44487 45.5315 8.73657L47.4277 8.10068C47.4425 8.14487 47.4285 8.13313 47.4324 8.00846C47.436 7.8929 47.451 7.75706 47.4728 7.57044C47.4923 7.40368 47.5189 7.18268 47.5257 6.97205C47.5321 6.77433 47.5272 6.47461 47.4186 6.17788L45.5405 6.86538ZM45.5315 8.73657C45.6948 9.22368 45.9958 9.56215 46.4012 9.75586C46.5665 9.83485 46.7233 9.87666 46.8163 9.90035C46.9359 9.9308 46.9604 9.93494 47.0058 9.9494L47.6134 8.04393C47.5449 8.0221 47.4819 8.00532 47.4319 7.9926C47.407 7.98627 47.3828 7.98032 47.3631 7.97545C47.342 7.97027 47.3256 7.96622 47.31 7.96224C47.2422 7.94497 47.2434 7.9417 47.2634 7.95128C47.2769 7.95772 47.2979 7.96914 47.3222 7.98709C47.3469 8.00537 47.3699 8.02663 47.3896 8.04953C47.4304 8.09681 47.4362 8.12613 47.4277 8.10068L45.5315 8.73657ZM47.0058 9.9494C47.3633 10.0634 47.6764 9.99826 47.8637 9.93769C47.9578 9.90726 48.0378 9.8722 48.0922 9.84719C48.1199 9.83447 48.1456 9.8221 48.1644 9.81309C48.1855 9.80295 48.1976 9.79714 48.209 9.79182C48.2348 9.77979 48.2221 9.78713 48.1914 9.79679C48.1618 9.80607 48.068 9.83327 47.9363 9.82665C47.7868 9.81913 47.62 9.76923 47.4725 9.65938C47.3367 9.55818 47.2697 9.4452 47.242 9.38892L49.0371 8.50698C48.9679 8.36623 48.8543 8.19473 48.6672 8.05537C48.4685 7.90738 48.2459 7.83969 48.0367 7.82917C47.8454 7.81955 47.688 7.85854 47.5917 7.88881C47.4942 7.91946 47.4114 7.957 47.3646 7.9788C47.2602 8.02743 47.3286 7.997 47.2564 8.03019C47.2336 8.04067 47.2346 8.03915 47.2483 8.03472C47.2748 8.02616 47.4219 7.98287 47.6134 8.04393L47.0058 9.9494ZM47.242 9.38892C47.176 9.25443 47.1892 9.15742 47.1873 9.2C47.1849 9.25142 47.1752 9.31365 47.1497 9.49043C47.1048 9.80277 47.0411 10.2932 47.159 10.8823L49.1201 10.4897C49.072 10.2496 49.0913 10.04 49.1294 9.77506C49.1455 9.6632 49.1772 9.4675 49.1852 9.29091C49.1937 9.10549 49.1862 8.8104 49.0371 8.50698L47.242 9.38892ZM47.159 10.8823C47.3345 11.7589 47.6948 12.9162 48.1132 13.6101L49.826 12.5774C49.5803 12.17 49.2766 11.2715 49.1201 10.4897L47.159 10.8823ZM48.1132 13.6101C48.2003 13.7545 48.3021 13.9174 48.4102 14.0644C48.5049 14.1933 48.6642 14.3948 48.8818 14.5438C48.9967 14.6225 49.1838 14.7258 49.4308 14.7558C49.7063 14.7893 49.9839 14.722 50.216 14.5612C50.5977 14.2968 50.7202 13.8774 50.7689 13.685L48.8302 13.1937C48.821 13.2299 48.821 13.2156 48.8424 13.1743C48.8617 13.1371 48.9281 13.0204 49.077 12.9172C49.2495 12.7977 49.4636 12.745 49.6723 12.7704C49.8525 12.7924 49.9696 12.8647 50.0118 12.8936C50.0842 12.9432 50.0878 12.9699 50.0217 12.88C49.969 12.8082 49.9049 12.7083 49.826 12.5774L48.1132 13.6101ZM50.7689 13.685C50.8478 13.3737 50.8511 12.9649 50.8461 12.6461C50.8406 12.2887 50.8186 11.8794 50.7981 11.5007C50.777 11.1108 50.7575 10.7552 50.7527 10.4683C50.7503 10.325 50.752 10.2167 50.7567 10.1409C50.7631 10.0389 50.771 10.0723 50.7398 10.1586L48.8594 9.47738C48.7866 9.67828 48.7685 9.89022 48.7607 10.0157C48.7512 10.1673 48.7502 10.3352 48.753 10.5018C48.7586 10.8344 48.7806 11.2327 48.801 11.6089C48.822 11.9964 48.8415 12.3656 48.8464 12.6771C48.8488 12.8321 48.8473 12.9603 48.8419 13.0606C48.8359 13.1711 48.8271 13.2059 48.8302 13.1937L50.7689 13.685ZM50.7398 10.1586C50.7328 10.1778 50.7115 10.2333 50.6654 10.3026C50.6204 10.3702 50.5259 10.4902 50.3594 10.5838C50.1745 10.6878 49.9588 10.7259 49.7499 10.6922C49.5618 10.6618 49.4313 10.5822 49.3645 10.5336C49.2959 10.4837 49.2542 10.4372 49.2376 10.4178C49.2278 10.4062 49.221 10.3973 49.2171 10.392C49.2132 10.3866 49.2111 10.3836 49.211 10.3834C49.2108 10.3831 49.2119 10.3848 49.2143 10.3887C49.2166 10.3927 49.2199 10.3982 49.224 10.4056C49.2323 10.4207 49.2429 10.4409 49.2557 10.4668C49.3911 10.741 49.5068 11.0723 49.712 11.5459L51.5471 10.7507C51.4203 10.4581 51.204 9.89514 51.0489 9.58114C51.0037 9.48967 50.9486 9.38599 50.8842 9.28768C50.8316 9.20734 50.7198 9.04625 50.5407 8.916C50.3354 8.76671 49.8749 8.56178 49.3791 8.84053C49.0234 9.04055 48.8966 9.37449 48.8594 9.47738L50.7398 10.1586ZM49.712 11.5459C49.8513 11.8673 49.9609 12.2193 50.0859 12.6404C50.2065 13.0465 50.3422 13.5202 50.5238 14.0019L52.3953 13.2965C52.2449 12.8975 52.1316 12.5038 52.0032 12.0712C51.8792 11.6536 51.7399 11.1956 51.5471 10.7507L49.712 11.5459ZM50.5238 14.0019C50.7122 14.5018 50.9036 14.8661 51.0452 15.1448C51.1882 15.4264 51.2683 15.5987 51.3218 15.8043L53.2573 15.3005C53.1448 14.8683 52.9759 14.5295 52.8284 14.2391C52.6795 13.9459 52.5389 13.6774 52.3953 13.2965L50.5238 14.0019ZM51.3218 15.8043C51.3467 15.8999 51.3421 15.9852 51.3078 16.1625C51.2965 16.2207 51.2554 16.4071 51.2449 16.5707C51.233 16.7563 51.2412 17.1118 51.494 17.4438L53.0851 16.2319C53.255 16.4549 53.2424 16.6749 53.2408 16.6987C53.2407 16.7005 53.2411 16.6988 53.2713 16.5426C53.32 16.2911 53.3984 15.8425 53.2573 15.3005L51.3218 15.8043ZM51.494 17.4438C51.629 17.6209 51.8317 17.7819 52.1019 17.8539C52.3544 17.9212 52.573 17.8856 52.7095 17.8478C52.8434 17.8107 52.9505 17.7568 53.0121 17.7237C53.0756 17.6894 53.1357 17.6521 53.1673 17.6326C53.2585 17.5763 53.2525 17.5837 53.2263 17.5936C53.1836 17.6098 53.0204 17.661 52.812 17.5936L53.4272 15.6906C53.0527 15.5695 52.7236 15.6457 52.5201 15.7225C52.333 15.7931 52.1713 15.897 52.1173 15.9303C52.0986 15.9419 52.0865 15.9493 52.0761 15.9556C52.0659 15.9616 52.0624 15.9635 52.0631 15.9631C52.0637 15.9628 52.0732 15.9577 52.0896 15.9505C52.1057 15.9435 52.1352 15.9316 52.1757 15.9204C52.2526 15.8991 52.4154 15.8677 52.6166 15.9213C52.8356 15.9796 52.9917 16.1093 53.0851 16.2319L51.494 17.4438ZM52.812 17.5936C52.6522 17.542 52.5936 17.4585 52.6474 17.5141C52.685 17.553 52.7296 17.6086 52.8107 17.7118C52.8652 17.7811 52.9879 17.9413 53.1211 18.0633C53.1849 18.1217 53.3312 18.2484 53.5458 18.3245C53.8117 18.4187 54.1944 18.432 54.5363 18.1842L53.3628 16.5647C53.491 16.4718 53.6482 16.4085 53.8205 16.3919C53.9852 16.376 54.1214 16.4066 54.2139 16.4394C54.3773 16.4973 54.4678 16.5846 54.4719 16.5884C54.489 16.604 54.4894 16.607 54.4667 16.58C54.4457 16.5551 54.4208 16.5237 54.3829 16.4755C54.3188 16.394 54.2078 16.2506 54.0846 16.1233C54.0202 16.0568 53.9374 15.9784 53.8379 15.905C53.7403 15.8328 53.6022 15.7472 53.4272 15.6906L52.812 17.5936ZM54.5363 18.1842C54.8274 17.9733 54.9297 17.6858 54.9665 17.5204C55.0028 17.3574 54.9994 17.212 54.9947 17.129C54.9857 16.9699 54.9514 16.7801 54.9367 16.6895C54.889 16.3955 54.9051 16.3364 54.8983 16.3566L53.0008 15.7248C52.9073 16.0057 52.896 16.2758 52.9036 16.4798C52.9112 16.6855 52.9412 16.8781 52.9624 17.0094C52.9746 17.0842 52.9825 17.1303 52.9897 17.1785C52.9929 17.2001 52.995 17.2159 52.9964 17.2277C52.9978 17.2397 52.998 17.2438 52.9978 17.2419C52.9978 17.2405 52.997 17.2268 52.998 17.2042C52.999 17.1825 53.0021 17.1404 53.0143 17.0857C53.0369 16.9844 53.1132 16.7455 53.3628 16.5647L54.5363 18.1842ZM54.8983 16.3566C54.904 16.3396 54.9025 16.348 54.8945 16.3583C54.8941 16.3588 54.8985 16.353 54.9146 16.3365C54.9337 16.3168 54.9541 16.2972 54.9962 16.2567C55.1829 16.0767 55.4438 15.8145 55.683 15.3105L53.8761 14.453C53.7833 14.6486 53.7122 14.7166 53.6084 14.8166C53.4576 14.9619 53.1678 15.2231 53.0008 15.7248L54.8983 16.3566ZM55.683 15.3105C56.0437 14.5505 56.4269 13.234 56.5532 12.8738L54.6659 12.212C54.4602 12.7986 54.1794 13.8139 53.8761 14.453L55.683 15.3105ZM56.5532 12.8738C56.5819 12.7921 56.6094 12.7031 56.6286 12.6127C56.6383 12.5671 56.6487 12.5082 56.6539 12.4411C56.6586 12.3813 56.663 12.2725 56.6373 12.1425C56.6148 12.0285 56.5413 11.7567 56.2764 11.5437C55.9655 11.2935 55.6115 11.2943 55.3848 11.3539C55.1885 11.4054 55.0562 11.5029 54.9972 11.5504C54.9275 11.6066 54.8759 11.6627 54.8412 11.7043C54.7717 11.7878 54.7183 11.8758 54.6786 11.9585C54.64 12.0391 54.5946 12.1559 54.5735 12.2991C54.5549 12.4256 54.5367 12.6999 54.6998 12.9862C54.8953 13.3295 55.2255 13.478 55.4983 13.5086L55.7209 11.521C55.9521 11.5469 56.2564 11.6781 56.4376 11.9963C56.5864 12.2575 56.5657 12.4992 56.5522 12.5905C56.5363 12.6985 56.5039 12.7775 56.4822 12.8229C56.4594 12.8705 56.4267 12.9258 56.3779 12.9844C56.3536 13.0136 56.3124 13.0591 56.2526 13.1074C56.2035 13.1469 56.0805 13.239 55.8927 13.2883C55.6744 13.3456 55.3279 13.3474 55.0229 13.1021C54.764 12.8939 54.6951 12.6307 54.6752 12.5299C54.6521 12.413 54.6571 12.3218 54.66 12.2847C54.6635 12.2404 54.6697 12.2094 54.6722 12.1974C54.6772 12.1741 54.6788 12.1754 54.6659 12.212L56.5532 12.8738ZM55.4983 13.5086C55.3057 13.487 55.1711 13.4127 55.1098 13.3741C55.0443 13.3328 55.0026 13.2941 54.9882 13.2803C54.9629 13.2561 54.9549 13.2436 54.9863 13.2822C55.0119 13.3136 55.1502 13.4957 55.3072 13.6318C55.4482 13.7541 55.9034 14.1013 56.5099 13.8988C57.0288 13.7255 57.2597 13.2637 57.3604 13.0258L55.5187 12.2459C55.499 12.2924 55.501 12.2731 55.5388 12.2265C55.5781 12.178 55.6848 12.0658 55.8764 12.0018C56.0833 11.9327 56.2777 11.9568 56.4156 12.0069C56.5352 12.0502 56.6034 12.1086 56.6174 12.1207C56.6351 12.1361 56.637 12.1407 56.6177 12.1182C56.5952 12.0919 56.5817 12.0742 56.5389 12.0214C56.5106 11.9866 56.4469 11.9079 56.3703 11.8347C56.3303 11.7964 56.2642 11.7375 56.1753 11.6816C56.0908 11.6283 55.9342 11.5449 55.7209 11.521L55.4983 13.5086ZM57.3604 13.0258C57.5757 12.5173 57.758 11.6696 57.8998 10.9117C58.0485 10.1164 58.1753 9.28631 58.258 8.74642L56.2811 8.44363C56.1978 8.98758 56.0756 9.78598 55.9339 10.5441C55.7851 11.3397 55.6354 11.9705 55.5187 12.2459L57.3604 13.0258ZM58.258 8.74642C58.3595 8.08393 58.3143 7.65221 58.2468 7.34135C58.2331 7.27853 58.217 7.21476 58.2124 7.19574C58.2034 7.15827 58.2127 7.1897 58.2178 7.24006C58.2239 7.30081 58.2305 7.44061 58.1709 7.60818C58.1081 7.78446 58.0043 7.90289 57.9262 7.97093L56.6129 6.46251C56.4933 6.56668 56.3635 6.72141 56.2866 6.93779C56.2127 7.14546 56.2166 7.32914 56.2279 7.44121C56.2382 7.54289 56.2605 7.63306 56.2683 7.66538C56.2806 7.71615 56.2853 7.73322 56.2924 7.76592C56.3078 7.83713 56.3456 8.0223 56.2811 8.44363L58.258 8.74642ZM57.9262 7.97093C57.7651 8.11115 57.5582 8.18805 57.3484 8.18997C57.1657 8.19165 57.0359 8.13642 56.9829 8.11046C56.9524 8.09554 56.9306 8.08202 56.9182 8.07386C56.9056 8.06551 56.8983 8.05978 56.8967 8.05857C56.8949 8.05708 56.9036 8.06397 56.9253 8.08504C56.9722 8.13064 57.0284 8.19181 57.1147 8.28628C57.1918 8.37074 57.293 8.48186 57.3986 8.58563L58.8005 7.1592C58.7401 7.09982 58.6753 7.02935 58.5916 6.93769C58.5171 6.85604 58.4177 6.74659 58.3194 6.65099C58.2355 6.56946 58.0731 6.41739 57.8623 6.31417C57.6314 6.20114 57.0904 6.04679 56.6129 6.46251L57.9262 7.97093ZM57.3986 8.58563C57.5129 8.69794 57.6424 8.85679 57.7908 9.04543C57.8575 9.13028 57.9349 9.22969 58.0026 9.31244C58.0624 9.3856 58.158 9.50014 58.2644 9.59492L59.5947 8.10145C59.6181 8.1223 59.61 8.11869 59.5505 8.04601C59.4989 7.98293 59.4413 7.90882 59.3628 7.809C59.2207 7.62829 59.0182 7.37318 58.8005 7.1592L57.3986 8.58563ZM58.2644 9.59492C58.2761 9.60528 58.2688 9.59945 58.2518 9.58189C58.2469 9.57686 58.238 9.56754 58.2269 9.55505C58.2209 9.5482 58.1929 9.51691 58.1615 9.47261C58.1524 9.45984 58.1033 9.39187 58.0608 9.29436C58.0447 9.25742 57.9846 9.11898 57.9781 8.92914C57.9745 8.82561 57.9849 8.65516 58.073 8.46835C58.1699 8.26277 58.334 8.09636 58.5382 7.99653C58.7237 7.90582 58.894 7.89301 58.9975 7.8951C59.1033 7.89723 59.1873 7.91579 59.238 7.92947C59.3366 7.95611 59.4086 7.9921 59.438 8.00737C59.5028 8.041 59.549 8.07433 59.5634 8.08477C59.6229 8.12793 59.663 8.1678 59.6655 8.17019C59.6794 8.1837 59.6904 8.19532 59.6988 8.20449C59.7152 8.22262 59.7319 8.24296 59.7486 8.26672C59.7691 8.29597 59.8505 8.41401 59.8748 8.6047C59.8885 8.71216 59.8849 8.8518 59.832 9.00216C59.7779 9.15581 59.688 9.27591 59.5923 9.36058L58.2668 7.86283C58.1297 7.98422 58.0138 8.14388 57.9454 8.33806C57.8783 8.52894 57.872 8.71008 57.8909 8.85814C57.9257 9.13005 58.0485 9.32574 58.1105 9.41424C58.1479 9.46762 58.1854 9.51297 58.2187 9.54965C58.2355 9.5681 58.254 9.58737 58.2739 9.6067C58.2824 9.6149 58.327 9.65872 58.3891 9.70377C58.4042 9.71468 58.4509 9.74835 58.5161 9.78219C58.5456 9.79756 58.6178 9.83362 58.7166 9.8603C58.7673 9.874 58.8514 9.89256 58.9572 9.89469C59.0608 9.89678 59.2312 9.88397 59.4167 9.79324C59.6209 9.69339 59.785 9.52696 59.882 9.32135C59.9701 9.1345 59.9805 8.96401 59.9769 8.86043C59.9704 8.67049 59.9102 8.53191 59.894 8.49481C59.8514 8.39695 59.802 8.3285 59.7925 8.3151C59.7423 8.24439 59.6904 8.19256 59.689 8.19111C59.6578 8.1588 59.6245 8.12805 59.5947 8.10145L58.2644 9.59492ZM59.5923 9.36058C59.4878 9.45304 59.3782 9.50328 59.2934 9.52937C59.2538 9.54157 59.2216 9.54791 59.2012 9.55125C59.1812 9.55453 59.1681 9.55563 59.1667 9.55575C59.1659 9.55581 59.1687 9.55557 59.1839 9.55473C59.1951 9.55411 59.2204 9.55279 59.2452 9.55112C59.2978 9.54755 59.3797 9.54056 59.4747 9.52193C59.6814 9.4814 59.9138 9.39312 60.1379 9.21377C60.3509 9.04332 60.5131 8.82533 60.6416 8.58495L58.8776 7.64241C58.84 7.71271 58.8362 7.69394 58.8884 7.65216C58.9517 7.60149 59.0285 7.57134 59.0899 7.55929C59.1123 7.5549 59.1241 7.55473 59.11 7.55569C59.1014 7.55627 59.0941 7.55664 59.0736 7.55777C59.0571 7.55869 59.0291 7.56025 58.9985 7.56283C58.8956 7.57151 58.5628 7.6009 58.2668 7.86283L59.5923 9.36058ZM60.6416 8.58495C60.8694 8.15854 61.0623 7.49672 61.2003 7.00054C61.2642 6.77067 61.3537 6.43637 61.4003 6.26781C61.4632 6.04065 61.501 5.91919 61.5186 5.87495L59.6605 5.13503C59.5951 5.29923 59.5292 5.5304 59.4728 5.73437C59.4001 5.99693 59.3547 6.17224 59.2734 6.46477C59.1208 7.01339 58.9817 7.44748 58.8776 7.64241L60.6416 8.58495ZM61.5186 5.87495C61.526 5.85641 61.5266 5.85605 61.522 5.86597C61.5197 5.87082 61.5121 5.88712 61.4997 5.90948C61.4924 5.92284 61.4597 5.98265 61.403 6.05157C61.3761 6.08437 61.3128 6.15773 61.2128 6.22893C61.1256 6.29103 60.8874 6.43945 60.5478 6.40984C60.3695 6.39429 60.2053 6.33181 60.0684 6.23757C59.9379 6.14772 59.8524 6.04334 59.7989 5.96146C59.7001 5.81026 59.6681 5.67064 59.6573 5.61749C59.6336 5.50178 59.6374 5.41005 59.638 5.39428C59.639 5.36232 59.6415 5.33887 59.6424 5.33047C59.6449 5.30792 59.6464 5.30593 59.6369 5.35496C59.6287 5.39727 59.6208 5.4359 59.6085 5.49804C59.5977 5.55285 59.5851 5.61791 59.5743 5.68187C59.5644 5.74055 59.5516 5.8236 59.5455 5.90759C59.5426 5.94753 59.5389 6.01708 59.5448 6.09817C59.5478 6.13918 59.5546 6.20367 59.5733 6.27963C59.5898 6.34704 59.6295 6.48253 59.7298 6.62566C59.841 6.7843 60.0478 6.9766 60.3651 7.03805C60.6623 7.09561 60.8992 7.00689 61.0233 6.94277C61.1474 6.87862 61.2315 6.80273 61.2745 6.76073C61.3223 6.71404 61.3582 6.67026 61.3821 6.63922L59.797 5.41953C59.8106 5.40198 59.8371 5.36901 59.8764 5.33061C59.9108 5.29691 59.9874 5.22682 60.1048 5.16615C60.2221 5.10551 60.4531 5.01795 60.7453 5.07452C60.8914 5.10281 61.0227 5.16227 61.1332 5.24121C61.2404 5.31788 61.316 5.40414 61.3676 5.47771C61.4187 5.55062 61.4515 5.61849 61.4725 5.67004C61.4937 5.72224 61.5071 5.76805 61.5156 5.80277C61.5321 5.8699 61.5374 5.92377 61.5395 5.95257C61.5436 6.00923 61.5406 6.04794 61.5403 6.05208C61.5394 6.06445 61.5395 6.05601 61.5464 6.01482C61.5525 5.97892 61.5607 5.93575 61.5706 5.88548C61.5791 5.84253 61.5919 5.77922 61.6006 5.73424C61.6054 5.70941 61.6106 5.6819 61.6152 5.65483C61.6194 5.63043 61.6255 5.59302 61.6301 5.55233C61.6323 5.53231 61.6356 5.49889 61.6369 5.45875C61.6376 5.43823 61.638 5.40881 61.6363 5.37376C61.6348 5.34168 61.6307 5.28527 61.6167 5.21666C61.6094 5.18126 61.5977 5.13343 61.5781 5.07856C61.5589 5.02503 61.5269 4.94971 61.4733 4.86767C61.4194 4.78522 61.3335 4.68038 61.2025 4.59022C61.0652 4.49567 60.9005 4.433 60.7216 4.4174C60.5487 4.40233 60.4013 4.43432 60.2927 4.47374C60.1865 4.51229 60.106 4.5618 60.0528 4.59968C59.9514 4.6719 59.8865 4.74683 59.8578 4.78181C59.8241 4.82286 59.7998 4.85901 59.7851 4.88199C59.7694 4.90646 59.757 4.928 59.7481 4.94416C59.7307 4.97575 59.7172 5.00382 59.7082 5.02315C59.6902 5.06202 59.6739 5.10147 59.6605 5.13503L61.5186 5.87495ZM61.3821 6.63922C61.4825 6.50874 61.5463 6.36636 61.574 6.3035C61.6113 6.2191 61.6471 6.1268 61.6786 6.04319C61.7506 5.85178 61.802 5.70268 61.8735 5.52023C61.9428 5.34329 61.996 5.22873 62.0315 5.1693C62.05 5.13826 62.0389 5.16493 61.9915 5.21092C61.9539 5.24743 61.7836 5.40357 61.4886 5.42399L61.3505 3.42876C60.9725 3.45491 60.7193 3.65871 60.5993 3.77507C60.4695 3.90091 60.3767 4.03962 60.3148 4.14309C60.1895 4.35267 60.0871 4.59698 60.0112 4.79095C59.9374 4.97942 59.8539 5.21328 59.8066 5.33907C59.7784 5.41405 59.7585 5.46392 59.7445 5.49551C59.721 5.54864 59.7381 5.49608 59.797 5.41953L61.3821 6.63922ZM61.4886 5.42399C61.1251 5.44913 60.8956 5.25544 60.8236 5.18213C60.7541 5.11136 60.734 5.05985 60.7496 5.09092C60.7791 5.1494 60.8188 5.258 60.8874 5.4605C60.9425 5.62301 61.0243 5.87149 61.1208 6.07772C61.1693 6.18141 61.2451 6.32718 61.3572 6.46467C61.459 6.58946 61.6905 6.83064 62.0741 6.89901L62.425 4.93004C62.7256 4.98362 62.8793 5.16649 62.9072 5.20064C62.9454 5.24748 62.9511 5.2703 62.9322 5.2299C62.8939 5.14797 62.8511 5.02379 62.7817 4.81879C62.7258 4.65378 62.641 4.4 62.5356 4.19084C62.4839 4.0881 62.3937 3.92646 62.2503 3.78045C62.1043 3.63191 61.797 3.39787 61.3505 3.42876L61.4886 5.42399ZM62.0741 6.89901C62.6737 7.00588 63.0796 6.63466 63.219 6.48871C63.3912 6.30852 63.519 6.09545 63.6043 5.93946C63.6958 5.772 63.7761 5.59873 63.837 5.46465C63.9079 5.3086 63.9413 5.23247 63.966 5.18501L62.1931 4.25947C62.1349 4.371 62.0645 4.5308 62.0161 4.63736C61.9577 4.76589 61.9031 4.88192 61.8493 4.98017C61.7894 5.08991 61.7616 5.11899 61.7729 5.10712C61.7806 5.09912 61.831 5.0464 61.9284 4.99799C62.0363 4.94427 62.2127 4.89219 62.425 4.93004L62.0741 6.89901ZM63.966 5.18501C64.2525 4.63634 64.0941 4.12641 63.9818 3.89146C63.9509 3.82669 63.9156 3.76486 63.877 3.7082C63.8585 3.6811 63.8322 3.64468 63.7984 3.6053C63.7823 3.58644 63.7546 3.5554 63.7173 3.52066C63.7037 3.50803 63.5977 3.40495 63.4296 3.3323C63.3585 3.3016 63.1018 3.19699 62.7755 3.2836C62.3427 3.39849 62.1317 3.74215 62.0648 3.99531C62.0115 4.19719 62.0363 4.36188 62.0452 4.41547C62.0573 4.48828 62.075 4.54484 62.0856 4.57585C62.1215 4.68131 62.1686 4.75935 62.1778 4.77501C62.2133 4.83505 62.2525 4.88926 62.2846 4.93131L63.8745 3.71787C63.8651 3.70555 63.8784 3.72147 63.8996 3.75738C63.9017 3.76097 63.9445 3.83048 63.9787 3.9307C63.9888 3.96041 64.0062 4.01586 64.0182 4.08777C64.0269 4.14047 64.0517 4.30446 63.9986 4.50584C63.9319 4.7585 63.7211 5.10186 63.2887 5.21665C62.9628 5.30315 62.7066 5.19862 62.6362 5.16821C62.4694 5.09611 62.3651 4.99436 62.3538 4.9838C62.3187 4.95111 62.2936 4.92286 62.2804 4.90749C62.2527 4.87511 62.2338 4.8485 62.2238 4.83378C62.2021 4.80188 62.1875 4.77511 62.1773 4.75376C62.148 4.69251 62.0727 4.49015 62.1931 4.25947L63.966 5.18501ZM62.2846 4.93131C62.2694 4.91138 62.2864 4.93215 62.3491 5.0504C62.4037 5.15335 62.4639 5.27364 62.5413 5.42557C62.6826 5.70271 62.8785 6.08175 63.0914 6.38464L64.7278 5.23473C64.6086 5.06517 64.4726 4.8104 64.3233 4.51749C64.2555 4.38438 64.1808 4.23558 64.1161 4.11351C64.0595 4.00674 63.9727 3.84655 63.8745 3.71787L62.2846 4.93131ZM63.0914 6.38464C63.3054 6.68922 63.5191 6.91425 63.6972 7.08385C63.7831 7.1656 63.8637 7.23714 63.9185 7.28638C63.9823 7.34361 64.0041 7.3645 64.0131 7.37409L65.466 5.99961C65.3921 5.92146 65.3101 5.84789 65.2545 5.79803C65.1901 5.74017 65.1358 5.69198 65.0764 5.63542C64.964 5.52841 64.8457 5.4026 64.7278 5.23473L63.0914 6.38464ZM64.0131 7.37409C63.9181 7.27363 63.7329 7.00604 63.802 6.62132C63.8659 6.26568 64.1302 5.98004 64.4802 5.88605C64.6598 5.83783 64.9245 5.8268 65.1899 5.97184C65.4783 6.12945 65.6272 6.39463 65.6737 6.62808C65.7151 6.83635 65.6752 6.9988 65.652 7.07206C65.6264 7.15307 65.596 7.20354 65.5864 7.21889L63.8927 6.15513C63.8416 6.23655 63.7853 6.34206 63.7454 6.4681C63.7079 6.58639 63.6655 6.78389 63.7121 7.01823C63.7637 7.27776 63.9256 7.56007 64.2309 7.7269C64.5131 7.88115 64.7986 7.87142 64.9989 7.81763C65.3904 7.71249 65.6963 7.38822 65.7705 6.97481C65.85 6.53231 65.644 6.1878 65.466 5.99961L64.0131 7.37409ZM65.5864 7.21889C65.7772 6.91504 66.0772 6.40225 66.3993 5.92362L64.7399 4.80717C64.3979 5.31546 64.0339 5.9304 63.8927 6.15513L65.5864 7.21889ZM66.3993 5.92362C66.5726 5.66602 66.7277 5.43109 66.8656 5.23452C66.9335 5.13768 66.9884 5.06279 67.031 5.00898C67.0835 4.94259 67.0847 4.94984 67.0466 4.9822L65.7525 3.4573C65.5522 3.62732 65.3532 3.90781 65.2281 4.08619C65.0754 4.30387 64.8986 4.57133 64.7399 4.80717L66.3993 5.92362ZM67.0466 4.9822C67.0878 4.94723 67.0707 4.96182 67.0577 4.97204C67.0523 4.97625 67.0257 4.99724 66.9885 5.02132C66.9705 5.03301 66.9312 5.05781 66.8778 5.08335C66.8459 5.0986 66.7053 5.16687 66.5093 5.17911C66.4007 5.18589 66.2217 5.179 66.0258 5.08792C65.811 4.98808 65.6481 4.82021 65.5515 4.6255C65.3933 4.30638 65.4602 4.01734 65.4689 3.97579C65.4878 3.88605 65.5151 3.81955 65.5255 3.79474C65.5388 3.76318 65.551 3.73894 65.5576 3.72616C65.5767 3.68923 65.5967 3.65759 65.5864 3.67451C65.585 3.67688 65.5768 3.69021 65.568 3.70508C65.5491 3.73693 65.5223 3.78451 65.4944 3.84391C65.3888 4.06884 65.224 4.57288 65.5141 5.12568L67.285 4.19636C67.4091 4.43282 67.3274 4.64579 67.3047 4.69395C67.2976 4.70916 67.2915 4.71969 67.2895 4.72302C67.2892 4.72363 67.2884 4.72484 67.293 4.7174C67.2944 4.71508 67.2991 4.70744 67.3042 4.6988C67.308 4.69232 67.3207 4.67088 67.3349 4.64339C67.3421 4.62937 67.3548 4.60402 67.3685 4.57152C67.3794 4.54576 67.4069 4.47847 67.426 4.38811C67.4348 4.34594 67.5017 4.05644 67.3433 3.73701C67.2467 3.54215 67.0837 3.37418 66.8688 3.27426C66.6727 3.18312 66.4935 3.1762 66.3847 3.18299C66.1883 3.19526 66.047 3.26372 66.0144 3.27934C65.9603 3.30523 65.92 3.33056 65.9008 3.34296C65.8615 3.36844 65.8321 3.39153 65.8231 3.39853C65.7959 3.41995 65.7528 3.45705 65.7525 3.4573L67.0466 4.9822ZM65.5141 5.12568C65.6065 5.30185 65.7503 5.56057 65.9242 5.81744C66.085 6.05489 66.3268 6.37527 66.631 6.60256L67.8281 5.00035C67.8284 5.00056 67.8262 4.99898 67.8217 4.99508C67.8173 4.9912 67.811 4.98557 67.8031 4.97787C67.787 4.96219 67.7667 4.94066 67.7425 4.9124C67.6933 4.85494 67.6384 4.78187 67.5804 4.69626C67.4638 4.524 67.3586 4.33653 67.285 4.19636L65.5141 5.12568ZM66.631 6.60256C67.2137 7.03786 68.0532 7.17136 68.6721 6.69165L67.447 5.11083C67.5929 4.99774 67.724 4.99142 67.7757 4.99498C67.8399 4.99941 67.855 5.02042 67.8281 5.00035L66.631 6.60256ZM68.6721 6.69165C68.919 6.50034 69.0265 6.25289 69.0709 6.07401C69.1131 5.90436 69.1102 5.75475 69.1038 5.66355C69.0916 5.4879 69.0473 5.31598 69.0303 5.24709C69.0179 5.19696 69.0118 5.17266 69.0068 5.15015C69.0013 5.12551 69.0061 5.14106 69.0092 5.177C69.0109 5.19666 69.0135 5.23816 69.0095 5.29359C69.0057 5.34618 68.9939 5.44213 68.9491 5.55587C68.9019 5.67551 68.8122 5.82852 68.6501 5.95533C68.4844 6.08491 68.3034 6.13991 68.1516 6.15394L67.9675 4.16243C67.795 4.17838 67.5971 4.23986 67.418 4.37996C67.2424 4.51729 67.1426 4.68487 67.0883 4.82261C66.9938 5.06247 67.0106 5.27859 67.0166 5.34834C67.0248 5.4446 67.0426 5.53049 67.054 5.58207C67.0659 5.63579 67.0805 5.6936 67.0888 5.72735C67.1133 5.82623 67.1105 5.82915 67.1087 5.80249C67.1075 5.78578 67.102 5.7042 67.1299 5.59199C67.16 5.47057 67.2416 5.26998 67.447 5.11083L68.6721 6.69165ZM68.1516 6.15394C67.8787 6.17916 67.6882 6.07763 67.6359 6.04794C67.5999 6.02752 67.5752 6.00953 67.5632 6.00038C67.5565 5.99534 67.5517 5.9914 67.5488 5.98897C67.5459 5.98651 67.5443 5.98507 67.5441 5.98492C67.5441 5.98488 67.5475 5.98795 67.5551 5.99548C67.5626 6.00289 67.5722 6.01274 67.5848 6.02593C67.6129 6.05525 67.6394 6.08408 67.6815 6.1292C67.7539 6.2067 67.8662 6.32602 67.9944 6.43536C68.1145 6.5377 68.3187 6.69358 68.5905 6.77876L69.1886 4.8703C69.2944 4.90345 69.3327 4.9481 69.2919 4.91336C69.2593 4.8856 69.2159 4.84196 69.1431 4.76396C69.0904 4.70757 68.9825 4.58863 68.8811 4.49747C68.8281 4.44987 68.7388 4.37419 68.6227 4.30834C68.5191 4.2496 68.282 4.13337 67.9675 4.16243L68.1516 6.15394ZM68.5905 6.77876C69.1004 6.93859 69.5465 6.77665 69.7168 6.713C69.7647 6.69513 69.8131 6.67569 69.8391 6.66542C69.8543 6.65939 69.8649 6.65527 69.8734 6.65206C69.8818 6.64888 69.8851 6.64777 69.8849 6.64783C69.8849 6.64786 69.8781 6.65016 69.8663 6.65329C69.8546 6.65638 69.8337 6.66147 69.8055 6.66592C69.7549 6.67389 69.6409 6.68638 69.4962 6.65321L69.9429 4.70375C69.7567 4.66106 69.5961 4.67424 69.4942 4.69028C69.3908 4.70658 69.3038 4.73323 69.2481 4.75193C69.1911 4.7711 69.1378 4.79206 69.104 4.8054C69.0632 4.82153 69.0416 4.83025 69.0168 4.83952C68.8966 4.88442 69.0107 4.81453 69.1886 4.8703L68.5905 6.77876ZM69.4962 6.65321C69.3077 6.61001 69.1388 6.51049 69.0107 6.37191C68.8917 6.24312 68.8346 6.11023 68.8069 6.02256C68.7568 5.86418 68.7682 5.74348 68.7693 5.72896C68.773 5.68097 68.7796 5.67547 68.7654 5.7209C68.7609 5.73517 68.7568 5.74644 68.7551 5.75116C68.754 5.75381 68.7551 5.75092 68.7582 5.74346C68.7597 5.73997 68.7634 5.73127 68.769 5.71937C68.7706 5.71577 68.7877 5.67833 68.8151 5.63256C68.8174 5.62873 68.8714 5.5336 68.9675 5.43816C68.997 5.40879 69.0491 5.36061 69.1224 5.31238C69.1895 5.26828 69.3266 5.18917 69.5202 5.15947C69.7418 5.12547 70.0071 5.16318 70.2424 5.3267C70.4532 5.47319 70.5524 5.66016 70.5965 5.76728C70.6759 5.96043 70.6719 6.12786 70.6716 6.15755C70.671 6.21698 70.6651 6.26357 70.662 6.28598C70.6554 6.3328 70.6469 6.36847 70.6439 6.3808C70.6367 6.41018 70.63 6.43152 70.6287 6.43571C70.6263 6.44329 70.6247 6.44791 70.6246 6.44828C70.6243 6.4491 70.626 6.44406 70.6308 6.43119C70.6354 6.41891 70.642 6.40174 70.6509 6.37896L68.7882 5.65054C68.7655 5.7086 68.7467 5.75881 68.7328 5.79918C68.7293 5.80937 68.7134 5.8552 68.7004 5.90839C68.697 5.92256 68.6882 5.95967 68.6814 6.00755C68.6782 6.03049 68.6723 6.07752 68.6717 6.1373C68.6714 6.16733 68.6674 6.33501 68.7469 6.52833C68.791 6.63552 68.8902 6.82255 69.1011 6.96907C69.3364 7.13263 69.6018 7.17035 69.8235 7.13634C70.0172 7.10663 70.1543 7.02749 70.2215 6.98334C70.2949 6.93505 70.347 6.88679 70.3767 6.85732C70.4732 6.76149 70.5277 6.66561 70.5306 6.6607C70.5593 6.61277 70.5782 6.57182 70.5821 6.56348C70.5898 6.54682 70.5962 6.53215 70.6007 6.52156C70.6098 6.49989 70.6183 6.47832 70.6257 6.45868C70.6408 6.41882 70.6575 6.37114 70.6738 6.31921C70.701 6.23228 70.7491 6.0655 70.7632 5.88457C70.7695 5.80357 70.7783 5.62349 70.7139 5.41996C70.6395 5.18421 70.4202 4.81313 69.9429 4.70375L69.4962 6.65321ZM70.6509 6.37896C70.7177 6.20811 70.7845 5.95918 70.8394 5.75156C70.9021 5.51435 70.9654 5.26579 71.0357 5.01293C71.1061 4.76006 71.1742 4.53734 71.2383 4.36842C71.2703 4.28398 71.2947 4.23045 71.3099 4.20163C71.3322 4.15941 71.3137 4.20924 71.2394 4.28002L69.8597 2.83216C69.7024 2.98204 69.6009 3.15476 69.5408 3.26869C69.4737 3.39603 69.4165 3.53193 69.3681 3.65966C69.2713 3.91507 69.1838 4.20765 69.1089 4.47684C69.034 4.74603 68.9624 5.02629 68.9058 5.24043C68.8764 5.35152 68.8511 5.44517 68.8289 5.52136C68.818 5.55911 68.8087 5.58938 68.8011 5.61303C68.7973 5.62469 68.7943 5.63372 68.7919 5.64043C68.7907 5.64374 68.7898 5.64624 68.7892 5.64801C68.7885 5.64978 68.7882 5.65059 68.7882 5.65054L70.6509 6.37896ZM71.2394 4.28002C71.152 4.36339 70.9809 4.47805 70.7351 4.49316C70.5 4.50762 70.3299 4.4224 70.2503 4.3706C70.2096 4.34413 70.1824 4.32011 70.1678 4.3063C70.1529 4.29214 70.1451 4.28282 70.1442 4.28169C70.1436 4.28105 70.1545 4.29455 70.1765 4.33C70.2236 4.40614 70.2708 4.49858 70.3374 4.62791C70.3664 4.68429 70.403 4.75519 70.4401 4.82056C70.4702 4.87348 70.5337 4.98339 70.6229 5.08668L72.1362 3.77897C72.1839 3.83424 72.2008 3.87085 72.1796 3.8335C72.1655 3.80858 72.1463 3.77224 72.1157 3.7127C72.0629 3.6102 71.9753 3.43614 71.8772 3.27757C71.797 3.148 71.6219 2.87712 71.3416 2.69459C71.1817 2.59043 70.9298 2.47741 70.6124 2.49693C70.2842 2.51711 70.0302 2.6697 69.8597 2.83216L71.2394 4.28002ZM70.6229 5.08668C70.5073 4.95281 70.394 4.7154 70.4364 4.4199C70.473 4.16441 70.6174 3.9468 70.8221 3.80938C70.9112 3.74953 71.1208 3.6322 71.4162 3.65168C71.5798 3.66247 71.7816 3.71836 71.9648 3.86518C72.1501 4.01367 72.2509 4.20271 72.2967 4.3685C72.3768 4.65814 72.2968 4.88349 72.2779 4.93518C72.2483 5.01624 72.2161 5.0646 72.2102 5.07336L70.5489 3.9597C70.5016 4.03036 70.4434 4.12855 70.3995 4.24863C70.3663 4.33936 70.2838 4.59295 70.369 4.90136C70.4174 5.07654 70.5228 5.27259 70.7141 5.42588C70.9033 5.57751 71.1125 5.636 71.2846 5.64735C71.5968 5.66794 71.8272 5.54355 71.937 5.46975C72.1832 5.30448 72.3691 5.03152 72.4161 4.70363C72.4689 4.33573 72.3349 4.00889 72.1362 3.77897L70.6229 5.08668ZM72.2102 5.07336C72.2798 4.96959 72.3521 4.83971 72.408 4.73832C72.4728 4.62098 72.5331 4.50945 72.6017 4.3888C72.7479 4.13161 72.8624 3.95989 72.9367 3.88115L71.4824 2.50826C71.2247 2.78122 71.0072 3.14661 70.8629 3.40049C70.6757 3.72993 70.6061 3.87441 70.5489 3.9597L72.2102 5.07336ZM72.9367 3.88115C73.0603 3.75022 73.0852 3.75246 73.0509 3.76861C73.0358 3.77573 73.0291 3.77612 73.0462 3.77209C73.0715 3.76612 73.1082 3.75951 73.195 3.74585L72.8841 1.77015C72.7334 1.79388 72.4708 1.83102 72.1982 1.9595C71.9149 2.09301 71.6908 2.28749 71.4824 2.50826L72.9367 3.88115ZM73.195 3.74585C73.103 3.76032 73.0699 3.73007 73.1876 3.77112C73.2123 3.77972 73.2375 3.78909 73.2723 3.80206C73.3029 3.81347 73.3476 3.83017 73.3922 3.84548C73.4366 3.86069 73.4998 3.88115 73.5717 3.89799C73.6404 3.9141 73.7497 3.9349 73.8805 3.93347L73.8587 1.93359C73.9479 1.93262 74.0105 1.94664 74.028 1.95074C74.0486 1.95558 74.0561 1.95881 74.0408 1.95357C74.0258 1.94843 74.0069 1.94145 73.9707 1.92797C73.9388 1.91606 73.894 1.89931 73.846 1.8826C73.6733 1.82237 73.3081 1.70346 72.8841 1.77015L73.195 3.74585ZM73.8805 3.93347C73.9117 3.93313 73.9585 3.93165 74.0131 3.92517C74.0579 3.91984 74.1628 3.90532 74.2849 3.85601C74.3917 3.81288 74.6795 3.67522 74.833 3.32471C74.9998 2.94375 74.8819 2.61138 74.8101 2.46831C74.7408 2.33014 74.6557 2.24089 74.6273 2.21166C74.59 2.17323 74.5569 2.14501 74.5429 2.1332C74.5276 2.12033 74.5128 2.10859 74.5103 2.10652C74.5043 2.1017 74.5067 2.10365 74.5104 2.10672C74.5142 2.1099 74.5543 2.14273 74.6005 2.19668C74.641 2.24406 74.7448 2.37431 74.7947 2.57989C74.8215 2.69054 74.8319 2.82024 74.8092 2.9597C74.7865 3.09956 74.7351 3.22144 74.6714 3.32109C74.5523 3.50757 74.4041 3.59662 74.3469 3.6277L73.3922 1.87023C73.2935 1.92386 73.1194 2.03552 72.986 2.24434C72.9152 2.35515 72.8596 2.48812 72.8351 2.63895C72.8106 2.78938 72.8216 2.92995 72.8511 3.05129C72.9061 3.27826 73.0229 3.42925 73.0803 3.49635C73.1433 3.57001 73.2042 3.62155 73.2287 3.64205C73.2428 3.65378 73.2556 3.66405 73.2595 3.66715C73.2668 3.67301 73.2615 3.6688 73.2546 3.66304C73.249 3.65832 73.2234 3.63677 73.1921 3.60452C73.1755 3.58748 73.151 3.56093 73.1238 3.52595C73.0976 3.4922 73.059 3.43789 73.0224 3.36492C72.9863 3.29291 72.9405 3.17961 72.9238 3.03328C72.9062 2.87802 72.9234 2.69942 73.001 2.5224C73.0768 2.34933 73.1884 2.22725 73.288 2.14715C73.3838 2.07007 73.475 2.02614 73.5359 2.00155C73.6509 1.95512 73.7457 1.94287 73.7771 1.93914C73.8182 1.93426 73.8482 1.93371 73.8587 1.93359L73.8805 3.93347ZM74.3469 3.6277C74.3979 3.60001 74.4441 3.57111 74.4728 3.55302C74.4884 3.54317 74.5045 3.53291 74.5174 3.52464C74.5313 3.51578 74.5433 3.50815 74.5552 3.50067C74.6044 3.4697 74.6318 3.45449 74.6497 3.44603C74.6679 3.43742 74.6529 3.44727 74.6117 3.45389C74.5647 3.46144 74.4852 3.46421 74.3932 3.4346L75.0059 1.53078C74.4852 1.36317 74.0335 1.5251 73.795 1.63785C73.6676 1.69804 73.5601 1.76381 73.49 1.80791C73.4721 1.81921 73.4552 1.82997 73.4413 1.83886C73.4264 1.84834 73.4157 1.85518 73.4057 1.86149C73.3832 1.87571 73.3828 1.87538 73.3922 1.87023L74.3469 3.6277ZM74.3932 3.4346C74.3085 3.40735 74.2792 3.37465 74.3088 3.39914C74.3326 3.4188 74.3714 3.45625 74.4261 3.51847C74.4802 3.57985 74.533 3.64578 74.5945 3.72299C74.6421 3.78272 74.7263 3.89001 74.806 3.9735L76.2531 2.593C76.2573 2.59734 76.2519 2.59193 76.2315 2.56721C76.2122 2.54378 76.1898 2.51572 76.1586 2.47656C76.1008 2.40405 76.0187 2.30075 75.9275 2.1971C75.837 2.09429 75.7201 1.9709 75.5831 1.85763C75.4519 1.74918 75.2566 1.61145 75.0059 1.53078L74.3932 3.4346ZM74.806 3.9735C74.7905 3.95721 74.7284 3.8911 74.6731 3.77866C74.6212 3.67313 74.5187 3.40774 74.6205 3.07718C74.7308 2.71903 74.9993 2.53888 75.1738 2.4661C75.3358 2.39857 75.4758 2.39231 75.5511 2.39393C75.6336 2.39571 75.7225 2.40901 75.8149 2.43963C75.8613 2.455 75.9305 2.48195 76.0081 2.52905C76.0737 2.56887 76.2185 2.66652 76.3333 2.85198C76.3953 2.95225 76.4543 3.08813 76.4745 3.25492C76.4952 3.42632 76.4703 3.59403 76.4105 3.74331C76.2989 4.0221 76.0991 4.16306 76.0156 4.21482C75.9192 4.2746 75.8352 4.30295 75.7954 4.31508C75.7498 4.32897 75.7141 4.33577 75.695 4.33896L75.3641 2.36654C75.3243 2.37321 75.2717 2.38387 75.2127 2.40186C75.1594 2.41809 75.0654 2.45077 74.9618 2.51498C74.8712 2.57116 74.6672 2.71663 74.5538 2.99987C74.4931 3.15138 74.4679 3.3213 74.4889 3.49488C74.5093 3.66385 74.5691 3.80188 74.6325 3.90425C74.7498 4.09389 74.8991 4.19554 74.9708 4.23899C75.0544 4.28973 75.1311 4.31998 75.1859 4.33814C75.2952 4.37434 75.4048 4.39124 75.508 4.39347C75.6041 4.39554 75.7649 4.38656 75.9436 4.31201C76.135 4.23219 76.4165 4.04069 76.532 3.66569C76.6389 3.31828 76.5339 3.03055 76.4678 2.89601C76.3982 2.75457 76.3102 2.65279 76.2531 2.593L74.806 3.9735ZM75.695 4.33896C75.8744 4.30887 76.2805 4.23703 76.7018 4.0836L76.0174 2.20435C75.7747 2.29274 75.5167 2.34092 75.3641 2.36654L75.695 4.33896ZM76.7018 4.0836C76.6857 4.08944 76.6866 4.08602 76.748 4.0772C76.7763 4.07314 76.9351 4.05456 77.0638 4.02455C77.2196 3.98824 77.4377 3.9165 77.6504 3.75107C77.8686 3.58138 78.0168 3.36364 78.1131 3.13172L76.266 2.36471C76.2793 2.33266 76.3237 2.24922 76.4226 2.17232C76.516 2.09968 76.5993 2.07923 76.6098 2.07677C76.6134 2.07593 76.6075 2.07749 76.5804 2.08144C76.5671 2.08337 76.5526 2.08534 76.5323 2.08807C76.5136 2.09058 76.4891 2.09387 76.4639 2.09749C76.3645 2.11175 76.1994 2.13805 76.0174 2.20435L76.7018 4.0836ZM78.1131 3.13172C78.2405 2.82491 78.2419 2.50912 78.2357 2.32725C78.2286 2.12183 78.2012 1.90967 78.1814 1.75558C78.1582 1.57619 78.1451 1.47225 78.1421 1.39702C78.1407 1.3621 78.1436 1.37128 78.1385 1.40671C78.1352 1.42948 78.1152 1.57075 78.0017 1.72871L76.3775 0.561699C76.2225 0.777422 76.1765 0.999607 76.1589 1.12133C76.1396 1.25571 76.1399 1.38187 76.1437 1.47684C76.151 1.66136 76.1794 1.86879 76.1978 2.0113C76.2194 2.17911 76.2335 2.2994 76.2368 2.39593C76.241 2.51599 76.2216 2.47163 76.266 2.36471L78.1131 3.13172ZM78.0017 1.72871C77.9258 1.83431 77.7897 1.9657 77.581 2.03662C77.3776 2.10572 77.2004 2.08503 77.0943 2.05784C76.9954 2.0325 76.9341 1.99597 76.9206 1.98783C76.9035 1.9775 76.9015 1.97444 76.9201 1.98916C76.9717 2.03023 77.0062 2.06371 77.1189 2.16123C77.2056 2.23617 77.3405 2.3499 77.4978 2.44615L78.5413 0.739932C78.5416 0.740113 78.5389 0.738495 78.5331 0.734368C78.5273 0.730264 78.5193 0.724414 78.5089 0.716356C78.4874 0.69964 78.4614 0.678022 78.4274 0.648608C78.3793 0.607029 78.2582 0.497921 78.1646 0.42353C78.086 0.361111 77.8743 0.193131 77.5909 0.120479C77.4252 0.0779942 77.1921 0.056446 76.9375 0.142955C76.6776 0.23128 76.4948 0.398337 76.3775 0.561699L78.0017 1.72871ZM77.4978 2.44615C77.6662 2.54914 77.8231 2.60983 77.93 2.64798C77.9718 2.66289 78.0392 2.68568 78.0563 2.69161C78.0878 2.70254 78.0998 2.70734 78.1041 2.70921C78.1081 2.71089 78.0578 2.69007 78.001 2.63508C77.9414 2.57733 77.9183 2.52488 77.9151 2.51654L79.784 1.80427C79.6978 1.57815 79.571 1.37127 79.392 1.19803C79.2159 1.02755 79.0308 0.930185 78.8895 0.869849C78.7809 0.8235 78.6215 0.771187 78.6019 0.764221C78.5481 0.74501 78.5389 0.738457 78.5413 0.739932L77.4978 2.44615ZM77.9151 2.51654C77.8833 2.43291 77.9009 2.41383 77.8968 2.54226C77.8933 2.64922 77.8786 2.77938 77.8574 2.94781C77.8395 3.08997 77.8111 3.29874 77.8037 3.47547C77.8 3.56427 77.7986 3.69707 77.8221 3.83936C77.8403 3.94959 77.9021 4.26286 78.1797 4.51332L79.5194 3.02835C79.7555 3.24138 79.7914 3.48985 79.7954 3.51365C79.8046 3.56951 79.8005 3.59425 79.802 3.55908C79.805 3.48788 79.8181 3.38506 79.8417 3.19778C79.862 3.03677 79.8888 2.81963 79.8957 2.60719C79.9019 2.41624 79.8989 2.10568 79.784 1.80427L77.9151 2.51654ZM78.1797 4.51332C78.3737 4.6883 78.6589 4.8117 78.9871 4.77719C79.2667 4.7478 79.4579 4.61521 79.5468 4.54356C79.7152 4.40786 79.8178 4.24177 79.8527 4.1855C79.9033 4.10381 79.9496 4.01665 79.9835 3.95186C80.0239 3.87473 80.0498 3.82342 80.0831 3.76156C80.1141 3.70395 80.1368 3.66496 80.1536 3.63901C80.1736 3.60824 80.1675 3.62361 80.1338 3.65674C80.1107 3.67945 79.9783 3.80813 79.738 3.85277C79.4343 3.90916 79.1753 3.79576 79.0238 3.66416L80.3354 2.15428C80.1009 1.95058 79.7588 1.8147 79.3728 1.8864C79.0501 1.94633 78.836 2.12807 78.7325 2.22974C78.6184 2.34182 78.5332 2.46205 78.476 2.55017C78.4157 2.64311 78.3632 2.73704 78.3215 2.81452C78.2822 2.88774 78.2381 2.97369 78.2117 3.02411C78.1788 3.08688 78.1616 3.11757 78.1525 3.13216C78.1277 3.17218 78.1746 3.08082 78.2917 2.98641C78.355 2.93541 78.5218 2.81509 78.778 2.78815C79.083 2.75609 79.3462 2.87209 79.5194 3.02835L78.1797 4.51332ZM79.0238 3.66416C78.9146 3.56936 78.9238 3.51689 79.0057 3.70944C79.0657 3.85069 79.1316 4.04234 79.2005 4.26777C79.2683 4.48972 79.3322 4.7214 79.3921 4.93993C79.4486 5.146 79.5076 5.36354 79.5575 5.51885L81.4616 4.90683C81.4285 4.80391 81.3838 4.64044 81.321 4.41123C81.2615 4.19447 81.1906 3.9366 81.1132 3.68326C81.0368 3.43339 80.947 3.16398 80.8463 2.92697C80.7673 2.74125 80.6105 2.39328 80.3354 2.15428L79.0238 3.66416ZM79.5575 5.51885C79.5726 5.56586 79.5515 5.52665 79.5592 5.42662C79.5637 5.36978 79.5952 5.06392 79.9046 4.82887C80.0667 4.70567 80.3965 4.55115 80.7949 4.68314C81.2103 4.82078 81.3903 5.16593 81.4406 5.39968C81.5293 5.81253 81.3194 6.07928 81.2962 6.10886L79.7229 4.87402C79.6167 5.00934 79.3861 5.3587 79.4852 5.81983C79.5406 6.07773 79.7336 6.43843 80.1659 6.58166C80.5812 6.71924 80.9316 6.56033 81.1145 6.42136C81.4654 6.15478 81.5385 5.77189 81.5533 5.58135C81.5714 5.34762 81.5295 5.11804 81.4616 4.90683L79.5575 5.51885ZM81.2962 6.10886C81.3688 6.01632 81.4237 5.92017 81.4561 5.86107C81.4931 5.79355 81.5291 5.7215 81.5609 5.65651C81.6329 5.50927 81.6845 5.39704 81.7542 5.25959C81.8205 5.12882 81.8745 5.03414 81.9165 4.97313C81.9368 4.94372 81.9434 4.93819 81.9352 4.94668C81.9304 4.95168 81.884 5.00038 81.7928 5.04676L80.8864 3.26395C80.5685 3.42557 80.3676 3.69624 80.2698 3.83805C80.1511 4.01033 80.0493 4.19946 79.9704 4.35518C79.8948 4.50421 79.8116 4.68113 79.7643 4.77786C79.6915 4.92671 79.686 4.92103 79.7229 4.87402L81.2962 6.10886ZM81.7928 5.04676C81.6987 5.09457 81.5901 5.12232 81.4779 5.1239C81.3702 5.12542 81.2852 5.10266 81.231 5.08206C81.1786 5.06216 81.1474 5.04155 81.1389 5.03577C81.1298 5.02952 81.1314 5.02956 81.1448 5.04171C81.1787 5.07253 81.2113 5.10819 81.2854 5.18753C81.3153 5.21964 81.3606 5.26787 81.4091 5.3142C81.4501 5.3534 81.5392 5.43625 81.6596 5.50764L82.6796 3.78729C82.7247 3.81403 82.7552 3.83801 82.7685 3.84888C82.7762 3.85514 82.7818 3.86005 82.7851 3.86302C82.7885 3.86603 82.7904 3.86784 82.7906 3.86808C82.7907 3.86818 82.7874 3.86498 82.7793 3.85654C82.7712 3.84819 82.7613 3.83765 82.7477 3.8231C82.7024 3.77457 82.6002 3.6617 82.4889 3.5607C82.3817 3.46344 82.1942 3.30849 81.941 3.21233C81.6535 3.10315 81.2697 3.06903 80.8864 3.26395L81.7928 5.04676Z" fill="#3ACC8A" mask="url(#path-1-inside-1_2262_1624)"/>
</svg>
