<svg width="184" height="59" viewBox="0 0 184 59" fill="none" xmlns="http://www.w3.org/2000/svg">
<path d="M178.28 58.0029H6.68279C3.82355 58.0029 1.46289 55.6048 1.46289 52.6526V5.85029C1.46289 2.89809 3.82355 0.5 6.68279 0.5H178.28C181.139 0.5 183.5 2.89809 183.5 5.85029V52.6526C183.5 55.6048 181.139 58.0029 178.28 58.0029Z" fill="black" stroke="white"/>
<path d="M39.5718 28.9591C39.5718 24.4251 43.2897 22.2312 43.4327 22.085C41.2878 19.0136 38.1418 18.5748 36.9979 18.4285C34.2809 18.136 31.5639 20.0374 30.277 20.0374C28.847 20.0374 26.702 18.4285 24.4141 18.4285C21.4111 18.4285 18.6942 20.1836 17.1212 22.9625C13.9752 28.5203 16.2632 36.7108 19.2662 41.2448C20.8391 43.4387 22.5551 45.925 24.8431 45.7788C27.131 45.6325 27.989 44.3162 30.706 44.3162C33.4229 44.3162 34.1379 45.7788 36.5689 45.7788C38.9998 45.7788 40.5728 43.5849 42.0028 41.391C43.7187 38.9047 44.4337 36.4183 44.4337 36.272C44.2907 36.1258 39.5718 34.3707 39.5718 28.9591Z" fill="white"/>
<path d="M35.1387 15.5037C36.2827 13.8948 37.1407 11.8472 36.9977 9.65332C35.2817 9.79958 32.9937 10.8234 31.8498 12.4322C30.7058 13.7486 29.7048 15.9424 29.9908 17.9901C31.8498 18.1363 33.8517 16.9663 35.1387 15.5037Z" fill="white"/>
<path d="M72.1752 45.4862H69.0293L67.3133 39.9285H61.3074L59.7344 45.4862H56.7314L62.7374 26.6191H66.4553L72.1752 45.4862ZM66.7413 37.5884L65.1683 32.6156C65.0253 32.1769 64.7393 30.8606 64.1673 29.1055C64.0243 29.8368 63.7384 31.1531 63.3094 32.6156L61.7364 37.5884H66.7413Z" fill="white"/>
<path d="M87.4762 38.6124C87.4762 40.9525 86.9042 42.7076 85.6172 44.1701C84.4733 45.3402 83.1863 45.9252 81.4703 45.9252C79.7543 45.9252 78.4674 45.3402 77.7524 44.0239V51.1905H74.7495V36.5648C74.7495 35.1022 74.7494 33.6396 74.6064 32.0308H77.1804L77.3234 34.2247C78.3244 32.6158 79.7543 31.7383 81.7563 31.7383C83.3293 31.7383 84.6163 32.3233 85.6172 33.6396C86.9042 34.8097 87.4762 36.4185 87.4762 38.6124ZM84.4733 38.6124C84.4733 37.2961 84.1873 36.126 83.6153 35.3947C83.0433 34.5172 82.1853 34.0784 81.0413 34.0784C80.3263 34.0784 79.6114 34.3709 79.0394 34.8097C78.4674 35.2485 78.0384 35.9797 77.8954 36.711C77.7524 37.1498 77.7524 37.4423 77.7524 37.5886V39.9287C77.7524 40.9525 78.0384 41.6838 78.6104 42.4151C79.1824 43.1463 80.0403 43.4389 80.8983 43.4389C82.0423 43.4389 82.9003 43.0001 83.4723 42.1225C84.1873 41.245 84.4733 40.0749 84.4733 38.6124Z" fill="white"/>
<path d="M102.777 38.6124C102.777 40.9525 102.205 42.7076 100.918 44.1701C99.7741 45.3402 98.4871 45.9252 96.7711 45.9252C95.0551 45.9252 93.7682 45.3402 93.0532 44.0239V51.1905H90.0502V36.5648C90.0502 35.1022 90.0502 33.6396 89.9072 32.0308H92.4812L92.6242 34.2247C93.6252 32.6158 95.0552 31.7383 97.0571 31.7383C98.6301 31.7383 99.9171 32.3233 100.918 33.6396C102.205 34.8097 102.777 36.4185 102.777 38.6124ZM99.7741 38.6124C99.7741 37.2961 99.4881 36.126 98.9161 35.3947C98.3441 34.5172 97.4861 34.0784 96.3421 34.0784C95.6271 34.0784 94.9122 34.3709 94.3402 34.8097C93.7682 35.2485 93.3392 35.9797 93.1962 36.711C93.0532 37.1498 93.0532 37.4423 93.0532 37.5886V39.9287C93.0532 40.9525 93.3392 41.6838 93.9112 42.4151C94.4832 43.1463 95.3411 43.4389 96.1991 43.4389C97.3431 43.4389 98.2011 43.0001 98.7731 42.1225C99.4881 41.245 99.7741 40.0749 99.7741 38.6124Z" fill="white"/>
<path d="M119.936 40.2206C119.936 41.8294 119.364 43.1457 118.363 44.1695C117.219 45.3396 115.504 45.7783 113.359 45.7783C111.357 45.7783 109.784 45.3396 108.64 44.6083L109.355 42.1219C110.642 42.8532 112.072 43.292 113.645 43.292C114.789 43.292 115.646 42.9995 116.218 42.5607C116.79 41.9757 117.076 41.3907 117.076 40.5131C117.076 39.7819 116.79 39.0506 116.361 38.6118C115.789 38.0268 114.932 37.588 113.788 37.1493C110.499 35.9792 108.926 34.0779 108.926 31.7378C108.926 30.129 109.498 28.959 110.642 27.9352C111.786 26.9114 113.216 26.4727 115.218 26.4727C116.933 26.4727 118.22 26.7652 119.364 27.3502L118.649 29.8365C117.648 29.2515 116.504 28.959 115.075 28.959C114.074 28.959 113.216 29.2515 112.644 29.6903C112.215 30.129 111.929 30.7141 111.929 31.4453C111.929 32.1766 112.215 32.7616 112.787 33.3466C113.216 33.7854 114.217 34.2242 115.504 34.8092C117.076 35.3942 118.22 36.2717 119.078 37.1493C119.507 37.8806 119.936 38.9043 119.936 40.2206Z" fill="white"/>
<path d="M129.661 34.2244H126.372V40.8058C126.372 42.4146 126.944 43.2921 128.088 43.2921C128.66 43.2921 129.089 43.2921 129.375 43.1459L129.518 45.4859C128.946 45.7784 128.231 45.7784 127.23 45.7784C126.086 45.7784 125.085 45.4859 124.513 44.7547C123.798 44.0234 123.512 42.8534 123.512 41.0983V34.2244H121.51V31.8843H123.512V29.398L126.372 28.5205V31.8843H129.661V34.2244Z" fill="white"/>
<path d="M144.39 38.6122C144.39 40.6598 143.818 42.4149 142.674 43.7312C141.387 45.0475 139.814 45.7788 137.812 45.7788C135.81 45.7788 134.237 45.0475 133.093 43.7312C131.949 42.4149 131.377 40.806 131.377 38.7584C131.377 36.7108 131.949 34.9557 133.236 33.6394C134.38 32.3231 136.096 31.5918 138.098 31.5918C140.1 31.5918 141.673 32.3231 142.817 33.6394C143.818 34.9557 144.39 36.5646 144.39 38.6122ZM141.244 38.7584C141.244 37.4421 140.958 36.4183 140.386 35.5408C139.814 34.517 138.813 33.9319 137.669 33.9319C136.525 33.9319 135.524 34.517 134.952 35.5408C134.38 36.4183 134.094 37.5884 134.094 38.7584C134.094 40.0748 134.38 41.0986 134.952 41.9761C135.524 42.9999 136.525 43.5849 137.669 43.5849C138.813 43.5849 139.671 42.9999 140.386 41.9761C140.958 41.0986 141.244 39.9285 141.244 38.7584Z" fill="white"/>
<path d="M153.971 34.517C153.685 34.517 153.399 34.3708 152.97 34.3708C151.969 34.3708 151.111 34.8095 150.539 35.5408C150.11 36.272 149.824 37.1495 149.824 38.1732V45.3394H146.821V35.9795C146.821 34.3708 146.821 33.0545 146.678 31.7383H149.252L149.395 34.3708H149.538C149.824 33.4933 150.396 32.762 150.968 32.177C151.683 31.7383 152.398 31.4458 153.113 31.4458C153.399 31.4458 153.685 31.4458 153.828 31.4458V34.517H153.971Z" fill="white"/>
<path d="M167.126 38.0271C167.126 38.6122 167.126 39.051 166.983 39.3435H158.117C158.117 40.6598 158.546 41.6836 159.404 42.4149C160.119 42.9999 161.12 43.4387 162.264 43.4387C163.551 43.4387 164.838 43.2924 165.839 42.8537L166.268 44.9013C164.981 45.4863 163.551 45.7788 161.835 45.7788C159.833 45.7788 158.117 45.1938 156.973 43.8775C155.829 42.7074 155.257 40.9523 155.257 38.9047C155.257 36.8571 155.829 35.102 156.83 33.7857C157.974 32.3231 159.547 31.5918 161.549 31.5918C163.408 31.5918 164.981 32.3231 165.839 33.7857C166.84 34.9557 167.126 36.4183 167.126 38.0271ZM164.409 37.2959C164.409 36.4183 164.266 35.687 163.837 34.9557C163.265 34.0782 162.55 33.6394 161.549 33.6394C160.548 33.6394 159.833 34.0782 159.261 34.8095C158.832 35.3945 158.546 36.2721 158.403 37.1496H164.409V37.2959Z" fill="white"/>
<path d="M65.8831 15.0642C65.8831 16.6729 65.4541 17.9892 64.4531 18.8667C63.5952 19.5979 62.3082 20.0367 60.5922 20.0367C59.7342 20.0367 59.0193 20.0366 58.4473 19.8904V10.823C59.1623 10.6768 60.0202 10.6768 61.0212 10.6768C62.5942 10.6768 63.7382 10.9693 64.5961 11.7005C65.3111 12.4317 65.8831 13.6017 65.8831 15.0642ZM64.3102 15.0642C64.3102 14.0405 64.0242 13.163 63.4522 12.578C62.8802 11.993 62.0222 11.7005 61.0212 11.7005C60.5922 11.7005 60.1632 11.7005 59.8772 11.8467V18.7204C60.0202 18.7204 60.4492 18.7204 60.8782 18.7204C62.0222 18.7204 62.8802 18.4279 63.4522 17.8429C64.0242 17.2579 64.3102 16.2342 64.3102 15.0642Z" fill="white"/>
<path d="M73.892 16.5274C73.892 17.5511 73.606 18.4286 73.034 19.0135C72.462 19.7447 71.604 20.0372 70.603 20.0372C69.602 20.0372 68.887 19.7447 68.315 19.0135C67.743 18.4286 67.457 17.5511 67.457 16.5274C67.457 15.5037 67.743 14.6262 68.315 14.0413C68.887 13.3101 69.745 13.0176 70.746 13.0176C71.747 13.0176 72.462 13.3101 73.034 14.0413C73.606 14.6262 73.892 15.5037 73.892 16.5274ZM72.462 16.5274C72.462 15.9424 72.319 15.3575 72.033 14.9187C71.747 14.3338 71.318 14.1875 70.746 14.1875C70.174 14.1875 69.745 14.48 69.459 14.9187C69.173 15.3575 69.03 15.9424 69.03 16.5274C69.03 17.1124 69.173 17.6973 69.459 18.1361C69.745 18.721 70.174 18.8673 70.746 18.8673C71.318 18.8673 71.747 18.5748 72.033 17.9898C72.319 17.6973 72.462 17.1124 72.462 16.5274Z" fill="white"/>
<path d="M84.9021 13.1636L82.9001 19.8911H81.6132L80.7552 16.9661C80.4692 16.2348 80.3262 15.5036 80.1832 14.7723C80.0402 15.5036 79.8972 16.2348 79.6112 16.9661L78.7532 19.8911H77.4662L75.3213 13.1636H76.7513L77.4662 16.3811C77.6092 17.1123 77.7522 17.8436 77.8952 18.5748C78.0382 17.9898 78.1812 17.2586 78.4672 16.3811L79.3252 13.1636H80.4692L81.3272 16.2348C81.6132 16.9661 81.7562 17.6973 81.8992 18.4286C82.0422 17.6973 82.1852 16.9661 82.3281 16.2348L83.1861 13.1636H84.9021Z" fill="white"/>
<path d="M92.3386 19.8911H90.9086V16.0886C90.9086 14.9186 90.4797 14.3336 89.6217 14.3336C89.1927 14.3336 88.9067 14.4799 88.6207 14.7724C88.3347 15.0649 88.1917 15.5036 88.1917 15.9424V19.8911H86.7617V15.0649C86.7617 14.4798 86.7617 13.8948 86.7617 13.1636H88.0487V14.1873C88.1917 13.8948 88.4777 13.6023 88.7637 13.3098C89.1927 13.0173 89.6217 12.8711 90.0507 12.8711C90.6227 12.8711 91.1946 13.0173 91.6236 13.4561C92.1956 13.8948 92.3386 14.6261 92.3386 15.6499V19.8911Z" fill="white"/>
<path d="M96.342 19.8911H94.9121V10.0918H96.342V19.8911Z" fill="white"/>
<path d="M104.922 16.5274C104.922 17.5511 104.636 18.4286 104.064 19.0135C103.492 19.7447 102.634 20.0372 101.633 20.0372C100.632 20.0372 99.9173 19.7447 99.3453 19.0135C98.7733 18.4286 98.4873 17.5511 98.4873 16.5274C98.4873 15.5037 98.7733 14.6262 99.3453 14.0413C99.9173 13.4563 100.775 13.0176 101.776 13.0176C102.777 13.0176 103.492 13.3101 104.064 14.0413C104.636 14.6262 104.922 15.5037 104.922 16.5274ZM103.492 16.5274C103.492 15.9424 103.349 15.3575 103.063 14.9187C102.777 14.3338 102.348 14.1875 101.776 14.1875C101.204 14.1875 100.775 14.48 100.489 14.9187C100.203 15.3575 100.06 15.9424 100.06 16.5274C100.06 17.1124 100.203 17.6973 100.489 18.1361C100.775 18.721 101.204 18.8673 101.776 18.8673C102.348 18.8673 102.777 18.5748 103.063 17.9898C103.349 17.6973 103.492 17.1124 103.492 16.5274Z" fill="white"/>
<path d="M111.929 19.891H110.642L110.499 19.1598C110.07 19.7447 109.355 20.0372 108.64 20.0372C108.068 20.0372 107.496 19.891 107.21 19.4523C106.924 19.0135 106.638 18.5748 106.638 18.1361C106.638 17.2586 106.924 16.6736 107.639 16.2349C108.354 15.7962 109.212 15.6499 110.499 15.6499V15.5037C110.499 14.6262 110.07 14.1875 109.212 14.1875C108.497 14.1875 108.068 14.3338 107.496 14.6262L107.21 13.6025C107.782 13.1638 108.497 13.0176 109.498 13.0176C111.214 13.0176 112.072 13.895 112.072 15.7962V18.2823C111.929 19.0135 111.929 19.4523 111.929 19.891ZM110.499 17.5511V16.5274C108.926 16.5274 108.068 16.9661 108.068 17.8436C108.068 18.1361 108.211 18.4286 108.354 18.5748C108.497 18.721 108.783 18.8673 109.069 18.8673C109.355 18.8673 109.641 18.721 109.927 18.5748C110.213 18.4286 110.356 18.1361 110.499 17.8436C110.499 17.8436 110.499 17.6973 110.499 17.5511Z" fill="white"/>
<path d="M120.223 19.8906H118.936V18.8668C118.507 19.7443 117.792 20.0368 116.791 20.0368C115.933 20.0368 115.361 19.7443 114.789 19.1593C114.217 18.5743 114.074 17.6969 114.074 16.6731C114.074 15.6494 114.36 14.7719 114.932 14.0407C115.504 13.4557 116.219 13.1632 116.934 13.1632C117.792 13.1632 118.364 13.4557 118.793 14.0407V10.2383H120.223V18.1356C120.223 18.7206 120.223 19.3056 120.223 19.8906ZM118.793 17.1119V15.9419C118.793 15.7957 118.793 15.6494 118.793 15.5032C118.65 15.2107 118.507 14.9182 118.221 14.6257C117.935 14.3332 117.649 14.3332 117.22 14.3332C116.648 14.3332 116.219 14.6257 115.933 15.0644C115.647 15.5032 115.504 16.0881 115.504 16.8194C115.504 17.5506 115.647 17.9894 115.933 18.4281C116.219 18.8668 116.648 19.1593 117.22 19.1593C117.649 19.1593 118.078 19.0131 118.364 18.5743C118.65 17.9894 118.793 17.5506 118.793 17.1119Z" fill="white"/>
<path d="M132.663 16.5274C132.663 17.5511 132.377 18.4286 131.805 19.0135C131.233 19.7447 130.375 20.0372 129.374 20.0372C128.373 20.0372 127.658 19.7447 127.086 19.0135C126.514 18.4286 126.229 17.5511 126.229 16.5274C126.229 15.5037 126.514 14.6262 127.086 14.0413C127.658 13.3101 128.516 13.0176 129.517 13.0176C130.518 13.0176 131.233 13.3101 131.805 14.0413C132.377 14.6262 132.663 15.5037 132.663 16.5274ZM131.09 16.5274C131.09 15.9424 130.947 15.3575 130.661 14.9187C130.375 14.3338 129.946 14.1875 129.374 14.1875C128.802 14.1875 128.373 14.48 128.087 14.9187C127.801 15.3575 127.658 15.9424 127.658 16.5274C127.658 17.1124 127.801 17.6973 128.087 18.1361C128.373 18.721 128.802 18.8673 129.374 18.8673C129.946 18.8673 130.375 18.5748 130.661 17.9898C130.947 17.6973 131.09 17.1124 131.09 16.5274Z" fill="white"/>
<path d="M140.528 19.8911H139.098V16.0886C139.098 14.9186 138.669 14.3336 137.811 14.3336C137.382 14.3336 137.096 14.4799 136.81 14.7724C136.524 15.0649 136.381 15.5036 136.381 15.9424V19.8911H134.951V15.0649C134.951 14.4798 134.951 13.8948 134.951 13.1636H136.238V14.1873C136.381 13.8948 136.667 13.6023 136.953 13.3098C137.382 13.0173 137.811 12.8711 138.24 12.8711C138.812 12.8711 139.384 13.0173 139.813 13.4561C140.385 13.8948 140.528 14.6261 140.528 15.6499V19.8911Z" fill="white"/>
<path d="M150.253 14.333H148.68V17.5506C148.68 18.4281 148.966 18.7206 149.538 18.7206C149.824 18.7206 149.967 18.7206 150.253 18.7206V19.8907C149.967 20.0369 149.538 20.0369 149.109 20.0369C148.537 20.0369 148.108 19.8907 147.822 19.4519C147.536 19.1594 147.393 18.4281 147.393 17.6969V14.333H146.392V13.163H147.393V11.993L148.823 11.5542V13.163H150.396V14.333H150.253Z" fill="white"/>
<path d="M157.974 19.8911H156.544V16.0884C156.544 14.9183 156.115 14.3333 155.257 14.3333C154.542 14.3333 154.113 14.6258 153.827 15.3571C153.827 15.5034 153.827 15.6496 153.827 15.9421V19.8911H152.397V10.0918H153.827V14.187C154.256 13.4557 154.971 13.017 155.829 13.017C156.401 13.017 156.973 13.1632 157.259 13.602C157.688 14.0408 157.974 14.9183 157.974 15.7959V19.8911Z" fill="white"/>
<path d="M165.839 16.2347C165.839 16.5272 165.839 16.6734 165.839 16.9659H161.549C161.549 17.6972 161.835 18.1359 162.121 18.4284C162.55 18.7209 162.979 18.8671 163.551 18.8671C164.266 18.8671 164.838 18.7209 165.267 18.5746L165.553 19.5983C164.981 19.8908 164.266 20.0371 163.408 20.0371C162.407 20.0371 161.549 19.7446 160.977 19.1596C160.405 18.5746 160.119 17.6972 160.119 16.6734C160.119 15.6497 160.405 14.7723 160.977 14.1873C161.549 13.4561 162.264 13.1636 163.265 13.1636C164.266 13.1636 164.981 13.4561 165.41 14.1873C165.696 14.626 165.839 15.3572 165.839 16.2347ZM164.552 15.796C164.552 15.3572 164.409 14.9185 164.266 14.626C163.98 14.1873 163.694 14.041 163.122 14.041C162.693 14.041 162.264 14.1873 161.978 14.626C161.692 14.9185 161.549 15.3572 161.549 15.796H164.552Z" fill="white"/>
</svg>
