<svg width="1440" height="121" viewBox="0 0 1440 121" fill="none" xmlns="http://www.w3.org/2000/svg">
<path d="M1 51.4001C13.1667 59.5667 49.1 71.0001 95.5 51.4001C141.9 31.8001 204.5 12.5667 230 5.40008C259.167 -1.76658 332.6 -5.39992 393 37.4001C468.5 90.9001 543 97.4001 582.5 88.4001C622 79.4001 730 -9.59998 913 5.40008C1096 20.4001 1250 68.4001 1287 78.4001C1324 88.4001 1377 100.4 1389 52.9001C1401 5.40008 1338.5 4.90015 1319 17.9001C1299.5 30.9001 1277 80.9001 1319 112.9C1352.6 138.5 1418.33 83.5668 1447 52.9001" stroke="#F2A900" stroke-width="2" stroke-dasharray="20 20"/>
</svg>
