<svg width="239" height="92" viewBox="0 0 239 92" fill="none" xmlns="http://www.w3.org/2000/svg">
<path d="M238 48.9672H237H238ZM12.8127 25.752L13.4679 24.9965L11.9569 23.6862L11.3017 24.4417L12.8127 25.752ZM4.13338 15.9976C3.59594 16.1248 3.26334 16.6636 3.39051 17.201C3.51767 17.7385 4.05645 18.0711 4.59389 17.9439L4.13338 15.9976ZM237 48.9672C237 56.0609 232.65 62.3767 224.793 67.8535C216.94 73.3273 205.733 77.8478 192.409 81.3456C165.774 88.3377 130.948 91.1745 98.3221 89.5582C65.6583 87.9401 35.3952 81.8672 17.7788 71.1837C8.98021 65.8477 3.49974 59.4637 2.26706 52.0603C1.03555 44.6639 3.99056 35.9253 12.8127 25.752L11.3017 24.4417C2.28655 34.8375 -1.07572 44.161 0.294221 52.3888C1.663 60.6096 7.70273 67.412 16.7417 72.8938C34.8006 83.8457 65.4825 89.9338 98.2231 91.5558C131.002 93.1796 166.039 90.3358 192.917 83.28C206.349 79.7539 217.81 75.1587 225.937 69.4942C234.059 63.8327 239 56.9877 239 48.9672H237ZM4.59389 17.9439C82.8502 -0.572627 141.101 -1.18272 179.731 7.09265C199.05 11.231 213.409 17.5799 222.915 24.9736C232.419 32.3658 237 40.7362 237 48.9672H239C239 39.9302 233.963 31.0327 224.143 23.3949C214.325 15.7584 199.655 9.3152 180.15 5.13701C141.135 -3.22064 82.5677 -2.56099 4.13338 15.9976L4.59389 17.9439Z" fill="#FFA412"/>
</svg>
