<svg width="183" height="59" viewBox="0 0 183 59" fill="none" xmlns="http://www.w3.org/2000/svg">
<path d="M176.43 57.7108H5.6913C2.8478 57.7108 0.5 55.3259 0.5 52.3897V5.82108C0.5 2.88494 2.8478 0.5 5.6913 0.5H176.43C179.274 0.5 181.622 2.88494 181.622 5.82108V52.3897C181.622 55.3259 179.274 57.7108 176.43 57.7108Z" fill="black" stroke="white"/>
<path fill-rule="evenodd" clip-rule="evenodd" d="M13.9434 28.5232V13.2429C13.9434 12.3697 14.6548 11.6421 15.3662 11.6421C16.0776 11.6421 16.3622 11.7876 16.789 12.0787L44.2496 27.5045C44.8187 27.7956 45.1033 28.2322 45.1033 28.6688C45.1033 29.1053 44.8187 29.5419 44.2496 29.833L16.789 45.2588C16.5044 45.4044 16.0776 45.6954 15.3662 45.6954C14.6548 45.6954 13.9434 44.9678 13.9434 44.0946V28.5232Z" fill="url(#paint0_linear_223_2419)"/>
<path fill-rule="evenodd" clip-rule="evenodd" d="M31.7291 28.6686L15.082 11.6421C15.2243 11.6421 15.2243 11.6421 15.3666 11.6421C16.078 11.6421 16.3626 11.7876 16.7894 12.0787L36.9935 23.4297L31.7291 28.6686Z" fill="url(#paint1_linear_223_2419)"/>
<path fill-rule="evenodd" clip-rule="evenodd" d="M36.8507 33.7622L31.7285 28.5232L36.993 23.1387L44.2494 27.2135C44.8185 27.5045 45.1031 27.9411 45.1031 28.3777C45.1031 28.8143 44.8185 29.2509 44.2494 29.5419L36.8507 33.7622Z" fill="url(#paint2_linear_223_2419)"/>
<path fill-rule="evenodd" clip-rule="evenodd" d="M15.2246 45.4049L31.7294 28.5239L36.8516 33.7628L16.7897 44.9683C16.3629 45.2594 16.0783 45.4049 15.2246 45.4049C15.3669 45.4049 15.3669 45.4049 15.2246 45.4049Z" fill="url(#paint3_linear_223_2419)"/>
<path fill-rule="evenodd" clip-rule="evenodd" d="M101.163 49.3335C100.452 48.7514 99.8824 47.7327 99.5979 47.1506L101.874 46.1319C102.017 46.4229 102.301 46.8595 102.586 47.2961C103.155 47.8782 104.009 48.4603 104.862 48.4603C105.716 48.4603 106.712 48.0237 107.281 47.2961C107.708 46.5685 107.993 45.8408 107.993 44.8222V43.949C106.285 46.1319 102.728 45.8408 100.736 43.5124C98.6019 41.184 98.6019 37.2548 100.736 34.9264C102.87 32.7435 106.001 32.4524 107.85 34.4898V33.4711H110.269V44.3856C110.269 47.1506 109.273 48.7514 107.993 49.77C107.139 50.4977 105.858 50.7887 104.72 50.7887C103.44 50.6432 102.159 50.2066 101.163 49.3335ZM160.779 49.9156L163.198 44.0945L158.93 34.0532H161.349L164.337 41.184L167.324 34.0532H169.743L163.198 49.9156H160.779ZM149.255 44.3856C148.543 43.6579 148.259 42.6393 148.259 41.6206C148.259 40.7474 148.543 39.8743 149.112 39.2922C150.108 38.2735 151.531 37.8369 153.096 37.8369C154.092 37.8369 154.946 37.9824 155.657 38.419C155.657 36.6727 154.234 35.9451 153.096 35.9451C152.1 35.9451 151.104 36.5272 150.677 37.5459L148.543 36.6727C148.97 35.654 150.108 33.7622 152.954 33.7622C154.377 33.7622 155.8 34.1988 156.653 35.2174C157.507 36.2361 157.791 37.4003 157.791 39.0011V45.1132H155.373V44.0945C155.088 44.5311 154.519 44.8222 154.092 45.1132C153.523 45.4043 152.812 45.5498 152.1 45.5498C151.246 45.4043 149.966 45.1132 149.255 44.3856ZM73.4179 39.1466C73.4179 36.2361 75.5521 33.0345 79.3937 33.0345C83.0931 33.0345 85.3696 36.2361 85.3696 39.1466C85.3696 42.0572 83.2354 45.2587 79.3937 45.2587C75.5521 45.2587 73.4179 42.0572 73.4179 39.1466ZM86.2233 39.1466C86.2233 36.2361 88.3575 33.0345 92.1992 33.0345C95.8985 33.0345 98.175 36.2361 98.175 39.1466C98.175 42.0572 96.0408 45.2587 92.1992 45.2587C88.4998 45.2587 86.2233 42.0572 86.2233 39.1466ZM57.3399 42.3482C53.7829 38.7101 53.9251 32.7435 57.4822 28.9598C59.3319 27.068 61.6084 26.1948 64.0272 26.1948C66.3037 26.1948 68.5802 27.068 70.2876 28.8143L68.5802 30.7061C66.0192 28.0867 61.893 28.2322 59.4742 30.8517C56.9131 33.6167 56.9131 37.8369 59.4742 40.6019C62.0352 43.3669 66.3037 43.5124 68.8648 40.7474C69.7185 39.8743 70.0031 38.7101 70.1454 37.5459H64.1695V34.9264H72.5642C72.7064 35.5085 72.7065 36.2361 72.7065 36.9638C72.7065 39.1466 71.8528 41.3295 70.4299 42.7848C68.8648 44.3856 66.5883 45.2587 64.3118 45.2587C61.7507 45.1132 59.1896 44.2401 57.3399 42.3482ZM117.526 43.3669C115.391 41.0385 115.391 37.1093 117.526 34.6353C119.66 32.3069 123.217 32.3069 125.209 34.6353C125.92 35.363 126.347 36.3816 126.774 37.4003L118.948 40.7474C119.375 41.7661 120.371 42.6393 121.794 42.6393C123.075 42.6393 123.928 42.2027 124.782 40.893L126.916 42.3482C126.632 42.6393 126.347 42.9303 126.205 43.2214C123.786 45.6953 119.66 45.6953 117.526 43.3669ZM132.323 45.1132V28.9598H137.445C140.433 28.9598 142.852 31.1427 142.852 33.7622C142.852 36.3816 140.718 38.5645 138.014 38.5645H134.884V44.9677H132.323V45.1132ZM144.275 45.1132V28.9598H146.693V45.1132H144.275ZM112.119 44.8222V26.7769H114.68V44.8222H112.119ZM155.515 40.3109C154.946 39.8743 154.092 39.7287 153.238 39.7287C151.531 39.7287 150.535 40.6019 150.535 41.6206C150.535 42.6393 151.531 43.2214 152.527 43.2214C153.95 43.2214 155.515 42.0572 155.515 40.3109ZM82.6662 39.1466C82.6662 37.4003 81.528 35.5085 79.3937 35.5085C77.2595 35.5085 76.1212 37.4003 76.1212 39.1466C76.1212 40.893 77.2595 42.7848 79.3937 42.7848C81.3857 42.7848 82.6662 40.893 82.6662 39.1466ZM95.4717 39.1466C95.4717 37.4003 94.3334 35.5085 92.1992 35.5085C90.0649 35.5085 88.9267 37.4003 88.9267 39.1466C88.9267 40.893 90.0649 42.7848 92.1992 42.7848C94.3334 42.7848 95.4717 40.893 95.4717 39.1466ZM108.135 40.1653C108.135 40.0198 108.135 39.8743 108.277 39.7287C108.277 39.5832 108.277 39.2922 108.277 39.1466C108.277 39.0011 108.277 38.7101 108.277 38.5645V38.419C108.277 38.2735 108.135 37.9824 108.135 37.8369C107.708 36.3816 106.427 35.363 105.147 35.363C103.44 35.363 102.017 37.1093 102.017 39.0011C102.017 41.0385 103.44 42.6393 105.289 42.6393C106.427 42.7848 107.566 41.7661 108.135 40.1653ZM118.521 38.8556L123.786 36.5272C123.217 35.5085 122.363 35.2174 121.652 35.2174C119.517 35.363 118.237 37.6914 118.521 38.8556ZM140.291 33.9077C140.291 32.4524 139.152 31.4338 137.587 31.4338H134.742V36.5272H137.73C139.152 36.5272 140.291 35.363 140.291 33.9077Z" fill="white"/>
<path fill-rule="evenodd" clip-rule="evenodd" d="M162.629 47.0023H162.486V46.8594H162.629H162.486V47.0023H162.629Z" fill="white"/>
<path fill-rule="evenodd" clip-rule="evenodd" d="M162.914 47.0023C162.914 46.8594 162.914 46.8594 162.914 47.0023C162.771 46.8594 162.771 46.8594 162.914 47.0023C162.771 47.0023 162.771 47.0023 162.914 47.0023ZM162.914 46.8594C162.914 47.0023 162.914 47.0023 162.914 46.8594C162.914 47.0023 162.771 47.0023 162.914 46.8594C162.771 46.8594 162.914 46.8594 162.914 46.8594Z" fill="white"/>
<path fill-rule="evenodd" clip-rule="evenodd" d="M163.057 46.8594H162.914H163.057V47.0023V46.8594Z" fill="white"/>
<path d="M55.3477 14.6987C55.3477 12.0793 57.1974 10.4785 59.4739 10.4785C61.039 10.4785 62.035 11.2061 62.7464 12.2248L61.6081 12.9524C61.1813 12.3703 60.4699 11.9338 59.4739 11.9338C57.9088 11.9338 56.7705 13.098 56.7705 14.8443C56.7705 16.5906 57.9088 17.7548 59.4739 17.7548C60.3276 17.7548 61.039 17.3182 61.3236 17.0271V15.7174H59.047V14.4077H62.8887V17.4637C62.1773 18.3369 61.039 18.919 59.6162 18.919C57.1973 18.919 55.3477 17.1727 55.3477 14.6987Z" fill="white"/>
<path d="M64.5967 18.7733V10.6235H70.0034V11.9333H65.8772V13.9708H69.8611V15.2805H65.8772V17.609H70.0034V18.9188L64.5967 18.7733Z" fill="white"/>
<path d="M73.9872 18.7732V11.9333H71.5684V10.6235H77.8288V11.9333H75.41V18.7732H73.9872Z" fill="white"/>
<path d="M82.666 18.7732V10.6235H84.0889V18.7732H82.666Z" fill="white"/>
<path d="M87.9315 18.7732V11.9333H85.5127V10.6235H91.7731V11.9333H89.3543V18.7732H87.9315Z" fill="white"/>
<path d="M96.3252 14.6987C96.3252 12.2248 98.0326 10.4785 100.451 10.4785C102.87 10.4785 104.578 12.2248 104.578 14.6987C104.578 17.1727 102.87 18.919 100.451 18.919C98.0326 18.919 96.3252 17.0271 96.3252 14.6987ZM103.012 14.6987C103.012 12.9524 102.016 11.7882 100.309 11.7882C98.744 11.7882 97.6057 13.098 97.6057 14.6987C97.6057 16.445 98.6017 17.6092 100.309 17.6092C102.016 17.6092 103.012 16.2995 103.012 14.6987Z" fill="white"/>
<path d="M111.692 18.7732L107.565 12.952V18.7732H106.143V10.6235H107.565L111.692 16.2992V10.6235H113.114V18.7732H111.692Z" fill="white"/>
<defs>
<linearGradient id="paint0_linear_223_2419" x1="23.1454" y1="9.56629" x2="31.4566" y2="42.9381" gradientUnits="userSpaceOnUse">
<stop stop-color="#006884"/>
<stop offset="1" stop-color="#8AD1D0"/>
</linearGradient>
<linearGradient id="paint1_linear_223_2419" x1="13.4326" y1="14.3253" x2="35.3577" y2="25.914" gradientUnits="userSpaceOnUse">
<stop stop-color="#24BBB6"/>
<stop offset="1" stop-color="#DBE692"/>
</linearGradient>
<linearGradient id="paint2_linear_223_2419" x1="38.4078" y1="34.3736" x2="38.4078" y2="22.8064" gradientUnits="userSpaceOnUse">
<stop stop-color="#FCC072"/>
<stop offset="1" stop-color="#F58A5B"/>
</linearGradient>
<linearGradient id="paint3_linear_223_2419" x1="17.6359" y1="48.4159" x2="35.1766" y2="30.9622" gradientUnits="userSpaceOnUse">
<stop stop-color="#712B8F"/>
<stop offset="1" stop-color="#EA1D27"/>
</linearGradient>
</defs>
</svg>
