<svg width="54" height="54" viewBox="0 0 54 54" fill="none" xmlns="http://www.w3.org/2000/svg">
<circle cx="27" cy="27" r="27" fill="#E2E8FB"/>
<path d="M33.4193 41.8869L40.1589 27.7249C40.607 26.7832 40.6849 25.7286 40.3399 24.7661C39.9694 23.731 39.0618 22.6132 36.9673 22.0371C36.3436 21.8684 35.6933 21.8211 35.0517 21.8978L26.5155 22.8914C26.5155 22.8914 22.7047 23.3072 22.3408 27.0305C22.3156 27.2989 22.3195 27.5692 22.3524 27.8367L23.8698 40.5362C23.9508 41.2109 24.206 41.8529 24.6102 42.3991C25.6388 43.795 27.9107 45.8655 31.5079 43.8848C32.3574 43.4154 33.0253 42.7147 33.4193 41.8869Z" fill="#0E1F3F"/>
<path d="M35.6594 21.8371C36.1037 21.8364 36.546 21.8955 36.9745 22.0129C38.7447 22.5002 39.8858 23.4232 40.3632 24.7567C40.7052 25.7117 40.6414 26.7693 40.1812 27.7343L33.4416 41.8963L33.4201 41.8862L33.4416 41.8963C33.0412 42.7374 32.3769 43.4314 31.5196 43.9033C27.9118 45.8897 25.6302 43.8208 24.5903 42.4112C24.1844 41.8612 23.9278 41.2155 23.8453 40.537L22.3279 27.8375C22.2949 27.5683 22.291 27.2963 22.3163 27.0262C22.5052 25.0928 23.6364 24.0643 24.5519 23.5421C25.543 22.9769 26.5024 22.8669 26.5121 22.8659L35.0479 21.872C35.2509 21.8486 35.4551 21.8369 35.6594 21.8371ZM28.6662 44.6758C29.4962 44.6758 30.4385 44.4452 31.4966 43.8628C32.3445 43.3957 33.002 42.7091 33.3981 41.8771L40.1377 27.7151C40.5929 26.7612 40.6556 25.7172 40.318 24.7737C39.8461 23.4556 38.7167 22.5424 36.9613 22.0599C36.3407 21.8909 35.6933 21.8437 35.0548 21.9211L26.5186 22.9149C26.509 22.9149 25.5576 23.0252 24.5751 23.5861C23.67 24.1028 22.552 25.1202 22.3649 27.0325C22.3398 27.2992 22.3436 27.5678 22.3762 27.8337L23.8936 40.5332C23.975 41.2036 24.2286 41.8414 24.6298 42.3846C25.3543 43.3679 26.6906 44.6758 28.6662 44.6758Z" fill="#CCCCCC"/>
<path d="M22.7092 11.3301L14.6128 25.064C14.0744 25.9772 13.8723 27.0535 14.0817 28.0894C14.3058 29.2021 15.0273 30.4691 16.9369 31.3282C17.5015 31.5802 18.1124 31.7118 18.7307 31.7148L26.9201 31.774C26.9201 31.774 30.5726 31.8291 31.371 28.04C31.4276 27.7663 31.4568 27.4876 31.4583 27.208L31.5721 13.9344C31.579 13.2352 31.4167 12.5447 31.0991 11.9217C30.2972 10.3537 28.4018 7.93253 24.7606 9.5164C23.9025 9.88931 23.1844 10.5242 22.7092 11.3301Z" fill="#F2A900"/>
<path d="M31.4428 28.04C31.4995 27.7663 31.5287 27.4876 31.53 27.208L31.5723 22.3006L26.4461 22.8972C26.4461 22.8972 22.6355 23.313 22.2716 27.0363C22.2463 27.3047 22.2502 27.575 22.2833 27.8425L22.7491 31.7431L26.9916 31.774C26.9916 31.774 30.6441 31.8296 31.4428 28.04Z" fill="#F78500"/>
</svg>
