<svg width="142" height="39" viewBox="0 0 142 39" fill="none" xmlns="http://www.w3.org/2000/svg">
<path d="M21.1121 35.7512L28.4388 20.3554C28.926 19.3316 29.0107 18.1852 28.6357 17.1388C28.2329 16.0136 27.2462 14.7984 24.9693 14.1721C24.2912 13.9886 23.5842 13.9372 22.8867 14.0206L13.607 15.1008C13.607 15.1008 9.46413 15.5528 9.06852 19.6005C9.0411 19.8922 9.04535 20.1861 9.08117 20.4769L10.7307 34.2828C10.8188 35.0162 11.0962 35.7141 11.5357 36.3079C12.6538 37.8255 15.1237 40.0763 19.0342 37.9231C19.9577 37.4128 20.6838 36.651 21.1121 35.7512Z" fill="#0E1F3F"/>
<path d="M23.5472 13.9553C24.0301 13.9546 24.511 14.0188 24.9768 14.1464C26.9012 14.6762 28.1417 15.6797 28.6608 17.1293C29.0325 18.1674 28.9632 19.3172 28.4628 20.3663L21.1361 35.762L21.1127 35.751L21.1361 35.762C20.7009 36.6764 19.9787 37.4308 19.0467 37.9438C15.1246 40.1033 12.6443 37.8542 11.5138 36.3218C11.0725 35.7238 10.7935 35.0219 10.7038 34.2843L9.0543 20.4784C9.01834 20.1858 9.0141 19.8901 9.04165 19.5965C9.24702 17.4947 10.4768 16.3766 11.472 15.8089C12.5494 15.1944 13.5925 15.0748 13.6029 15.0737L22.8824 13.9933C23.1031 13.9678 23.325 13.9551 23.5472 13.9553ZM15.9447 38.7837C16.847 38.7837 17.8714 38.533 19.0217 37.8998C19.9435 37.392 20.6583 36.6456 21.0888 35.7411L28.4155 20.3454C28.9104 19.3084 28.9786 18.1735 28.6115 17.1477C28.0985 15.7148 26.8707 14.7221 24.9625 14.1975C24.2878 14.0138 23.584 13.9626 22.8898 14.0466L13.6101 15.1271C13.5996 15.1271 12.5654 15.2469 11.4973 15.8567C10.5133 16.4184 9.29789 17.5244 9.09444 19.6034C9.06721 19.8933 9.07135 20.1853 9.10681 20.4743L10.7564 34.2802C10.8448 35.0089 11.1205 35.7024 11.5567 36.2929C12.3443 37.3618 13.797 38.7837 15.9447 38.7837Z" fill="#CCCCCC"/>
<path d="M9.46733 2.53312L0.665647 17.4634C0.0803351 18.4561 -0.139328 19.6262 0.088308 20.7523C0.33189 21.962 1.11625 23.3393 3.19219 24.2733C3.80598 24.5472 4.47009 24.6904 5.14223 24.6936L14.0451 24.7579C14.0451 24.7579 18.0158 24.8179 18.8837 20.6987C18.9453 20.4011 18.977 20.0981 18.9786 19.7942L19.1023 5.36428C19.1098 4.60413 18.9334 3.85343 18.5882 3.17617C17.7164 1.47164 15.6559 -1.16048 11.6975 0.561364C10.7646 0.966759 9.98398 1.65696 9.46733 2.53312Z" fill="#F2A900"/>
<path d="M18.9618 20.6987C19.0234 20.4011 19.0552 20.0981 19.0566 19.7942L19.1025 14.4593L13.5298 15.1078C13.5298 15.1078 9.38729 15.5598 8.99167 19.6075C8.96412 19.8993 8.96836 20.1932 9.00432 20.484L9.51073 24.7244L14.1228 24.7579C14.1228 24.7579 18.0936 24.8184 18.9618 20.6987Z" fill="#F78500"/>
<path d="M56.244 15.6972V5.07948H61.4764V31.8147H56.244V20.7387H46.3137V31.8147H41.0431V5.07948H46.3137V15.6972H56.244ZM68.6582 10.4265C67.8434 10.4265 67.1305 10.1337 66.5194 9.54807C65.9338 8.93698 65.6409 8.22404 65.6409 7.40926C65.6409 6.59447 65.9338 5.88153 66.5194 5.27044C67.1305 4.65935 67.8434 4.35381 68.6582 4.35381C69.4985 4.35381 70.2114 4.65935 70.797 5.27044C71.4081 5.88153 71.7137 6.59447 71.7137 7.40926C71.7137 8.22404 71.4081 8.93698 70.797 9.54807C70.2114 10.1337 69.4985 10.4265 68.6582 10.4265ZM71.1408 31.8147H66.2138V12.7181H71.1408V31.8147ZM85.9242 4.54477V9.28072C83.2252 9.10249 81.8757 10.1846 81.8757 12.5271V12.7181H85.9242V17.454H81.8757V31.8147H76.9488V17.454H74.1989V12.7181H76.9488V12.5271C76.9488 9.80269 77.6999 7.75299 79.2022 6.37804C80.7299 4.97763 82.9706 4.36654 85.9242 4.54477ZM101.987 14.9715V12.7181H106.914V31.8147H101.987V29.5613C100.51 31.42 98.4351 32.3494 95.7616 32.3494C93.2154 32.3494 91.0256 31.3818 89.1924 29.4467C87.3846 27.4861 86.4807 25.0927 86.4807 22.2664C86.4807 19.4655 87.3846 17.0848 89.1924 15.1243C91.0256 13.1637 93.2154 12.1834 95.7616 12.1834C98.4351 12.1834 100.51 13.1128 101.987 14.9715ZM92.8971 26.1621C93.8901 27.1551 95.1505 27.6516 96.6782 27.6516C98.2059 27.6516 99.4663 27.1551 100.459 26.1621C101.478 25.1436 101.987 23.845 101.987 22.2664C101.987 20.6877 101.478 19.4019 100.459 18.4089C99.4663 17.3904 98.2059 16.8811 96.6782 16.8811C95.1505 16.8811 93.8901 17.3904 92.8971 18.4089C91.9041 19.4019 91.4076 20.6877 91.4076 22.2664C91.4076 23.845 91.9041 25.1436 92.8971 26.1621ZM115.777 18.1415C115.777 18.9563 116.936 19.6565 119.253 20.2421C120.068 20.4204 120.806 20.6368 121.468 20.8914C122.13 21.1206 122.792 21.4643 123.454 21.9226C124.142 22.3555 124.676 22.9411 125.058 23.6795C125.44 24.4179 125.631 25.2709 125.631 26.2385C125.631 28.199 124.893 29.714 123.416 30.7834C121.939 31.8274 120.119 32.3494 117.954 32.3494C114.033 32.3494 111.36 30.8344 109.934 27.8044L114.212 25.3982C114.797 27.0532 116.045 27.8808 117.954 27.8808C119.711 27.8808 120.59 27.3333 120.59 26.2385C120.59 25.4237 119.431 24.7235 117.114 24.1378C116.249 23.9087 115.51 23.6795 114.899 23.4504C114.288 23.2212 113.626 22.8902 112.913 22.4573C112.2 21.999 111.653 21.4261 111.271 20.7387C110.914 20.0257 110.736 19.1982 110.736 18.2561C110.736 16.3719 111.423 14.8951 112.798 13.8257C114.199 12.7308 115.93 12.1834 117.993 12.1834C119.546 12.1834 120.959 12.5399 122.232 13.2528C123.505 13.9403 124.511 14.9333 125.249 16.2319L121.048 18.5235C120.437 17.2249 119.419 16.5756 117.993 16.5756C117.356 16.5756 116.821 16.7284 116.389 17.0339C115.981 17.314 115.777 17.6832 115.777 18.1415ZM139.164 12.7181V17.454H134.848V25.3982C134.848 26.0602 135.013 26.544 135.344 26.8495C135.675 27.1551 136.159 27.3333 136.796 27.3843C137.432 27.4097 138.221 27.397 139.164 27.3461V31.8147C135.828 32.1966 133.447 31.891 132.021 30.898C130.621 29.8795 129.921 28.0463 129.921 25.3982V17.454H126.598V12.7181H129.921V8.8606L134.848 7.37106V12.7181H139.164Z" fill="#0E1F3F"/>
</svg>
