<svg width="22" height="18" viewBox="0 0 22 18" fill="none" xmlns="http://www.w3.org/2000/svg">
<path d="M21.5417 7.96875H12.375V1.09375C12.375 0.903828 12.1699 0.75 11.9167 0.75H10.0833C9.8301 0.75 9.625 0.903828 9.625 1.09375V7.96875H0.458333C0.205104 7.96875 0 8.12258 0 8.3125V9.6875C0 9.87742 0.205104 10.0312 0.458333 10.0312H9.625V16.9062C9.625 17.0962 9.8301 17.25 10.0833 17.25H11.9167C12.1699 17.25 12.375 17.0962 12.375 16.9062V10.0312H21.5417C21.7949 10.0312 22 9.87742 22 9.6875V8.3125C22 8.12258 21.7949 7.96875 21.5417 7.96875Z" fill="black"/>
</svg>
