<svg width="343" height="311" viewBox="0 0 343 311" fill="none" xmlns="http://www.w3.org/2000/svg">
<g filter="url(#filter0_b_2244_3986)">
<rect y="47.0591" width="259.622" height="55.7007" rx="22.4033" transform="rotate(-10.4432 0 47.0591)" fill="#0040FF" fill-opacity="0.04"/>
<path d="M72.0164 55.4091L72.2875 56.8798L68.8281 57.5174L70.7132 67.7451L69.1757 68.0285L67.2906 57.8008L63.8479 58.4353L63.5769 56.9647L72.0164 55.4091ZM80.9009 64.7788C80.1991 65.7836 79.2354 66.399 78.0099 66.6249C76.7843 66.8508 75.6646 66.6194 74.6507 65.9308C73.6479 65.2401 73.0325 64.2764 72.8045 63.0397C72.5766 61.8031 72.808 60.6833 73.4986 59.6805C74.2005 58.6756 75.1641 58.0603 76.3897 57.8344C77.6152 57.6085 78.735 57.8399 79.7489 58.5285C80.7629 59.2171 81.3838 60.1798 81.6117 61.4164C81.8397 62.6531 81.6027 63.7739 80.9009 64.7788ZM77.7481 65.2044C78.5837 65.0503 79.2332 64.6369 79.6967 63.9639C80.1602 63.291 80.3139 62.5312 80.1578 61.6844C80.0017 60.8377 79.5872 60.1826 78.9143 59.7191C78.2414 59.2556 77.4871 59.1009 76.6515 59.2549C75.827 59.4069 75.1831 59.8193 74.7196 60.4922C74.2561 61.1652 74.1024 61.925 74.2585 62.7718C74.4145 63.6185 74.829 64.2736 75.502 64.7371C76.1749 65.2006 76.9236 65.3563 77.7481 65.2044ZM87.1281 55.8551C88.298 55.6395 89.3742 55.8847 90.3568 56.5906C91.3373 57.2854 91.9405 58.2455 92.1664 59.4711C92.3923 60.6966 92.172 61.8143 91.5057 62.8242C90.8373 63.8229 89.9182 64.43 88.7483 64.6456C87.3668 64.9003 86.2123 64.5428 85.2848 63.5733L86.1658 68.3529L84.7119 68.6209L82.5557 56.9225L84.0096 56.6546L84.2745 58.0918C84.7954 56.8553 85.7466 56.1098 87.1281 55.8551ZM88.3058 63.2757C89.1414 63.1217 89.7909 62.7082 90.2544 62.0353C90.7158 61.3512 90.8685 60.5858 90.7124 59.7391C90.5564 58.8923 90.1419 58.2372 89.4689 57.7737C88.7939 57.2991 88.0386 57.1388 87.2031 57.2928C86.3563 57.4489 85.7022 57.869 85.2408 58.553C84.7773 59.226 84.6236 59.9858 84.7797 60.8326C84.9358 61.6793 85.3513 62.34 86.0263 62.8146C86.6992 63.2781 87.459 63.4318 88.3058 63.2757ZM98.8493 62.5592L96.6007 50.3595L98.0547 50.0915L100.303 62.2913L98.8493 62.5592ZM102.894 58.185C103.176 58.9048 103.623 59.4215 104.234 59.7352C104.856 60.0468 105.562 60.1297 106.353 59.9839C107.456 59.7806 108.183 59.2261 108.535 58.3204L109.901 58.7943C109.32 60.2032 108.21 61.0586 106.572 61.3604C105.246 61.6048 104.09 61.3918 103.102 60.7213C102.124 60.0377 101.517 59.0608 101.283 57.7907C101.051 56.5317 101.265 55.4095 101.924 54.424C102.584 53.4385 103.559 52.8266 104.852 52.5884C106.077 52.3625 107.155 52.6133 108.084 53.3406C109.022 54.0547 109.602 55.019 109.826 56.2334C109.865 56.4451 109.889 56.6654 109.896 56.8944L102.894 58.185ZM105.104 53.9588C104.324 54.1026 103.719 54.4445 103.289 54.9846C102.857 55.5136 102.647 56.157 102.66 56.9149L108.242 55.8861C107.973 55.1177 107.55 54.5735 106.973 54.2537C106.396 53.9339 105.773 53.8356 105.104 53.9588ZM116.247 50.7127L117.818 50.4232L116.016 59.3952L114.311 59.7094L109.429 51.9695L111 51.6799L114.877 57.9981L116.247 50.7127ZM120.634 54.9153C120.916 55.6351 121.363 56.1518 121.974 56.4654C122.596 56.777 123.302 56.8599 124.093 56.7141C125.196 56.5108 125.923 55.9563 126.275 55.0506L127.641 55.5246C127.06 56.9335 125.95 57.7888 124.312 58.0907C122.987 58.335 121.83 58.122 120.842 57.4516C119.864 56.7679 119.258 55.7911 119.023 54.5209C118.791 53.262 119.005 52.1397 119.664 51.1542C120.324 50.1687 121.3 49.5569 122.592 49.3187C123.817 49.0928 124.895 49.3435 125.824 50.0709C126.762 50.785 127.343 51.7493 127.566 52.9637C127.605 53.1753 127.629 53.3957 127.636 53.6247L120.634 54.9153ZM122.845 50.6891C122.065 50.8328 121.459 51.1747 121.029 51.7148C120.597 52.2438 120.387 52.8873 120.4 53.6452L125.982 52.6164C125.713 51.8479 125.291 51.3038 124.713 50.984C124.136 50.6642 123.513 50.5659 122.845 50.6891ZM130.005 56.8169L127.756 44.6172L129.21 44.3492L131.459 56.5489L130.005 56.8169ZM141.822 54.8634C140.73 55.0647 139.747 54.9809 138.873 54.6121C138.01 54.2413 137.34 53.639 136.864 52.8052L138.059 51.7901C138.776 53.1208 139.949 53.6363 141.575 53.3365C142.377 53.1886 142.96 52.9141 143.324 52.513C143.686 52.1007 143.817 51.6216 143.716 51.0757C143.613 50.5186 143.325 50.1399 142.85 49.9394C142.375 49.7389 141.613 49.574 140.564 49.4448C140.045 49.3792 139.649 49.3254 139.377 49.2835C139.102 49.2305 138.752 49.1452 138.327 49.0277C137.912 48.8969 137.59 48.7488 137.364 48.5831C137.136 48.4064 136.913 48.1652 136.695 47.8597C136.489 47.5522 136.346 47.1867 136.268 46.7634C136.082 45.7495 136.29 44.8816 136.894 44.1597C137.497 43.4267 138.31 42.9657 139.335 42.7767C140.26 42.6063 141.105 42.6924 141.871 43.0351C142.648 43.3757 143.28 43.8986 143.767 44.6037L142.602 45.596C141.879 44.4851 140.882 44.0467 139.612 44.2808C138.977 44.3979 138.494 44.6483 138.161 45.0321C137.829 45.416 137.712 45.8753 137.81 46.4101C137.905 46.9226 138.16 47.2786 138.577 47.4782C138.994 47.6779 139.681 47.8393 140.637 47.9627C140.978 48.0034 141.22 48.0337 141.362 48.0537C141.504 48.0736 141.724 48.1136 142.023 48.1737C142.333 48.2317 142.562 48.2818 142.708 48.324C142.854 48.3662 143.049 48.428 143.295 48.5095C143.551 48.589 143.746 48.6741 143.878 48.765C144.009 48.8559 144.163 48.9715 144.339 49.1119C144.524 49.2392 144.665 49.3802 144.762 49.535C144.86 49.6898 144.952 49.8745 145.037 50.0891C145.132 50.2905 145.202 50.5138 145.247 50.7589C145.436 51.7839 145.214 52.6716 144.58 53.4219C143.945 54.1611 143.025 54.6416 141.822 54.8634ZM148.085 49.8558C148.367 50.5755 148.814 51.0922 149.425 51.4059C150.046 51.7175 150.753 51.8004 151.544 51.6546C152.647 51.4513 153.374 50.8968 153.726 49.9911L155.092 50.465C154.51 51.8739 153.401 52.7293 151.763 53.0311C150.437 53.2755 149.281 53.0625 148.293 52.392C147.315 51.7084 146.708 50.7315 146.474 49.4614C146.242 48.2024 146.456 47.0802 147.115 46.0947C147.774 45.1092 148.75 44.4974 150.043 44.2592C151.268 44.0333 152.345 44.284 153.274 45.0113C154.212 45.7255 154.793 46.6897 155.017 47.9041C155.056 48.1158 155.079 48.3361 155.087 48.5651L148.085 49.8558ZM150.295 45.6295C149.515 45.7733 148.91 46.1152 148.48 46.6553C148.047 47.1843 147.838 47.8277 147.851 48.5856L153.432 47.5568C153.164 46.7884 152.741 46.2443 152.164 45.9244C151.587 45.6046 150.964 45.5063 150.295 45.6295ZM161.406 51.2538C160.147 51.4858 159.023 51.261 158.034 50.5794C157.042 49.8867 156.431 48.9164 156.201 47.6686C155.971 46.4208 156.197 45.3021 156.878 44.3125C157.558 43.3117 158.527 42.6953 159.786 42.4633C160.611 42.3113 161.388 42.3753 162.12 42.6552C162.849 42.924 163.437 43.3629 163.883 43.9718L162.792 44.8986C162.499 44.4919 162.104 44.196 161.609 44.0107C161.125 43.8234 160.605 43.7811 160.048 43.8838C159.212 44.0378 158.563 44.4513 158.099 45.1242C157.647 45.7951 157.499 46.5539 157.655 47.4006C157.809 48.2362 158.217 48.8868 158.879 49.3523C159.552 49.8158 160.306 49.9705 161.141 49.8165C161.699 49.7139 162.176 49.4933 162.575 49.1549C162.971 48.8054 163.245 48.3862 163.397 47.8975L164.766 48.3881C164.531 49.1112 164.116 49.7349 163.521 50.2592C162.925 50.7723 162.22 51.1039 161.406 51.2538ZM170.804 40.6572L172.258 40.3892L173.798 48.7452L172.344 49.0132L172.122 47.8099C171.706 48.8658 170.891 49.5056 169.677 49.7294C168.696 49.9101 167.854 49.7485 167.151 49.2446C166.445 48.7295 165.995 47.9428 165.8 46.8843L164.854 41.7538L166.308 41.4858L167.239 46.5328C167.364 47.2124 167.645 47.7077 168.083 48.0188C168.518 48.3187 169.059 48.4091 169.705 48.29C170.429 48.1565 170.973 47.8259 171.337 47.2981C171.698 46.7591 171.793 46.0217 171.62 45.0859L170.804 40.6572ZM176.184 41.1171C176.472 39.9926 177.246 39.3144 178.505 39.0823L178.785 40.6031C178.066 40.7011 177.488 41.0035 177.051 41.5101C176.615 42.0168 176.481 42.727 176.649 43.6406L177.465 48.0692L176.011 48.3372L174.471 39.9812L175.925 39.7133L176.184 41.1171ZM180.41 37.3142C180.131 37.3655 179.88 37.314 179.656 37.1595C179.431 37.005 179.295 36.794 179.245 36.5267C179.196 36.2593 179.249 36.0134 179.403 35.7891C179.556 35.5536 179.771 35.4103 180.05 35.3589C180.317 35.3096 180.564 35.3678 180.79 35.5334C181.015 35.6879 181.151 35.8989 181.201 36.1663C181.25 36.4337 181.197 36.6795 181.043 36.9038C180.888 37.1281 180.677 37.2649 180.41 37.3142ZM181.495 47.3265L179.955 38.9705L181.409 38.7025L182.949 47.0585L181.495 47.3265ZM188.431 38.8597L186.209 39.2694L187.043 43.7983C187.119 44.2105 187.252 44.4914 187.441 44.6409C187.639 44.7772 187.906 44.8202 188.242 44.7697C188.576 44.7081 188.986 44.621 189.473 44.5083L189.713 45.8119C188.473 46.2131 187.525 46.2843 186.866 46.0254C186.206 45.7555 185.78 45.1024 185.59 44.0663L184.755 39.5373L183.1 39.8423L182.842 38.4385L184.496 38.1335L184.145 36.2284L185.519 35.5259L185.95 37.8656L188.173 37.4559L188.431 38.8597ZM195.906 36.0305L197.46 35.7441L195.687 45.2465C195.505 46.2592 195.136 47.0702 194.58 47.6795C194.037 48.2979 193.343 48.6563 192.497 48.7546L192.248 47.4009C193.287 47.29 193.934 46.5832 194.19 45.2805L194.281 44.9352L189.104 37.2842L190.658 36.9977L194.707 43.0252L195.906 36.0305Z" fill="black"/>
<circle cx="35.7726" cy="69.265" r="18.8816" transform="rotate(-10.4432 35.7726 69.265)" fill="white"/>
<g clip-path="url(#clip0_2244_3986)">
<path fill-rule="evenodd" clip-rule="evenodd" d="M27.09 64.1302C26.5354 64.3676 26.2002 64.954 26.3095 65.5472L27.018 69.3909C27.8078 73.6763 30.8472 77.2606 35.0423 78.4394C36.2964 78.7917 37.2994 79.031 37.5651 78.982C37.8308 78.9331 38.6817 78.3523 39.7267 77.5765C43.2245 74.9795 44.7852 70.5482 43.9956 66.2638L43.2867 62.4181C43.1774 61.8248 42.6551 61.3965 42.0524 61.3724C41.1187 61.3351 39.7306 61.2248 38.6197 60.9067C37.9632 60.7187 37.2969 60.4777 36.6725 60.2519C35.5342 59.8403 34.5348 59.4789 33.9867 59.58C33.4385 59.681 32.6336 60.3749 31.7169 61.1653C31.214 61.5989 30.6774 62.0615 30.1311 62.4712C29.2065 63.1645 27.949 63.7624 27.09 64.1302ZM38.3606 67.4909C38.5144 67.2524 38.4458 66.9344 38.2073 66.7806C37.9689 66.6268 37.6509 66.6954 37.497 66.9339L35.1693 70.543L33.68 69.5173C33.4462 69.3563 33.1263 69.4153 32.9654 69.649C32.8044 69.8827 32.8634 70.2026 33.0971 70.3635L34.9173 71.6172C35.2136 71.8213 35.62 71.74 35.815 71.4376L38.3606 67.4909Z" fill="#9EB3EE"/>
<path fill-rule="evenodd" clip-rule="evenodd" d="M36.7427 74.5363C39.6449 74.0014 41.5639 71.2151 41.029 68.3129C40.4941 65.4107 37.7078 63.4917 34.8056 64.0266C31.9035 64.5615 29.9844 67.3478 30.5193 70.25C31.0542 73.1521 33.8405 75.0712 36.7427 74.5363ZM38.36 67.4911C38.5138 67.2526 38.4452 66.9346 38.2068 66.7808C37.9683 66.627 37.6503 66.6957 37.4965 66.9341L35.1687 70.5432L33.6794 69.5175C33.4457 69.3566 33.1258 69.4155 32.9648 69.6492C32.8039 69.8829 32.8629 70.2028 33.0965 70.3638L34.9167 71.6174C35.2131 71.8215 35.6194 71.7402 35.8145 71.4379L38.36 67.4911Z" fill="#0E1F3F"/>
</g>
</g>
<g filter="url(#filter1_b_2244_3986)">
<rect x="83.5781" y="108" width="259.622" height="55.7007" rx="22.4033" transform="rotate(2.65253 83.5781 108)" fill="#0040FF" fill-opacity="0.04"/>
<path d="M151.829 132.451L151.759 133.944L148.245 133.782L147.764 144.171L146.202 144.098L146.684 133.709L143.187 133.547L143.256 132.054L151.829 132.451ZM153.331 137.352C153.867 136.322 154.774 135.836 156.053 135.896L155.981 137.44C155.258 137.373 154.627 137.536 154.087 137.931C153.547 138.326 153.255 138.987 153.212 139.915L153.004 144.413L151.527 144.345L151.92 135.857L153.397 135.926L153.331 137.352ZM164.054 136.419L165.531 136.488L165.138 144.975L163.661 144.907L163.728 143.447C162.941 144.533 161.846 145.044 160.442 144.979C159.254 144.924 158.261 144.447 157.463 143.548C156.666 142.638 156.297 141.56 156.354 140.316C156.412 139.071 156.88 138.038 157.757 137.216C158.635 136.384 159.668 135.995 160.856 136.05C162.259 136.115 163.303 136.725 163.986 137.879L164.054 136.419ZM160.695 143.562C161.555 143.602 162.287 143.346 162.891 142.796C163.495 142.234 163.818 141.523 163.857 140.663C163.897 139.803 163.642 139.071 163.092 138.467C162.542 137.852 161.837 137.524 160.977 137.485C160.128 137.445 159.401 137.707 158.797 138.268C158.193 138.819 157.871 139.524 157.831 140.384C157.791 141.244 158.046 141.982 158.596 142.597C159.147 143.201 159.846 143.522 160.695 143.562ZM174.953 133.522L176.43 133.59L175.88 145.473L174.403 145.405L174.471 143.945C173.683 145.031 172.588 145.542 171.184 145.477C169.996 145.422 169.003 144.945 168.206 144.046C167.409 143.136 167.039 142.058 167.097 140.813C167.154 139.568 167.622 138.535 168.499 137.714C169.377 136.881 170.41 136.493 171.598 136.548C173.001 136.613 174.045 137.222 174.729 138.377L174.953 133.522ZM171.437 144.059C172.297 144.099 173.029 143.844 173.633 143.294C174.238 142.732 174.56 142.021 174.6 141.161C174.639 140.301 174.384 139.569 173.834 138.965C173.284 138.35 172.579 138.022 171.719 137.982C170.87 137.943 170.143 138.204 169.539 138.766C168.935 139.316 168.613 140.022 168.573 140.882C168.533 141.742 168.789 142.479 169.338 143.095C169.889 143.699 170.588 144.02 171.437 144.059ZM179.318 142.06C179.43 142.825 179.748 143.429 180.272 143.873C180.807 144.318 181.476 144.559 182.28 144.596C183.4 144.648 184.234 144.272 184.781 143.47L186.005 144.241C185.119 145.482 183.845 146.063 182.181 145.986C180.834 145.924 179.756 145.454 178.946 144.577C178.148 143.69 177.779 142.601 177.839 141.311C177.898 140.032 178.36 138.987 179.226 138.177C180.091 137.367 181.18 136.992 182.493 137.052C183.738 137.11 184.73 137.598 185.47 138.517C186.222 139.425 186.569 140.496 186.512 141.73C186.502 141.945 186.475 142.165 186.431 142.389L179.318 142.06ZM182.428 138.444C181.636 138.408 180.969 138.604 180.428 139.032C179.887 139.449 179.537 140.029 179.378 140.77L185.047 141.032C184.96 140.223 184.672 139.597 184.182 139.155C183.692 138.713 183.107 138.476 182.428 138.444ZM199.679 138.07L201.156 138.138L200.762 146.626L199.286 146.557L199.353 145.098C198.566 146.184 197.47 146.694 196.067 146.629C194.879 146.574 193.886 146.097 193.088 145.199C192.291 144.288 191.921 143.211 191.979 141.966C192.037 140.721 192.504 139.688 193.382 138.867C194.259 138.034 195.292 137.645 196.481 137.701C197.884 137.766 198.927 138.375 199.611 139.53L199.679 138.07ZM196.32 145.212C197.18 145.252 197.912 144.997 198.516 144.446C199.12 143.885 199.442 143.174 199.482 142.314C199.522 141.454 199.267 140.722 198.716 140.118C198.166 139.502 197.461 139.175 196.601 139.135C195.753 139.096 195.026 139.357 194.422 139.919C193.818 140.469 193.496 141.174 193.456 142.034C193.416 142.895 193.671 143.632 194.221 144.247C194.771 144.851 195.471 145.173 196.32 145.212ZM207.63 138.217C208.626 138.263 209.409 138.617 209.98 139.279C210.551 139.929 210.811 140.791 210.761 141.867L210.52 147.078L209.043 147.009L209.281 141.883C209.313 141.193 209.151 140.652 208.794 140.261C208.439 139.859 207.933 139.643 207.276 139.613C206.541 139.579 205.936 139.783 205.462 140.226C204.988 140.658 204.729 141.349 204.685 142.3L204.477 146.798L203 146.73L203.393 138.242L204.87 138.31L204.813 139.533C205.458 138.598 206.397 138.16 207.63 138.217ZM218.717 138.952L220.296 139.025L216.415 147.878C216.008 148.824 215.465 149.53 214.786 149.997C214.117 150.477 213.36 150.669 212.514 150.573L212.577 149.198C213.615 149.325 214.405 148.783 214.949 147.572L215.117 147.257L211.808 138.632L213.387 138.705L215.964 145.493L218.717 138.952ZM231.527 139.545L233.072 139.617L230.048 147.983L228.537 147.913L226.842 141.54L224.565 147.729L223.054 147.659L220.816 139.049L222.361 139.121L223.929 145.658L226.231 139.3L227.657 139.366L229.36 145.926L231.527 139.545ZM238.829 139.662C239.825 139.709 240.608 140.062 241.178 140.724C241.749 141.374 242.01 142.237 241.96 143.312L241.719 148.523L240.242 148.455L240.479 143.328C240.511 142.638 240.349 142.097 239.993 141.707C239.637 141.305 239.131 141.088 238.475 141.058C237.739 141.024 237.135 141.228 236.66 141.671C236.187 142.103 235.928 142.794 235.884 143.745L235.675 148.243L234.199 148.175L234.749 136.292L236.226 136.361L236.012 140.978C236.656 140.044 237.595 139.605 238.829 139.662ZM244.981 145.102C245.093 145.867 245.411 146.471 245.935 146.915C246.47 147.36 247.139 147.601 247.943 147.638C249.063 147.69 249.897 147.314 250.444 146.512L251.668 147.283C250.782 148.524 249.508 149.105 247.844 149.028C246.497 148.966 245.419 148.496 244.609 147.62C243.811 146.732 243.442 145.643 243.502 144.353C243.561 143.074 244.023 142.03 244.889 141.219C245.754 140.409 246.843 140.034 248.156 140.095C249.401 140.152 250.393 140.641 251.133 141.559C251.885 142.467 252.232 143.538 252.175 144.772C252.165 144.987 252.138 145.207 252.094 145.432L244.981 145.102ZM248.091 141.487C247.299 141.45 246.632 141.646 246.091 142.074C245.55 142.492 245.2 143.071 245.041 143.812L250.71 144.075C250.623 143.265 250.335 142.639 249.845 142.197C249.355 141.755 248.77 141.518 248.091 141.487ZM255.481 142.084C256.016 141.054 256.923 140.569 258.202 140.628L258.131 142.173C257.408 142.105 256.777 142.269 256.237 142.663C255.697 143.058 255.405 143.719 255.362 144.647L255.154 149.146L253.677 149.077L254.07 140.59L255.547 140.658L255.481 142.084ZM259.983 145.797C260.095 146.562 260.413 147.167 260.937 147.61C261.472 148.055 262.142 148.296 262.945 148.333C264.065 148.385 264.899 148.009 265.447 147.207L266.67 147.978C265.785 149.219 264.51 149.8 262.847 149.723C261.5 149.661 260.422 149.191 259.612 148.315C258.814 147.427 258.444 146.338 258.504 145.048C258.563 143.769 259.026 142.725 259.891 141.914C260.757 141.104 261.846 140.729 263.158 140.79C264.403 140.847 265.396 141.336 266.136 142.254C266.887 143.163 267.235 144.233 267.178 145.467C267.168 145.682 267.141 145.902 267.096 146.127L259.983 145.797ZM263.094 142.182C262.302 142.145 261.635 142.341 261.093 142.769C260.552 143.187 260.202 143.766 260.043 144.507L265.713 144.77C265.626 143.96 265.337 143.335 264.847 142.892C264.357 142.45 263.773 142.213 263.094 142.182Z" fill="black"/>
<circle cx="113.388" cy="137.734" r="18.8816" transform="rotate(2.65253 113.388 137.734)" fill="white"/>
<circle cx="113.387" cy="137.734" r="15.2518" transform="rotate(2.65253 113.387 137.734)" fill="#F7DDDD"/>
<g clip-path="url(#clip1_2244_3986)">
<path d="M123.387 133.673C122.983 133.886 122.553 134.043 122.107 134.141C122.941 136.148 123.068 138.379 122.468 140.468C121.867 142.557 120.575 144.38 118.803 145.639C117.031 146.897 114.883 147.516 112.713 147.395C110.543 147.273 108.479 146.417 106.858 144.969C105.238 143.52 104.158 141.564 103.795 139.421C103.432 137.278 103.808 135.075 104.861 133.173C105.914 131.272 107.581 129.785 109.59 128.955C111.6 128.126 113.831 128.003 115.919 128.608C115.966 128.154 116.074 127.709 116.241 127.284C113.856 126.606 111.311 126.756 109.022 127.711C106.733 128.666 104.836 130.369 103.64 132.541C102.444 134.713 102.02 137.227 102.437 139.672C102.854 142.116 104.087 144.347 105.936 146C107.785 147.653 110.139 148.63 112.615 148.772C115.091 148.914 117.542 148.213 119.568 146.782C121.593 145.351 123.074 143.276 123.767 140.895C124.461 138.514 124.327 135.968 123.387 133.673Z" fill="#EA1D1D"/>
<path d="M114.347 129.366C115.618 130.586 116.608 132.068 117.25 133.709L113.576 133.914L113.319 129.307L112.296 129.364L112.554 133.978L108.881 134.184C109.337 132.479 110.158 130.893 111.287 129.537C110.7 129.678 110.129 129.882 109.585 130.145C108.774 131.403 108.18 132.788 107.825 134.243L105.528 134.371C105.367 134.74 105.233 135.12 105.127 135.508L107.601 135.37C107.459 136.276 107.412 137.195 107.46 138.112C107.518 139.114 107.688 140.107 107.967 141.071L105.555 141.206C105.717 141.58 105.906 141.942 106.121 142.289L108.322 142.166C108.813 143.448 109.5 144.646 110.36 145.716C110.945 145.929 111.551 146.076 112.169 146.155C110.989 145.004 110.054 143.626 109.42 142.104L113.004 141.904L113.246 146.225L114.268 146.167L114.027 141.847L117.598 141.647C117.136 143.231 116.358 144.704 115.311 145.979C115.918 145.828 116.507 145.61 117.065 145.327C117.799 144.172 118.349 142.91 118.695 141.586L120.876 141.464C121.05 141.102 121.198 140.728 121.319 140.345L118.9 140.48C119.07 139.491 119.128 138.486 119.074 137.483C119.02 136.567 118.871 135.659 118.629 134.773L121.082 134.636C121.035 134.523 120.988 134.416 120.934 134.31C120.092 134.304 119.265 134.089 118.527 133.685L118.281 133.699C118.277 133.624 118.219 133.559 118.194 133.485C117.56 133.075 117.025 132.529 116.627 131.887C116.23 131.245 115.979 130.522 115.895 129.772C115.393 129.588 114.875 129.452 114.347 129.366ZM112.935 140.787L109.023 141.005C108.439 139.156 108.308 137.194 108.642 135.284L112.615 135.062L112.935 140.787ZM118.051 137.52C118.104 138.524 118.034 139.531 117.842 140.519L113.958 140.736L113.639 135.032L117.612 134.81C117.858 135.694 118.005 136.603 118.051 137.52Z" fill="#EA1D1D"/>
<path d="M121.193 132.559C123.075 132.453 124.515 130.843 124.41 128.961C124.305 127.079 122.694 125.638 120.812 125.744C118.93 125.849 117.49 127.46 117.595 129.342C117.7 131.224 119.311 132.664 121.193 132.559Z" fill="#EA1D1D"/>
</g>
</g>
<g filter="url(#filter2_b_2244_3986)">
<rect x="52.0703" y="182" width="259.622" height="55.7007" rx="22.4033" transform="rotate(16.7691 52.0703 182)" fill="#0040FF" fill-opacity="0.04"/>
<path d="M105.188 232.871C104.125 232.551 103.289 232.027 102.68 231.299C102.082 230.574 101.762 229.732 101.719 228.773L103.247 228.417C103.276 229.929 104.083 230.923 105.667 231.4C106.448 231.636 107.092 231.658 107.599 231.468C108.109 231.266 108.444 230.9 108.604 230.369C108.768 229.826 108.684 229.357 108.354 228.962C108.023 228.567 107.421 228.072 106.547 227.477C106.116 227.181 105.788 226.952 105.565 226.79C105.345 226.618 105.073 226.382 104.749 226.083C104.439 225.777 104.221 225.498 104.095 225.247C103.973 224.986 103.885 224.669 103.831 224.298C103.788 223.93 103.829 223.54 103.953 223.128C104.25 222.141 104.833 221.464 105.7 221.099C106.571 220.722 107.505 220.684 108.503 220.985C109.404 221.256 110.116 221.719 110.64 222.374C111.176 223.032 111.499 223.787 111.609 224.636L110.12 224.986C109.985 223.667 109.299 222.822 108.062 222.449C107.444 222.263 106.899 222.264 106.428 222.454C105.957 222.643 105.643 222.998 105.486 223.519C105.335 224.018 105.4 224.451 105.68 224.819C105.959 225.188 106.496 225.645 107.289 226.192C107.574 226.384 107.776 226.522 107.893 226.604C108.01 226.687 108.188 226.824 108.426 227.014C108.675 227.207 108.855 227.356 108.966 227.46C109.076 227.565 109.222 227.709 109.403 227.894C109.595 228.082 109.729 228.246 109.805 228.388C109.88 228.529 109.964 228.702 110.056 228.907C110.162 229.105 110.223 229.295 110.239 229.477C110.256 229.659 110.253 229.865 110.231 230.095C110.223 230.318 110.183 230.548 110.111 230.787C109.81 231.785 109.207 232.473 108.3 232.85C107.397 233.217 106.359 233.224 105.188 232.871ZM120.213 228.294L121.628 228.72L119.177 236.856L117.761 236.429L118.183 235.03C117.154 235.891 115.967 236.119 114.622 235.714C113.483 235.371 112.637 234.666 112.083 233.6C111.532 232.523 111.436 231.387 111.795 230.194C112.155 229.001 112.86 228.113 113.911 227.531C114.966 226.937 116.062 226.812 117.201 227.155C118.546 227.561 119.41 228.407 119.791 229.693L120.213 228.294ZM115.213 234.401C116.038 234.65 116.81 234.58 117.53 234.194C118.253 233.797 118.739 233.186 118.987 232.361C119.235 231.537 119.166 230.765 118.78 230.045C118.397 229.314 117.793 228.825 116.968 228.576C116.155 228.331 115.387 228.407 114.663 228.804C113.944 229.191 113.459 229.796 113.211 230.621C112.963 231.445 113.03 232.223 113.413 232.954C113.8 233.673 114.4 234.156 115.213 234.401ZM128.587 228.528C127.191 227.977 126.289 228.379 125.88 229.735L125.807 229.979L127.955 230.626L127.543 231.993L125.395 231.346L123.355 238.115L121.94 237.688L123.979 230.919L122.678 230.527L123.09 229.161L124.391 229.553L124.465 229.309C124.795 228.213 125.349 227.475 126.126 227.094C126.914 226.716 127.872 226.738 128.999 227.161L128.587 228.528ZM128.158 235.835C128.08 236.604 128.241 237.268 128.641 237.826C129.051 238.388 129.642 238.784 130.412 239.016C131.486 239.34 132.386 239.179 133.113 238.535L134.111 239.581C132.95 240.568 131.572 240.821 129.977 240.341C128.687 239.952 127.755 239.233 127.184 238.186C126.626 237.13 126.534 235.984 126.906 234.748C127.276 233.522 127.979 232.622 129.016 232.047C130.053 231.472 131.2 231.374 132.459 231.753C133.652 232.112 134.495 232.828 134.989 233.9C135.496 234.964 135.572 236.087 135.216 237.269C135.154 237.475 135.074 237.682 134.976 237.889L128.158 235.835ZM132.057 233.087C131.297 232.858 130.603 232.886 129.973 233.169C129.347 233.442 128.866 233.918 128.531 234.598L133.965 236.236C134.078 235.43 133.951 234.752 133.584 234.204C133.216 233.656 132.707 233.283 132.057 233.087ZM149.155 245.374L147.665 245.724L146.883 244.139C145.798 244.676 144.594 244.745 143.271 244.346C142.132 244.003 141.298 243.433 140.769 242.634C140.244 241.825 140.133 240.916 140.437 239.908C140.647 239.213 141.011 238.631 141.532 238.161C142.066 237.683 142.726 237.379 143.511 237.248C143.209 236.483 143.172 235.721 143.401 234.961C143.685 234.018 144.241 233.351 145.069 232.961C145.907 232.575 146.787 232.521 147.709 232.799C148.468 233.027 149.095 233.441 149.589 234.04C150.083 234.638 150.356 235.342 150.408 236.15L148.919 236.5C148.906 235.952 148.753 235.48 148.458 235.083C148.174 234.69 147.788 234.42 147.3 234.273C146.779 234.116 146.287 234.139 145.824 234.343C145.371 234.549 145.069 234.902 144.919 235.401C144.811 235.759 144.795 236.109 144.869 236.451C144.958 236.785 145.116 237.182 145.344 237.641L147.452 241.897C147.893 241.415 148.296 240.785 148.66 240.007L149.736 241.148C149.313 242.002 148.777 242.722 148.127 243.307L149.155 245.374ZM143.735 242.924C144.635 243.196 145.464 243.156 146.22 242.804L144.14 238.574C143.554 238.634 143.078 238.822 142.711 239.137C142.354 239.456 142.111 239.832 141.98 240.266C141.797 240.873 141.859 241.413 142.167 241.884C142.475 242.355 142.997 242.702 143.735 242.924ZM158.29 248.872C157.227 248.552 156.391 248.028 155.782 247.3C155.184 246.576 154.864 245.734 154.822 244.775L156.349 244.418C156.379 245.93 157.185 246.924 158.769 247.402C159.55 247.637 160.194 247.659 160.701 247.469C161.211 247.268 161.547 246.901 161.707 246.37C161.87 245.828 161.787 245.359 161.456 244.963C161.126 244.568 160.523 244.073 159.65 243.478C159.218 243.183 158.891 242.954 158.667 242.792C158.447 242.619 158.175 242.383 157.851 242.084C157.541 241.778 157.323 241.499 157.198 241.249C157.075 240.987 156.987 240.671 156.934 240.299C156.891 239.931 156.931 239.541 157.056 239.129C157.353 238.142 157.935 237.466 158.803 237.1C159.674 236.723 160.608 236.686 161.606 236.986C162.506 237.258 163.219 237.721 163.743 238.376C164.278 239.034 164.601 239.788 164.712 240.638L163.222 240.987C163.087 239.669 162.401 238.823 161.165 238.451C160.546 238.264 160.002 238.266 159.53 238.455C159.059 238.644 158.745 238.999 158.588 239.52C158.438 240.019 158.503 240.453 158.782 240.821C159.062 241.189 159.598 241.647 160.392 242.193C160.677 242.386 160.878 242.523 160.995 242.606C161.112 242.688 161.29 242.825 161.529 243.015C161.778 243.208 161.958 243.357 162.068 243.462C162.179 243.566 162.325 243.71 162.506 243.895C162.698 244.083 162.831 244.248 162.907 244.389C162.983 244.53 163.067 244.703 163.159 244.908C163.265 245.106 163.326 245.296 163.342 245.478C163.358 245.661 163.355 245.867 163.333 246.097C163.325 246.319 163.285 246.55 163.213 246.788C162.913 247.786 162.309 248.474 161.403 248.852C160.499 249.218 159.462 249.225 158.29 248.872ZM166.15 247.283C166.072 248.052 166.233 248.716 166.633 249.274C167.043 249.836 167.633 250.232 168.404 250.464C169.477 250.788 170.378 250.627 171.105 249.983L172.103 251.029C170.941 252.016 169.564 252.269 167.969 251.789C166.678 251.4 165.747 250.681 165.175 249.634C164.618 248.578 164.525 247.432 164.898 246.196C165.267 244.97 165.97 244.07 167.007 243.495C168.044 242.92 169.192 242.822 170.45 243.201C171.643 243.56 172.487 244.276 172.98 245.348C173.488 246.412 173.564 247.535 173.207 248.717C173.145 248.923 173.065 249.13 172.967 249.337L166.15 247.283ZM170.048 244.535C169.289 244.306 168.594 244.334 167.965 244.617C167.338 244.89 166.858 245.366 166.523 246.046L171.957 247.684C172.07 246.878 171.942 246.2 171.575 245.652C171.208 245.104 170.699 244.731 170.048 244.535ZM177.358 254.618C176.132 254.249 175.235 253.535 174.667 252.476C174.101 251.406 174.002 250.264 174.368 249.049C174.734 247.834 175.446 246.943 176.505 246.374C177.567 245.795 178.711 245.69 179.937 246.059C180.739 246.301 181.402 246.714 181.924 247.297C182.45 247.87 182.772 248.529 182.89 249.274L181.497 249.6C181.421 249.104 181.206 248.66 180.85 248.269C180.506 247.882 180.062 247.606 179.52 247.442C178.706 247.197 177.94 247.268 177.22 247.655C176.511 248.044 176.032 248.651 175.784 249.476C175.538 250.289 175.604 251.054 175.979 251.771C176.366 252.491 176.966 252.973 177.779 253.219C178.322 253.382 178.847 253.404 179.357 253.286C179.869 253.156 180.304 252.909 180.663 252.543L181.656 253.606C181.116 254.141 180.462 254.506 179.693 254.701C178.928 254.884 178.15 254.857 177.358 254.618ZM190.561 249.492L191.976 249.918L189.525 258.053L188.109 257.627L188.462 256.455C187.61 257.204 186.592 257.4 185.41 257.044C184.455 256.757 183.78 256.228 183.385 255.458C182.993 254.677 182.953 253.772 183.263 252.741L184.768 247.746L186.184 248.173L184.703 253.086C184.504 253.748 184.528 254.317 184.774 254.794C185.025 255.26 185.464 255.588 186.093 255.777C186.798 255.99 187.433 255.944 187.998 255.641C188.566 255.327 188.987 254.714 189.262 253.803L190.561 249.492ZM195.135 252.361C195.906 251.493 196.904 251.243 198.129 251.612L197.683 253.093C196.999 252.851 196.347 252.856 195.727 253.107C195.107 253.358 194.663 253.928 194.395 254.818L193.096 259.129L191.68 258.703L194.131 250.568L195.547 250.994L195.135 252.361ZM198.596 257.06C198.518 257.829 198.679 258.493 199.079 259.051C199.489 259.613 200.08 260.009 200.85 260.241C201.924 260.565 202.824 260.404 203.551 259.76L204.549 260.806C203.388 261.793 202.01 262.046 200.415 261.566C199.124 261.177 198.193 260.458 197.622 259.411C197.064 258.355 196.972 257.209 197.344 255.973C197.713 254.747 198.417 253.847 199.454 253.272C200.491 252.697 201.638 252.599 202.897 252.978C204.09 253.337 204.933 254.053 205.427 255.125C205.934 256.189 206.01 257.312 205.654 258.494C205.592 258.7 205.512 258.907 205.414 259.114L198.596 257.06ZM202.495 254.312C201.735 254.083 201.041 254.111 200.411 254.394C199.785 254.667 199.304 255.143 198.969 255.823L204.403 257.461C204.516 256.655 204.389 255.977 204.022 255.429C203.654 254.881 203.145 254.508 202.495 254.312Z" fill="black"/>
<circle cx="73.7287" cy="218.106" r="18.8816" transform="rotate(16.7691 73.7287 218.106)" fill="white"/>
<circle cx="73.7288" cy="218.107" r="12.8848" transform="rotate(16.7691 73.7288 218.107)" fill="#E6FFCB"/>
<path d="M78.6917 219.265L80.2432 216.244C81.5934 213.615 80.6116 210.393 78.0615 209.083C76.831 208.456 75.3945 208.356 74.0657 208.805C72.737 209.254 71.624 210.216 70.97 211.481L69.4185 214.502C68.2838 215.119 67.3075 216.077 66.6665 217.325C66.1938 218.243 65.9377 219.256 65.9189 220.281C65.9001 221.307 66.1191 222.317 66.5582 223.23C66.9973 224.142 67.6441 224.93 68.4462 225.531C69.2482 226.132 70.1828 226.529 71.1743 226.689C72.1657 226.849 73.1861 226.768 74.1524 226.452C75.1188 226.136 76.0041 225.595 76.7364 224.872C77.4686 224.148 78.0273 223.264 78.367 222.29C78.7068 221.315 78.818 220.279 78.6917 219.265ZM73.0307 212.54C73.7808 211.079 75.5537 210.48 76.9704 211.207C78.3872 211.935 78.9326 213.725 78.1825 215.186L77.5797 216.359C76.9993 215.528 76.2293 214.855 75.3334 214.394C74.4375 213.934 73.4415 213.701 72.4279 213.713L73.0307 212.54ZM69.7884 222.622L68.5739 218.682L70.1498 218.149L70.8572 220.491L76.3926 218.67L76.8774 220.262L69.7884 222.622Z" fill="#00BC13"/>
</g>
<defs>
<filter id="filter0_b_2244_3986" x="-4.39266" y="-4.39266" width="274.203" height="110.622" filterUnits="userSpaceOnUse" color-interpolation-filters="sRGB">
<feFlood flood-opacity="0" result="BackgroundImageFix"/>
<feGaussianBlur in="BackgroundImage" stdDeviation="2.19633"/>
<feComposite in2="SourceAlpha" operator="in" result="effect1_backgroundBlur_2244_3986"/>
<feBlend mode="normal" in="SourceGraphic" in2="effect1_backgroundBlur_2244_3986" result="shape"/>
</filter>
<filter id="filter1_b_2244_3986" x="76.6073" y="103.607" width="270.707" height="76.4416" filterUnits="userSpaceOnUse" color-interpolation-filters="sRGB">
<feFlood flood-opacity="0" result="BackgroundImageFix"/>
<feGaussianBlur in="BackgroundImage" stdDeviation="2.19633"/>
<feComposite in2="SourceAlpha" operator="in" result="effect1_backgroundBlur_2244_3986"/>
<feBlend mode="normal" in="SourceGraphic" in2="effect1_backgroundBlur_2244_3986" result="shape"/>
</filter>
<filter id="filter2_b_2244_3986" x="31.6073" y="177.607" width="273.438" height="137.022" filterUnits="userSpaceOnUse" color-interpolation-filters="sRGB">
<feFlood flood-opacity="0" result="BackgroundImageFix"/>
<feGaussianBlur in="BackgroundImage" stdDeviation="2.19633"/>
<feComposite in2="SourceAlpha" operator="in" result="effect1_backgroundBlur_2244_3986"/>
<feBlend mode="normal" in="SourceGraphic" in2="effect1_backgroundBlur_2244_3986" result="shape"/>
</filter>
<clipPath id="clip0_2244_3986">
<rect width="20.1404" height="20.1404" fill="white" transform="translate(24.043 61.187) rotate(-10.4432)"/>
</clipPath>
<clipPath id="clip1_2244_3986">
<rect width="24.5728" height="24.5728" fill="white" transform="translate(100.328 126.205) rotate(-3.20051)"/>
</clipPath>
</defs>
</svg>
