<svg width="682" height="384" viewBox="0 0 682 384" fill="none" xmlns="http://www.w3.org/2000/svg">
<g filter="url(#filter0_b_2244_3985)">
<rect y="67.717" width="373.59" height="80.152" rx="32.2378" transform="rotate(-10.4432 0 67.717)" fill="#0040FF" fill-opacity="0.04"/>
<path d="M103.568 79.3985L103.958 81.5147L98.9798 82.4322L101.692 97.1497L99.48 97.5575L96.7674 82.84L91.8135 83.7531L91.4234 81.6369L103.568 79.3985ZM116.352 92.8812C115.342 94.3271 113.956 95.2126 112.192 95.5377C110.429 95.8627 108.817 95.5298 107.358 94.5389C105.915 93.545 105.03 92.1583 104.702 90.3787C104.374 88.5992 104.707 86.9879 105.701 85.5449C106.711 84.0989 108.097 83.2134 109.861 82.8884C111.624 82.5633 113.236 82.8963 114.695 83.8872C116.154 84.8781 117.047 86.2633 117.375 88.0429C117.703 89.8224 117.362 91.4352 116.352 92.8812ZM111.815 93.4936C113.018 93.272 113.953 92.677 114.619 91.7086C115.286 90.7403 115.508 89.6469 115.283 88.4285C115.058 87.21 114.462 86.2674 113.494 85.6004C112.525 84.9335 111.44 84.7108 110.238 84.9325C109.051 85.1511 108.124 85.7446 107.458 86.713C106.791 87.6813 106.569 88.7747 106.794 89.9931C107.019 91.2116 107.615 92.1542 108.583 92.8212C109.552 93.4881 110.629 93.7122 111.815 93.4936ZM125.313 80.0403C126.997 79.73 128.545 80.0828 129.959 81.0986C131.37 82.0984 132.238 83.48 132.563 85.2435C132.888 87.0071 132.571 88.6154 131.612 90.0685C130.651 91.5056 129.328 92.3793 127.645 92.6896C125.657 93.056 123.995 92.5416 122.661 91.1465L123.928 98.0243L121.836 98.4099L118.734 81.5762L120.826 81.1906L121.207 83.2588C121.956 81.4795 123.325 80.4067 125.313 80.0403ZM127.008 90.7183C128.21 90.4967 129.145 89.9017 129.812 88.9334C130.476 87.949 130.695 86.8476 130.471 85.6292C130.246 84.4107 129.65 83.468 128.682 82.8011C127.71 82.1181 126.623 81.8875 125.421 82.1091C124.203 82.3337 123.261 82.9381 122.597 83.9225C121.93 84.8908 121.709 85.9842 121.934 87.2027C122.158 88.4211 122.756 89.3718 123.728 90.0548C124.696 90.7217 125.789 90.9429 127.008 90.7183ZM142.18 89.6873L138.944 72.1322L141.036 71.7466L144.272 89.3017L142.18 89.6873ZM148 83.3929C148.406 84.4287 149.049 85.1722 149.928 85.6236C150.823 86.072 151.839 86.1912 152.977 85.9814C154.565 85.6889 155.611 84.891 156.117 83.5877L158.083 84.2697C157.246 86.297 155.65 87.5279 153.293 87.9623C151.385 88.3139 149.721 88.0073 148.3 87.0426C146.892 86.0588 146.019 84.6531 145.682 82.8255C145.348 81.0139 145.656 79.399 146.604 77.9809C147.553 76.5628 148.957 75.6823 150.817 75.3396C152.581 75.0145 154.131 75.3753 155.467 76.4219C156.817 77.4495 157.653 78.8371 157.975 80.5846C158.031 80.8892 158.065 81.2063 158.076 81.5358L148 83.3929ZM151.181 77.3115C150.058 77.5183 149.188 78.0104 148.568 78.7876C147.946 79.5488 147.644 80.4747 147.663 81.5653L155.695 80.0849C155.309 78.9791 154.7 78.1961 153.87 77.7359C153.039 77.2757 152.142 77.1342 151.181 77.3115ZM167.215 72.6405L169.475 72.2238L166.882 85.1344L164.429 85.5865L157.403 74.4489L159.664 74.0322L165.243 83.1239L167.215 72.6405ZM173.527 78.6878C173.934 79.7236 174.576 80.4671 175.455 80.9185C176.35 81.3669 177.367 81.4862 178.505 81.2764C180.092 80.9838 181.139 80.1859 181.644 78.8826L183.61 79.5646C182.774 81.5919 181.177 82.8228 178.82 83.2572C176.913 83.6088 175.248 83.3022 173.827 82.3375C172.419 81.3538 171.547 79.9481 171.21 78.1204C170.876 76.3088 171.183 74.6939 172.132 73.2758C173.081 71.8577 174.485 70.9772 176.345 70.6345C178.108 70.3094 179.658 70.6702 180.995 71.7168C182.345 72.7444 183.181 74.132 183.503 75.8795C183.559 76.1841 183.593 76.5012 183.604 76.8307L173.527 78.6878ZM176.708 72.6064C175.586 72.8133 174.715 73.3053 174.096 74.0825C173.474 74.8437 173.172 75.7696 173.191 76.8602L181.223 75.3798C180.836 74.274 180.228 73.491 179.397 73.0308C178.566 72.5706 177.67 72.4291 176.708 72.6064ZM187.012 81.4242L183.776 63.8691L185.868 63.4835L189.104 81.0386L187.012 81.4242ZM204.016 78.6132C202.445 78.9028 201.031 78.7823 199.772 78.2516C198.53 77.718 197.567 76.8513 196.881 75.6515L198.601 74.1907C199.634 76.1056 201.321 76.8474 203.661 76.416C204.816 76.2032 205.654 75.8082 206.178 75.231C206.699 74.6377 206.886 73.9483 206.742 73.1628C206.594 72.3612 206.178 71.8161 205.495 71.5276C204.812 71.2391 203.716 71.0019 202.206 70.816C201.46 70.7215 200.89 70.6442 200.498 70.5839C200.102 70.5075 199.599 70.3848 198.988 70.2157C198.389 70.0276 197.927 69.8144 197.602 69.576C197.273 69.3216 196.952 68.9747 196.639 68.5351C196.342 68.0925 196.137 67.5666 196.025 66.9574C195.756 65.4985 196.056 64.2496 196.926 63.2108C197.792 62.156 198.963 61.4926 200.438 61.2208C201.768 60.9755 202.985 61.0994 204.087 61.5925C205.205 62.0827 206.114 62.835 206.815 63.8497L205.139 65.2775C204.099 63.679 202.664 63.0482 200.837 63.3851C199.923 63.5535 199.227 63.9139 198.748 64.4662C198.27 65.0185 198.102 65.6795 198.244 66.449C198.38 67.1865 198.747 67.6989 199.347 67.9861C199.947 68.2734 200.935 68.5057 202.311 68.6832C202.802 68.7418 203.15 68.7855 203.354 68.8141C203.558 68.8428 203.876 68.9003 204.306 68.9868C204.752 69.0703 205.081 69.1424 205.291 69.2031C205.501 69.2639 205.782 69.3529 206.136 69.4701C206.505 69.5844 206.784 69.7069 206.974 69.8377C207.164 69.9685 207.385 70.1349 207.638 70.337C207.904 70.5201 208.107 70.723 208.248 70.9457C208.388 71.1685 208.52 71.4343 208.643 71.7431C208.78 72.0329 208.88 72.3542 208.945 72.7069C209.217 74.1818 208.897 75.4592 207.986 76.5389C207.071 77.6026 205.748 78.2941 204.016 78.6132ZM213.028 71.4073C213.435 72.443 214.077 73.1866 214.956 73.6379C215.851 74.0863 216.868 74.2056 218.006 73.9958C219.593 73.7033 220.64 72.9053 221.145 71.602L223.111 72.2841C222.275 74.3114 220.678 75.5422 218.321 75.9766C216.413 76.3283 214.749 76.0217 213.328 75.0569C211.92 74.0732 211.048 72.6675 210.711 70.8399C210.377 69.0282 210.684 67.4134 211.633 65.9952C212.582 64.5771 213.986 63.6967 215.846 63.3539C217.609 63.0289 219.159 63.3897 220.496 64.4363C221.846 65.4639 222.682 66.8515 223.004 68.5989C223.06 68.9036 223.093 69.2206 223.104 69.5501L213.028 71.4073ZM216.209 65.3259C215.087 65.5327 214.216 66.0247 213.597 66.8019C212.975 67.5631 212.673 68.489 212.691 69.5796L220.723 68.0992C220.337 66.9934 219.729 66.2105 218.898 65.7502C218.067 65.29 217.171 65.1486 216.209 65.3259ZM232.198 73.419C230.386 73.7529 228.768 73.4295 227.344 72.4487C225.917 71.4519 225.038 70.0556 224.707 68.2601C224.376 66.4645 224.701 64.8547 225.682 63.4306C226.66 61.9906 228.055 61.1036 229.866 60.7697C231.053 60.551 232.172 60.6431 233.224 61.0459C234.274 61.4327 235.119 62.0642 235.762 62.9404L234.192 64.274C233.769 63.6889 233.202 63.263 232.49 62.9964C231.794 62.7269 231.045 62.666 230.243 62.8138C229.041 63.0354 228.106 63.6304 227.439 64.5987C226.788 65.5641 226.575 66.656 226.8 67.8744C227.021 69.0768 227.608 70.013 228.561 70.6829C229.529 71.3498 230.614 71.5725 231.817 71.3509C232.618 71.2031 233.306 70.8858 233.879 70.3988C234.449 69.8959 234.844 69.2927 235.062 68.5894L237.032 69.2954C236.694 70.3359 236.097 71.2333 235.241 71.9878C234.383 72.7262 233.368 73.2033 232.198 73.419ZM245.721 58.1708L247.813 57.7852L250.029 69.8092L247.937 70.1948L247.618 68.4634C247.019 69.9827 245.846 70.9034 244.099 71.2255C242.688 71.4855 241.476 71.253 240.464 70.5278C239.449 69.7866 238.801 68.6545 238.52 67.1315L237.159 59.7487L239.252 59.3631L240.59 66.6256C240.77 67.6036 241.175 68.3163 241.805 68.7639C242.431 69.1955 243.21 69.3256 244.14 69.1542C245.182 68.9621 245.964 68.4863 246.487 67.7268C247.007 66.9513 247.143 65.8902 246.895 64.5435L245.721 58.1708ZM253.463 58.8325C253.877 57.2145 254.99 56.2385 256.802 55.9046L257.205 58.093C256.17 58.234 255.339 58.669 254.711 59.3982C254.082 60.1273 253.89 61.1491 254.132 62.4638L255.306 68.8365L253.214 69.2221L250.998 57.1981L253.09 56.8125L253.463 58.8325ZM259.544 53.3603C259.143 53.4342 258.781 53.36 258.458 53.1376C258.135 52.9153 257.939 52.6118 257.868 52.227C257.797 51.8423 257.872 51.4885 258.095 51.1657C258.314 50.8269 258.624 50.6206 259.025 50.5467C259.41 50.4758 259.765 50.5595 260.091 50.7978C260.414 51.0201 260.61 51.3237 260.681 51.7084C260.752 52.0932 260.677 52.447 260.454 52.7698C260.232 53.0925 259.928 53.2894 259.544 53.3603ZM261.105 67.7678L258.889 55.7437L260.981 55.3581L263.197 67.3821L261.105 67.7678ZM271.086 55.5842L267.888 56.1737L269.089 62.6908C269.198 63.2839 269.389 63.6881 269.661 63.9033C269.945 64.0994 270.33 64.1612 270.814 64.0886C271.295 63.9999 271.885 63.8746 272.584 63.7125L272.93 65.5882C271.147 66.1656 269.781 66.268 268.834 65.8956C267.884 65.5071 267.272 64.5674 266.997 63.0764L265.796 56.5593L263.415 56.9982L263.043 54.9781L265.423 54.5393L264.918 51.7978L266.895 50.787L267.515 54.1537L270.714 53.5642L271.086 55.5842ZM281.842 51.5131L284.078 51.1009L281.526 64.7747C281.264 66.2319 280.734 67.399 279.934 68.2758C279.153 69.1657 278.154 69.6813 276.937 69.8228L276.578 67.8749C278.073 67.7153 279.005 66.6982 279.372 64.8236L279.504 64.3268L272.054 53.3171L274.291 52.9049L280.117 61.5782L281.842 51.5131Z" fill="black"/>
<circle cx="51.4751" cy="99.6712" r="27.1702" transform="rotate(-10.4432 51.4751 99.6712)" fill="white"/>
<g clip-path="url(#clip0_2244_3985)">
<path fill-rule="evenodd" clip-rule="evenodd" d="M38.9783 92.2824C38.1803 92.624 37.6978 93.4677 37.8552 94.3214L38.8746 99.8524C40.0112 106.019 44.3848 111.177 50.4215 112.873C52.226 113.38 53.6694 113.724 54.0518 113.654C54.4341 113.583 55.6585 112.748 57.1622 111.631C62.1955 107.894 64.4413 101.518 63.305 95.3527L62.285 89.8187C62.1277 88.965 61.3761 88.3487 60.5088 88.314C59.1653 88.2603 57.1678 88.1016 55.5692 87.6438C54.6245 87.3733 53.6658 87.0266 52.7672 86.7017C51.1292 86.1094 49.6912 85.5893 48.9024 85.7347C48.1136 85.8801 46.9555 86.8786 45.6363 88.016C44.9126 88.6399 44.1404 89.3056 43.3543 89.8952C42.0239 90.8928 40.2144 91.7532 38.9783 92.2824ZM55.1964 97.1183C55.4177 96.7752 55.319 96.3176 54.9758 96.0963C54.6327 95.8749 54.1751 95.9737 53.9538 96.3169L50.6041 101.51L48.4611 100.034C48.1248 99.8027 47.6644 99.8875 47.4328 100.224C47.2012 100.56 47.2861 101.02 47.6223 101.252L50.2416 103.056C50.668 103.35 51.2528 103.233 51.5334 102.798L55.1964 97.1183Z" fill="#9EB3EE"/>
<path fill-rule="evenodd" clip-rule="evenodd" d="M52.8705 107.256C57.0467 106.486 59.8081 102.477 59.0384 98.3008C58.2687 94.1246 54.2593 91.3632 50.0831 92.1329C45.9069 92.9026 43.1455 96.9121 43.9152 101.088C44.6849 105.264 48.6943 108.026 52.8705 107.256ZM55.1978 97.1182C55.4191 96.7751 55.3204 96.3175 54.9772 96.0962C54.6341 95.8749 54.1765 95.9737 53.9552 96.3168L50.6055 101.51L48.4625 100.034C48.1262 99.8026 47.6658 99.8875 47.4342 100.224C47.2026 100.56 47.2875 101.02 47.6237 101.252L50.243 103.056C50.6694 103.35 51.2542 103.233 51.5348 102.798L55.1978 97.1182Z" fill="#0E1F3F"/>
</g>
</g>
<g filter="url(#filter1_b_2244_3985)">
<rect x="308.709" y="102" width="373.59" height="80.152" rx="32.2378" transform="rotate(2.65253 308.709 102)" fill="#0040FF" fill-opacity="0.04"/>
<path d="M406.935 136.844L406.836 138.993L401.779 138.759L401.087 153.708L398.839 153.604L399.532 138.655L394.5 138.422L394.6 136.272L406.935 136.844ZM409.097 143.896C409.868 142.414 411.173 141.716 413.013 141.801L412.91 144.024C411.87 143.927 410.962 144.162 410.185 144.73C409.408 145.298 408.988 146.249 408.927 147.584L408.627 154.058L406.502 153.959L407.067 141.746L409.193 141.844L409.097 143.896ZM424.527 142.555L426.652 142.653L426.087 154.867L423.961 154.768L424.059 152.667C422.926 154.23 421.349 154.965 419.33 154.872C417.62 154.793 416.191 154.106 415.044 152.813C413.897 151.503 413.365 149.952 413.448 148.161C413.531 146.37 414.203 144.883 415.466 143.701C416.729 142.503 418.215 141.944 419.925 142.023C421.945 142.117 423.446 142.994 424.43 144.655L424.527 142.555ZM419.694 152.832C420.931 152.89 421.985 152.522 422.854 151.73C423.724 150.922 424.187 149.899 424.244 148.661C424.302 147.424 423.934 146.37 423.142 145.501C422.351 144.616 421.337 144.145 420.099 144.087C418.878 144.031 417.832 144.407 416.962 145.215C416.093 146.007 415.63 147.022 415.573 148.26C415.515 149.497 415.882 150.559 416.674 151.444C417.466 152.313 418.472 152.776 419.694 152.832ZM440.211 138.385L442.336 138.484L441.544 155.583L439.419 155.484L439.516 153.383C438.383 154.947 436.807 155.681 434.788 155.588C433.078 155.509 431.649 154.822 430.501 153.529C429.354 152.219 428.822 150.669 428.905 148.877C428.988 147.086 429.661 145.599 430.923 144.418C432.187 143.22 433.673 142.66 435.383 142.739C437.402 142.833 438.904 143.71 439.888 145.371L440.211 138.385ZM435.151 153.548C436.389 153.606 437.442 153.238 438.311 152.446C439.181 151.638 439.645 150.615 439.702 149.377C439.759 148.14 439.392 147.087 438.6 146.218C437.809 145.332 436.794 144.861 435.557 144.804C434.335 144.747 433.29 145.123 432.42 145.931C431.551 146.723 431.088 147.738 431.03 148.976C430.973 150.213 431.34 151.275 432.131 152.16C432.923 153.029 433.93 153.492 435.151 153.548ZM446.492 150.671C446.653 151.772 447.11 152.642 447.864 153.281C448.634 153.92 449.597 154.267 450.753 154.32C452.366 154.395 453.566 153.855 454.354 152.7L456.114 153.81C454.84 155.595 453.006 156.432 450.612 156.321C448.674 156.231 447.122 155.555 445.957 154.294C444.808 153.017 444.277 151.45 444.363 149.593C444.448 147.753 445.114 146.25 446.359 145.084C447.604 143.917 449.172 143.378 451.061 143.466C452.852 143.549 454.28 144.251 455.345 145.573C456.427 146.88 456.926 148.421 456.844 150.196C456.83 150.506 456.791 150.822 456.727 151.145L446.492 150.671ZM450.968 145.469C449.828 145.416 448.868 145.698 448.089 146.314C447.31 146.915 446.807 147.748 446.578 148.815L454.736 149.193C454.611 148.028 454.196 147.128 453.491 146.491C452.786 145.855 451.945 145.514 450.968 145.469ZM475.791 144.93L477.916 145.028L477.35 157.241L475.225 157.143L475.322 155.042C474.189 156.605 472.613 157.34 470.593 157.247C468.883 157.167 467.455 156.481 466.307 155.188C465.16 153.878 464.628 152.327 464.711 150.536C464.794 148.745 465.467 147.258 466.729 146.076C467.992 144.878 469.479 144.319 471.189 144.398C473.208 144.492 474.709 145.369 475.693 147.03L475.791 144.93ZM470.957 155.207C472.195 155.265 473.248 154.897 474.117 154.105C474.987 153.297 475.45 152.274 475.508 151.036C475.565 149.799 475.198 148.745 474.406 147.876C473.614 146.991 472.6 146.52 471.362 146.462C470.141 146.406 469.095 146.782 468.226 147.59C467.357 148.382 466.893 149.397 466.836 150.635C466.779 151.872 467.146 152.934 467.937 153.819C468.729 154.688 469.736 155.151 470.957 155.207ZM487.232 145.141C488.666 145.208 489.792 145.717 490.613 146.669C491.435 147.605 491.81 148.846 491.738 150.393L491.391 157.892L489.266 157.794L489.607 150.417C489.653 149.423 489.42 148.645 488.908 148.083C488.396 147.505 487.668 147.193 486.723 147.15C485.665 147.101 484.794 147.395 484.112 148.032C483.43 148.653 483.058 149.648 482.995 151.016L482.695 157.489L480.57 157.391L481.135 145.177L483.261 145.276L483.179 147.034C484.106 145.69 485.457 145.059 487.232 145.141ZM503.186 146.199L505.458 146.304L499.874 159.044C499.288 160.404 498.507 161.42 497.529 162.093C496.567 162.783 495.477 163.059 494.26 162.921L494.351 160.942C495.844 161.126 496.982 160.346 497.764 158.603L498.006 158.149L493.244 145.738L495.516 145.843L499.225 155.611L503.186 146.199ZM521.62 147.053L523.843 147.156L519.491 159.194L517.317 159.093L514.877 149.923L511.601 158.828L509.427 158.728L506.206 146.339L508.429 146.442L510.686 155.848L513.998 146.7L516.05 146.795L518.502 156.235L521.62 147.053ZM532.127 147.221C533.56 147.288 534.687 147.797 535.507 148.749C536.329 149.684 536.704 150.926 536.632 152.473L536.285 159.972L534.16 159.873L534.501 152.496C534.547 151.503 534.314 150.725 533.802 150.163C533.29 149.584 532.562 149.273 531.617 149.229C530.559 149.18 529.688 149.475 529.006 150.112C528.325 150.733 527.952 151.728 527.889 153.096L527.589 159.569L525.464 159.471L526.256 142.372L528.381 142.47L528.073 149.114C529 147.77 530.352 147.139 532.127 147.221ZM540.979 155.049C541.14 156.15 541.598 157.019 542.352 157.658C543.122 158.298 544.085 158.644 545.241 158.698C546.853 158.772 548.053 158.232 548.841 157.077L550.601 158.187C549.327 159.972 547.493 160.809 545.099 160.698C543.161 160.609 541.61 159.933 540.444 158.671C539.296 157.394 538.764 155.827 538.851 153.971C538.936 152.131 539.601 150.627 540.846 149.461C542.092 148.295 543.659 147.756 545.548 147.843C547.339 147.926 548.767 148.629 549.832 149.951C550.914 151.258 551.414 152.799 551.332 154.574C551.317 154.883 551.278 155.199 551.214 155.523L540.979 155.049ZM545.455 149.846C544.315 149.793 543.356 150.075 542.576 150.692C541.798 151.292 541.294 152.126 541.065 153.192L549.224 153.57C549.098 152.406 548.683 151.505 547.978 150.869C547.273 150.232 546.432 149.891 545.455 149.846ZM556.089 150.706C556.859 149.224 558.164 148.525 560.004 148.611L559.901 150.834C558.861 150.736 557.953 150.972 557.176 151.54C556.399 152.107 555.98 153.059 555.918 154.394L555.618 160.868L553.493 160.769L554.058 148.556L556.184 148.654L556.089 150.706ZM562.568 156.049C562.729 157.15 563.186 158.019 563.94 158.658C564.71 159.298 565.673 159.644 566.829 159.698C568.441 159.773 569.641 159.232 570.429 158.078L572.189 159.187C570.915 160.972 569.081 161.809 566.688 161.699C564.75 161.609 563.198 160.933 562.032 159.671C560.884 158.394 560.353 156.827 560.439 154.971C560.524 153.131 561.189 151.628 562.435 150.461C563.68 149.295 565.247 148.756 567.136 148.843C568.928 148.926 570.356 149.629 571.42 150.951C572.502 152.258 573.002 153.799 572.92 155.574C572.905 155.883 572.866 156.2 572.802 156.523L562.568 156.049ZM567.043 150.846C565.904 150.793 564.944 151.075 564.165 151.692C563.386 152.292 562.882 153.126 562.654 154.192L570.812 154.57C570.687 153.406 570.271 152.505 569.566 151.869C568.862 151.232 568.021 150.891 567.043 150.846Z" fill="black"/>
<circle cx="351.606" cy="144.787" r="27.1702" transform="rotate(2.65253 351.606 144.787)" fill="white"/>
<circle cx="351.607" cy="144.787" r="21.947" transform="rotate(2.65253 351.607 144.787)" fill="#F7DDDD"/>
<g clip-path="url(#clip1_2244_3985)">
<path d="M365.993 138.944C365.413 139.25 364.793 139.476 364.152 139.617C365.352 142.506 365.534 145.716 364.671 148.722C363.807 151.728 361.947 154.351 359.397 156.162C356.847 157.973 353.757 158.864 350.634 158.689C347.512 158.513 344.541 157.283 342.209 155.198C339.878 153.113 338.323 150.298 337.801 147.214C337.279 144.131 337.82 140.961 339.335 138.225C340.85 135.489 343.25 133.348 346.141 132.155C349.032 130.961 352.242 130.785 355.247 131.655C355.315 131.002 355.471 130.361 355.711 129.75C352.278 128.774 348.616 128.991 345.323 130.364C342.029 131.738 339.299 134.189 337.578 137.315C335.857 140.441 335.246 144.058 335.846 147.576C336.447 151.093 338.222 154.304 340.882 156.682C343.542 159.061 346.931 160.467 350.493 160.671C354.056 160.875 357.583 159.866 360.497 157.807C363.412 155.748 365.542 152.761 366.541 149.335C367.539 145.909 367.346 142.246 365.993 138.944Z" fill="#EA1D1D"/>
<path d="M352.985 132.745C354.813 134.502 356.238 136.634 357.161 138.995L351.875 139.29L351.505 132.661L350.034 132.743L350.405 139.382L345.119 139.678C345.775 137.224 346.956 134.943 348.582 132.991C347.736 133.194 346.915 133.487 346.132 133.866C344.966 135.677 344.109 137.67 343.599 139.763L340.294 139.948C340.063 140.478 339.87 141.025 339.716 141.583L343.276 141.384C343.072 142.689 343.004 144.012 343.074 145.331C343.157 146.773 343.402 148.201 343.804 149.589L340.332 149.783C340.566 150.321 340.838 150.842 341.147 151.341L344.315 151.164C345.021 153.009 346.01 154.733 347.247 156.273C348.089 156.579 348.962 156.791 349.85 156.904C348.152 155.248 346.806 153.265 345.894 151.075L351.052 150.787L351.4 157.005L352.871 156.922L352.523 150.705L357.662 150.417C356.997 152.696 355.878 154.817 354.371 156.651C355.245 156.434 356.092 156.119 356.896 155.713C357.952 154.051 358.743 152.235 359.241 150.329L362.379 150.154C362.63 149.633 362.843 149.095 363.017 148.544L359.536 148.739C359.78 147.315 359.864 145.868 359.786 144.426C359.709 143.107 359.494 141.8 359.145 140.527L362.676 140.329C362.608 140.166 362.54 140.012 362.463 139.859C361.252 139.851 360.061 139.542 358.999 138.961L358.646 138.98C358.64 138.873 358.556 138.779 358.52 138.673C357.608 138.082 356.838 137.297 356.266 136.373C355.693 135.449 355.333 134.409 355.211 133.329C354.489 133.065 353.744 132.869 352.985 132.745ZM350.953 149.179L345.324 149.494C344.482 146.834 344.294 144.01 344.775 141.261L350.492 140.942L350.953 149.179ZM358.314 144.478C358.39 145.924 358.289 147.373 358.014 148.794L352.424 149.107L351.965 140.899L357.683 140.579C358.036 141.851 358.248 143.159 358.314 144.478Z" fill="#EA1D1D"/>
<path d="M362.835 137.34C365.543 137.188 367.615 134.87 367.464 132.162C367.312 129.454 364.994 127.381 362.286 127.533C359.578 127.684 357.506 130.002 357.657 132.71C357.808 135.418 360.127 137.491 362.835 137.34Z" fill="#EA1D1D"/>
</g>
</g>
<g filter="url(#filter2_b_2244_3985)">
<rect x="131.125" y="199" width="373.59" height="80.152" rx="32.2378" transform="rotate(16.7691 131.125 199)" fill="#0040FF" fill-opacity="0.04"/>
<path d="M207.66 271.876C206.13 271.415 204.927 270.661 204.051 269.614C203.19 268.571 202.73 267.36 202.669 265.979L204.866 265.467C204.909 267.642 206.07 269.073 208.349 269.759C209.473 270.098 210.399 270.13 211.129 269.857C211.863 269.567 212.345 269.04 212.576 268.275C212.811 267.495 212.691 266.82 212.215 266.251C211.74 265.682 210.873 264.97 209.616 264.114C208.995 263.689 208.524 263.359 208.202 263.126C207.886 262.878 207.494 262.538 207.028 262.108C206.582 261.667 206.268 261.267 206.088 260.906C205.912 260.529 205.785 260.074 205.708 259.54C205.646 259.01 205.704 258.449 205.883 257.856C206.311 256.435 207.149 255.462 208.397 254.936C209.65 254.394 210.995 254.339 212.431 254.772C213.726 255.162 214.751 255.829 215.506 256.771C216.276 257.719 216.741 258.804 216.9 260.026L214.757 260.53C214.562 258.632 213.575 257.415 211.796 256.879C210.906 256.611 210.122 256.613 209.444 256.886C208.766 257.158 208.314 257.669 208.089 258.418C207.872 259.136 207.965 259.76 208.367 260.29C208.77 260.82 209.542 261.478 210.684 262.265C211.094 262.542 211.383 262.74 211.552 262.859C211.72 262.977 211.976 263.174 212.319 263.447C212.678 263.726 212.937 263.94 213.096 264.09C213.255 264.24 213.465 264.448 213.726 264.714C214.002 264.984 214.194 265.221 214.303 265.424C214.412 265.627 214.533 265.877 214.665 266.172C214.818 266.456 214.906 266.73 214.929 266.992C214.952 267.254 214.948 267.551 214.916 267.882C214.905 268.202 214.847 268.534 214.744 268.877C214.311 270.313 213.443 271.303 212.138 271.846C210.838 272.374 209.346 272.384 207.66 271.876ZM229.28 265.289L231.317 265.903L227.79 277.61L225.753 276.996L226.36 274.982C224.879 276.222 223.171 276.55 221.236 275.967C219.597 275.473 218.379 274.459 217.581 272.925C216.788 271.375 216.651 269.741 217.168 268.024C217.685 266.307 218.7 265.03 220.213 264.191C221.73 263.338 223.308 263.158 224.947 263.651C226.882 264.235 228.125 265.452 228.674 267.303L229.28 265.289ZM222.086 274.078C223.272 274.435 224.384 274.336 225.419 273.78C226.46 273.208 227.159 272.329 227.517 271.143C227.874 269.956 227.775 268.845 227.218 267.809C226.667 266.758 225.798 266.053 224.612 265.696C223.441 265.343 222.336 265.453 221.295 266.024C220.259 266.581 219.562 267.452 219.205 268.638C218.847 269.824 218.944 270.943 219.496 271.995C220.052 273.031 220.915 273.725 222.086 274.078ZM241.331 265.626C239.322 264.833 238.024 265.413 237.436 267.364L237.33 267.715L240.421 268.646L239.828 270.613L236.737 269.682L233.803 279.422L231.766 278.808L234.701 269.068L232.827 268.503L233.42 266.537L235.293 267.101L235.399 266.75C235.874 265.173 236.671 264.111 237.79 263.563C238.924 263.019 240.302 263.051 241.923 263.659L241.331 265.626ZM240.714 276.141C240.601 277.248 240.833 278.203 241.408 279.006C241.999 279.814 242.848 280.385 243.957 280.719C245.502 281.185 246.797 280.954 247.843 280.026L249.279 281.531C247.609 282.952 245.626 283.316 243.331 282.625C241.474 282.065 240.134 281.031 239.311 279.524C238.509 278.005 238.376 276.356 238.912 274.576C239.444 272.813 240.455 271.517 241.948 270.69C243.44 269.862 245.091 269.722 246.902 270.267C248.619 270.784 249.832 271.814 250.543 273.356C251.273 274.887 251.382 276.504 250.869 278.205C250.78 278.502 250.665 278.799 250.524 279.097L240.714 276.141ZM246.323 272.187C245.231 271.858 244.231 271.897 243.325 272.305C242.424 272.698 241.732 273.383 241.25 274.361L249.07 276.718C249.232 275.558 249.049 274.583 248.521 273.794C247.992 273.005 247.26 272.469 246.323 272.187ZM270.928 289.868L268.784 290.371L267.658 288.091C266.097 288.863 264.364 288.963 262.46 288.389C260.821 287.895 259.621 287.074 258.861 285.925C258.105 284.761 257.946 283.453 258.383 282.001C258.684 281.003 259.209 280.165 259.958 279.488C260.727 278.8 261.676 278.363 262.805 278.175C262.371 277.074 262.318 275.977 262.648 274.884C263.057 273.526 263.857 272.567 265.047 272.006C266.253 271.45 267.52 271.372 268.847 271.772C269.939 272.101 270.841 272.696 271.552 273.558C272.263 274.419 272.656 275.431 272.731 276.594L270.587 277.098C270.57 276.309 270.349 275.63 269.925 275.059C269.516 274.493 268.961 274.105 268.258 273.893C267.509 273.667 266.801 273.701 266.134 273.994C265.482 274.291 265.048 274.799 264.832 275.517C264.677 276.032 264.653 276.535 264.76 277.027C264.887 277.508 265.116 278.079 265.444 278.74L268.477 284.864C269.112 284.17 269.691 283.264 270.216 282.145L271.764 283.786C271.155 285.016 270.384 286.052 269.449 286.894L270.928 289.868ZM263.128 286.343C264.423 286.733 265.616 286.675 266.705 286.169L263.712 280.083C262.868 280.169 262.183 280.439 261.654 280.893C261.142 281.351 260.791 281.893 260.603 282.517C260.34 283.391 260.429 284.167 260.872 284.846C261.314 285.524 262.066 286.023 263.128 286.343ZM284.073 294.902C282.544 294.441 281.341 293.687 280.464 292.639C279.604 291.597 279.143 290.385 279.082 289.005L281.28 288.492C281.322 290.667 282.483 292.098 284.762 292.785C285.886 293.124 286.813 293.156 287.542 292.882C288.276 292.593 288.759 292.065 288.989 291.301C289.224 290.52 289.104 289.845 288.629 289.276C288.153 288.708 287.287 287.995 286.029 287.14C285.408 286.714 284.937 286.385 284.616 286.152C284.299 285.903 283.907 285.564 283.441 285.134C282.995 284.693 282.682 284.292 282.501 283.931C282.325 283.555 282.198 283.099 282.121 282.565C282.059 282.036 282.117 281.475 282.296 280.881C282.724 279.461 283.562 278.488 284.811 277.961C286.064 277.42 287.408 277.365 288.844 277.798C290.14 278.188 291.165 278.854 291.919 279.797C292.689 280.744 293.154 281.829 293.314 283.052L291.17 283.555C290.975 281.658 289.988 280.441 288.209 279.905C287.319 279.637 286.536 279.639 285.857 279.911C285.179 280.184 284.728 280.695 284.502 281.444C284.285 282.162 284.378 282.786 284.781 283.316C285.183 283.845 285.955 284.504 287.097 285.291C287.507 285.567 287.797 285.765 287.965 285.884C288.134 286.003 288.39 286.199 288.733 286.473C289.092 286.751 289.35 286.966 289.51 287.116C289.669 287.266 289.878 287.474 290.139 287.739C290.415 288.01 290.607 288.247 290.716 288.45C290.826 288.653 290.946 288.902 291.079 289.197C291.231 289.482 291.319 289.755 291.342 290.018C291.365 290.28 291.361 290.577 291.329 290.908C291.318 291.228 291.261 291.559 291.157 291.903C290.725 293.339 289.856 294.329 288.552 294.872C287.252 295.4 285.759 295.41 284.073 294.902ZM295.383 292.614C295.271 293.721 295.502 294.676 296.077 295.48C296.668 296.288 297.518 296.859 298.626 297.192C300.171 297.658 301.467 297.427 302.512 296.499L303.949 298.005C302.278 299.425 300.295 299.79 298 299.098C296.143 298.539 294.803 297.505 293.98 295.997C293.178 294.478 293.045 292.829 293.581 291.05C294.113 289.286 295.125 287.99 296.617 287.163C298.109 286.336 299.76 286.195 301.571 286.741C303.288 287.258 304.502 288.288 305.212 289.83C305.942 291.361 306.051 292.977 305.538 294.678C305.449 294.975 305.334 295.272 305.193 295.57L295.383 292.614ZM300.992 288.66C299.9 288.331 298.9 288.371 297.994 288.779C297.093 289.171 296.401 289.856 295.919 290.835L303.739 293.191C303.901 292.031 303.718 291.057 303.19 290.267C302.661 289.478 301.929 288.943 300.992 288.66ZM311.511 303.169C309.747 302.638 308.456 301.61 307.638 300.087C306.825 298.548 306.682 296.904 307.208 295.156C307.735 293.408 308.76 292.125 310.284 291.307C311.812 290.473 313.458 290.322 315.222 290.854C316.377 291.202 317.33 291.796 318.082 292.635C318.838 293.459 319.301 294.407 319.472 295.48L317.466 295.949C317.358 295.235 317.048 294.597 316.536 294.034C316.041 293.476 315.402 293.079 314.622 292.844C313.451 292.491 312.348 292.593 311.312 293.149C310.292 293.71 309.603 294.584 309.245 295.77C308.893 296.941 308.987 298.041 309.527 299.073C310.083 300.109 310.947 300.803 312.117 301.156C312.898 301.391 313.654 301.423 314.387 301.252C315.124 301.066 315.751 300.71 316.267 300.184L317.696 301.713C316.919 302.483 315.977 303.008 314.872 303.288C313.77 303.552 312.65 303.513 311.511 303.169ZM330.51 295.793L332.546 296.406L329.019 308.113L326.982 307.499L327.49 305.813C326.263 306.891 324.799 307.173 323.097 306.661C321.724 306.247 320.753 305.486 320.184 304.378C319.62 303.255 319.562 301.952 320.008 300.469L322.174 293.281L324.211 293.895L322.081 300.966C321.794 301.918 321.828 302.737 322.183 303.423C322.543 304.093 323.176 304.564 324.081 304.837C325.095 305.143 326.009 305.078 326.822 304.642C327.639 304.19 328.245 303.308 328.64 301.997L330.51 295.793ZM337.092 299.921C338.201 298.672 339.637 298.313 341.401 298.844L340.759 300.975C339.774 300.627 338.835 300.634 337.943 300.995C337.051 301.356 336.412 302.177 336.027 303.457L334.157 309.661L332.12 309.047L335.648 297.341L337.685 297.955L337.092 299.921ZM342.072 306.683C341.96 307.79 342.191 308.745 342.767 309.548C343.357 310.356 344.207 310.927 345.315 311.261C346.86 311.727 348.156 311.496 349.202 310.568L350.638 312.074C348.967 313.494 346.984 313.859 344.69 313.167C342.832 312.607 341.492 311.574 340.67 310.066C339.867 308.547 339.734 306.898 340.271 305.119C340.802 303.355 341.814 302.059 343.306 301.232C344.798 300.405 346.45 300.264 348.26 300.809C349.977 301.327 351.191 302.356 351.901 303.898C352.632 305.43 352.74 307.046 352.228 308.747C352.138 309.044 352.023 309.341 351.882 309.639L342.072 306.683ZM347.682 302.729C346.589 302.4 345.59 302.439 344.684 302.847C343.782 303.24 343.09 303.925 342.608 304.904L350.428 307.26C350.591 306.1 350.408 305.126 349.879 304.336C349.351 303.547 348.618 303.011 347.682 302.729Z" fill="black"/>
<circle cx="162.291" cy="250.957" r="27.1702" transform="rotate(16.7691 162.291 250.957)" fill="white"/>
<circle cx="162.292" cy="250.956" r="18.5409" transform="rotate(16.7691 162.292 250.956)" fill="#E6FFCB"/>
<path d="M169.433 252.623L171.665 248.276C173.608 244.493 172.195 239.856 168.526 237.972C166.755 237.069 164.688 236.925 162.776 237.572C160.864 238.218 159.262 239.603 158.321 241.422L156.089 245.769C154.456 246.657 153.051 248.035 152.129 249.831C151.448 251.152 151.08 252.61 151.053 254.086C151.026 255.562 151.341 257.016 151.973 258.328C152.605 259.641 153.535 260.775 154.689 261.64C155.844 262.505 157.189 263.076 158.615 263.306C160.042 263.536 161.51 263.419 162.901 262.965C164.291 262.511 165.565 261.731 166.619 260.691C167.673 259.65 168.477 258.377 168.965 256.976C169.454 255.574 169.614 254.083 169.433 252.623ZM161.287 242.946C162.366 240.844 164.917 239.981 166.956 241.028C168.994 242.075 169.779 244.652 168.7 246.753L167.832 248.442C166.997 247.246 165.889 246.277 164.6 245.615C163.311 244.953 161.878 244.616 160.419 244.634L161.287 242.946ZM156.621 257.454L154.873 251.784L157.141 251.017L158.159 254.387L166.124 251.768L166.822 254.058L156.621 257.454Z" fill="#00BC13"/>
</g>
<defs>
<filter id="filter0_b_2244_3985" x="-6.32093" y="-6.32093" width="394.572" height="159.183" filterUnits="userSpaceOnUse" color-interpolation-filters="sRGB">
<feFlood flood-opacity="0" result="BackgroundImageFix"/>
<feGaussianBlur in="BackgroundImage" stdDeviation="3.16047"/>
<feComposite in2="SourceAlpha" operator="in" result="effect1_backgroundBlur_2244_3985"/>
<feBlend mode="normal" in="SourceGraphic" in2="effect1_backgroundBlur_2244_3985" result="shape"/>
</filter>
<filter id="filter1_b_2244_3985" x="298.679" y="95.6791" width="389.54" height="109.997" filterUnits="userSpaceOnUse" color-interpolation-filters="sRGB">
<feFlood flood-opacity="0" result="BackgroundImageFix"/>
<feGaussianBlur in="BackgroundImage" stdDeviation="3.16047"/>
<feComposite in2="SourceAlpha" operator="in" result="effect1_backgroundBlur_2244_3985"/>
<feBlend mode="normal" in="SourceGraphic" in2="effect1_backgroundBlur_2244_3985" result="shape"/>
</filter>
<filter id="filter2_b_2244_3985" x="101.679" y="192.679" width="393.47" height="197.172" filterUnits="userSpaceOnUse" color-interpolation-filters="sRGB">
<feFlood flood-opacity="0" result="BackgroundImageFix"/>
<feGaussianBlur in="BackgroundImage" stdDeviation="3.16047"/>
<feComposite in2="SourceAlpha" operator="in" result="effect1_backgroundBlur_2244_3985"/>
<feBlend mode="normal" in="SourceGraphic" in2="effect1_backgroundBlur_2244_3985" result="shape"/>
</filter>
<clipPath id="clip0_2244_3985">
<rect width="28.9815" height="28.9815" fill="white" transform="translate(34.5957 88.0471) rotate(-10.4432)"/>
</clipPath>
<clipPath id="clip1_2244_3985">
<rect width="35.3597" height="35.3597" fill="white" transform="translate(332.811 128.197) rotate(-3.20051)"/>
</clipPath>
</defs>
</svg>
